{
.appVersion = "1342";
copyright = "Copyright \\(c\\) 2014 by Robert E. Leuschke. All rights reserved.";
customParameters = (
{
name = description;
value = "Copyright (c) 2014 by Robert E. Leuschke. All rights reserved.";
},
{
name = trademark;
value = "Praise Pro is a trademark of Robert E. Leuschke.";
},
{
name = licenseURL;
value = "http://www.typesetit.com/license.html";
},
{
name = license;

glyphs = (
{
color = 3;
glyphname = A;
lastChange = "2021-05-07 03:34:56 +0000";
layers = (
{
hints = (
{
horizontal = 1;
place = "{-7, 46}";
type = Stem;
},
{
horizontal = 1;
place = "{-18, 21}";
target = up;
type = BottomGhost;
},
{
horizontal = 1;
place = "{-4, 21}";
target = up;
type = BottomGhost;
},
{
horizontal = 1;
place = "{232, 36}";
type = Stem;
},
{
horizontal = 1;
place = "{547, 24}";
type = Stem;
},
{
horizontal = 1;
place = "{556, 44}";
type = Stem;
},
{
place = "{44, 133}";
type = Stem;
},
{
place = "{377, 89}";
type = Stem;
},
{
place = "{425, 35}";
type = Stem;
},
{
place = "{446, 57}";
type = Stem;
}
);
layerId = "C623C401-2266-4A98-B253-3D45160C29C7";
paths = (
{
closed = 1;
nodes = (
"357 133 OFFCURVE",
"328 8 OFFCURVE",
"402 -9 CURVE SMOOTH",
"422 -14 OFFCURVE",
"473 -13 OFFCURVE",
"473 8 CURVE",
"469 11 OFFCURVE",
"457 18 OFFCURVE",
"457 38 CURVE SMOOTH",
"457 123 OFFCURVE",
"499 273 OFFCURVE",
"580 380 CURVE",
"606 425 OFFCURVE",
"501 438 OFFCURVE",
"464 445 CURVE",
"370 250 OFFCURVE",
"291 45 OFFCURVE",
"207 43 CURVE SMOOTH",
"143 42 OFFCURVE",
"174 178 OFFCURVE",
"223 281 CURVE SMOOTH",
"268 369 OFFCURVE",
"375 546 OFFCURVE",
"488 546 CURVE SMOOTH",
"519 546 OFFCURVE",
"565 537 OFFCURVE",
"569 509 CURVE SMOOTH",
"572 493 OFFCURVE",
"610 510 OFFCURVE",
"594 553 CURVE SMOOTH",
"580 588 OFFCURVE",
"547 607 OFFCURVE",
"489 607 CURVE SMOOTH",
"247 607 OFFCURVE",
"109 369 OFFCURVE",
"58 190 CURVE SMOOTH",
"26 79 OFFCURVE",
"50 -2 OFFCURVE",
"151 -5 CURVE SMOOTH",
"236 -8 OFFCURVE",
"316 58 OFFCURVE",
"368 174 CURVE"
);
}
);
width = 511;
}
);
note = A;
unicode = 0041;
},
{
color = 3;
glyphname = Aacute;
lastChange = "2021-05-07 03:34:56 +0000";
layers = (
{
hints = (
{
horizontal = 1;
place = "{-4, 21}";
target = up;
type = BottomGhost;
},
{
horizontal = 1;
place = "{232, 36}";
type = Stem;
},
{
horizontal = 1;
place = "{547, 24}";
type = Stem;
},
{
place = "{44, 133}";
type = Stem;
},
{
place = "{377, 89}";
type = Stem;
},
{
place = "{425, 35}";
type = Stem;
}
);
layerId = "C623C401-2266-4A98-B253-3D45160C29C7";
paths = (
{
closed = 1;
nodes = (
"357 133 OFFCURVE",
"328 8 OFFCURVE",
"402 -9 CURVE SMOOTH",
"422 -14 OFFCURVE",
"473 -13 OFFCURVE",
"473 8 CURVE",
"469 11 OFFCURVE",
"457 18 OFFCURVE",
"457 38 CURVE SMOOTH",
"457 123 OFFCURVE",
"499 273 OFFCURVE",
"580 380 CURVE",
"606 425 OFFCURVE",
"501 438 OFFCURVE",
"464 445 CURVE",
"370 250 OFFCURVE",
"291 45 OFFCURVE",
"207 43 CURVE SMOOTH",
"143 42 OFFCURVE",
"174 178 OFFCURVE",
"223 281 CURVE SMOOTH",
"268 369 OFFCURVE",
"375 546 OFFCURVE",
"488 546 CURVE SMOOTH",
"519 546 OFFCURVE",
"565 537 OFFCURVE",
"569 509 CURVE SMOOTH",
"572 493 OFFCURVE",
"610 510 OFFCURVE",
"594 553 CURVE SMOOTH",
"580 588 OFFCURVE",
"547 607 OFFCURVE",
"489 607 CURVE SMOOTH",
"247 607 OFFCURVE",
"109 369 OFFCURVE",
"58 190 CURVE SMOOTH",
"26 79 OFFCURVE",
"50 -2 OFFCURVE",
"151 -5 CURVE SMOOTH",
"236 -8 OFFCURVE",
"316 58 OFFCURVE",
"368 174 CURVE"
);
},
{
closed = 1;
nodes = (
"449 703 OFFCURVE",
"493 684 OFFCURVE",
"501 686 CURVE SMOOTH",
"522 692 OFFCURVE",
"628 720 OFFCURVE",
"664 728 CURVE SMOOTH",
"680 731 OFFCURVE",
"600 771 OFFCURVE",
"586 763 CURVE SMOOTH",
"561 750 OFFCURVE",
"487 718 OFFCURVE",
"460 707 CURVE SMOOTH"
);
}
);
width = 532;
}
);
note = Aacute;
unicode = 00C1;
},
{
color = 3;
glyphname = Acircumflex;
lastChange = "2021-05-07 03:34:56 +0000";
layers = (
{
hints = (
{
horizontal = 1;
place = "{-7, 46}";
type = Stem;
},
{
horizontal = 1;
place = "{-18, 21}";
target = up;
type = BottomGhost;
},
{
horizontal = 1;
place = "{-4, 21}";
target = up;
type = BottomGhost;
},
{
horizontal = 1;
place = "{232, 36}";
type = Stem;
},
{
horizontal = 1;
place = "{547, 24}";
type = Stem;
},
{
horizontal = 1;
place = "{556, 44}";
type = Stem;
},
{
place = "{44, 133}";
type = Stem;
},
{
place = "{377, 89}";
type = Stem;
},
{
place = "{425, 35}";
type = Stem;
},
{
place = "{446, 57}";
type = Stem;
}
);
layerId = "C623C401-2266-4A98-B253-3D45160C29C7";
paths = (
{
closed = 1;
nodes = (
"357 133 OFFCURVE",
"328 8 OFFCURVE",
"402 -9 CURVE SMOOTH",
"422 -14 OFFCURVE",
"473 -13 OFFCURVE",
"473 8 CURVE",
"469 11 OFFCURVE",
"457 18 OFFCURVE",
"457 38 CURVE SMOOTH",
"457 123 OFFCURVE",
"499 273 OFFCURVE",
"580 380 CURVE",
"606 425 OFFCURVE",
"501 438 OFFCURVE",
"464 445 CURVE",
"370 250 OFFCURVE",
"291 45 OFFCURVE",
"207 43 CURVE SMOOTH",
"143 42 OFFCURVE",
"174 178 OFFCURVE",
"223 281 CURVE SMOOTH",
"268 369 OFFCURVE",
"375 546 OFFCURVE",
"488 546 CURVE SMOOTH",
"519 546 OFFCURVE",
"565 537 OFFCURVE",
"569 509 CURVE SMOOTH",
"572 493 OFFCURVE",
"610 510 OFFCURVE",
"594 553 CURVE SMOOTH",
"580 588 OFFCURVE",
"547 607 OFFCURVE",
"489 607 CURVE SMOOTH",
"247 607 OFFCURVE",
"109 369 OFFCURVE",
"58 190 CURVE SMOOTH",
"26 79 OFFCURVE",
"50 -2 OFFCURVE",
"151 -5 CURVE SMOOTH",
"236 -8 OFFCURVE",
"316 58 OFFCURVE",
"368 174 CURVE"
);
},
{
closed = 1;
nodes = (
"398 660 LINE SMOOTH",
"392 656 OFFCURVE",
"454 655 OFFCURVE",
"458 659 CURVE SMOOTH",
"521 730 LINE",
"550 656 LINE SMOOTH",
"551 652 OFFCURVE",
"612 654 OFFCURVE",
"608 660 CURVE SMOOTH",
"554 758 LINE",
"547 764 OFFCURVE",
"524 761 OFFCURVE",
"517 757 CURVE"
);
}
);
width = 532;
}
);
note = Acircumflex;
unicode = 00C2;
},
{
color = 3;
glyphname = Adieresis;
lastChange = "2021-05-07 03:34:56 +0000";
layers = (
{
hints = (
{
horizontal = 1;
place = "{-7, 46}";
type = Stem;
},
{
horizontal = 1;
place = "{-18, 21}";
target = up;
type = BottomGhost;
},
{
horizontal = 1;
place = "{-4, 21}";
target = up;
type = BottomGhost;
},
{
horizontal = 1;
place = "{232, 36}";
type = Stem;
},
{
horizontal = 1;
place = "{547, 24}";
type = Stem;
},
{
horizontal = 1;
place = "{556, 44}";
type = Stem;
},
{
place = "{44, 133}";
type = Stem;
},
{
place = "{377, 89}";
type = Stem;
},
{
place = "{425, 35}";
type = Stem;
},
{
place = "{446, 57}";
type = Stem;
}
);
layerId = "C623C401-2266-4A98-B253-3D45160C29C7";
paths = (
{
closed = 1;
nodes = (
"357 133 OFFCURVE",
"328 8 OFFCURVE",
"402 -9 CURVE SMOOTH",
"422 -14 OFFCURVE",
"473 -13 OFFCURVE",
"473 8 CURVE",
"469 11 OFFCURVE",
"457 18 OFFCURVE",
"457 38 CURVE SMOOTH",
"457 123 OFFCURVE",
"499 273 OFFCURVE",
"580 380 CURVE",
"606 425 OFFCURVE",
"501 438 OFFCURVE",
"464 445 CURVE",
"370 250 OFFCURVE",
"291 45 OFFCURVE",
"207 43 CURVE SMOOTH",
"143 42 OFFCURVE",
"174 178 OFFCURVE",
"223 281 CURVE SMOOTH",
"268 369 OFFCURVE",
"375 546 OFFCURVE",
"488 546 CURVE SMOOTH",
"519 546 OFFCURVE",
"565 537 OFFCURVE",
"569 509 CURVE SMOOTH",
"572 493 OFFCURVE",
"610 510 OFFCURVE",
"594 553 CURVE SMOOTH",
"580 588 OFFCURVE",
"547 607 OFFCURVE",
"489 607 CURVE SMOOTH",
"247 607 OFFCURVE",
"109 369 OFFCURVE",
"58 190 CURVE SMOOTH",
"26 79 OFFCURVE",
"50 -2 OFFCURVE",
"151 -5 CURVE SMOOTH",
"236 -8 OFFCURVE",
"316 58 OFFCURVE",
"368 174 CURVE"
);
},
{
closed = 1;
nodes = (
"758 738 OFFCURVE",
"745 759 OFFCURVE",
"720 758 CURVE SMOOTH",
"696 756 OFFCURVE",
"670 733 OFFCURVE",
"663 705 CURVE SMOOTH",
"656 677 OFFCURVE",
"669 656 OFFCURVE",
"694 658 CURVE SMOOTH",
"718 659 OFFCURVE",
"744 683 OFFCURVE",
"751 710 CURVE SMOOTH"
);
},
{
closed = 1;
nodes = (
"604 738 OFFCURVE",
"590 759 OFFCURVE",
"566 758 CURVE SMOOTH",
"541 756 OFFCURVE",
"516 733 OFFCURVE",
"508 705 CURVE SMOOTH",
"501 677 OFFCURVE",
"515 656 OFFCURVE",
"539 658 CURVE SMOOTH",
"564 659 OFFCURVE",
"589 683 OFFCURVE",
"597 710 CURVE SMOOTH"
);
}
);
width = 532;
}
);
note = Adieresis;
unicode = 00C4;
},
{
color = 3;
glyphname = Agrave;
lastChange = "2021-05-07 03:34:56 +0000";
layers = (
{
hints = (
{
horizontal = 1;
place = "{-7, 46}";
type = Stem;
},
{
horizontal = 1;
place = "{-18, 21}";
target = up;
type = BottomGhost;
},
{
horizontal = 1;
place = "{-4, 21}";
target = up;
type = BottomGhost;
},
{
horizontal = 1;
place = "{232, 36}";
type = Stem;
},
{
horizontal = 1;
place = "{547, 24}";
type = Stem;
},
{
horizontal = 1;
place = "{556, 44}";
type = Stem;
},
{
place = "{44, 133}";
type = Stem;
},
{
place = "{377, 89}";
type = Stem;
},
{
place = "{425, 35}";
type = Stem;
},
{
place = "{446, 57}";
type = Stem;
}
);
layerId = "C623C401-2266-4A98-B253-3D45160C29C7";
paths = (
{
closed = 1;
nodes = (
"357 133 OFFCURVE",
"328 8 OFFCURVE",
"402 -9 CURVE SMOOTH",
"422 -14 OFFCURVE",
"473 -13 OFFCURVE",
"473 8 CURVE",
"469 11 OFFCURVE",
"457 18 OFFCURVE",
"457 38 CURVE SMOOTH",
"457 123 OFFCURVE",
"499 273 OFFCURVE",
"580 380 CURVE",
"606 425 OFFCURVE",
"501 438 OFFCURVE",
"464 445 CURVE",
"370 250 OFFCURVE",
"291 45 OFFCURVE",
"207 43 CURVE SMOOTH",
"143 42 OFFCURVE",
"174 178 OFFCURVE",
"223 281 CURVE SMOOTH",
"268 369 OFFCURVE",
"375 546 OFFCURVE",
"488 546 CURVE SMOOTH",
"519 546 OFFCURVE",
"565 537 OFFCURVE",
"569 509 CURVE SMOOTH",
"572 493 OFFCURVE",
"610 510 OFFCURVE",
"594 553 CURVE SMOOTH",
"580 588 OFFCURVE",
"547 607 OFFCURVE",
"489 607 CURVE SMOOTH",
"247 607 OFFCURVE",
"109 369 OFFCURVE",
"58 190 CURVE SMOOTH",
"26 79 OFFCURVE",
"50 -2 OFFCURVE",
"151 -5 CURVE SMOOTH",
"236 -8 OFFCURVE",
"316 58 OFFCURVE",
"368 174 CURVE"
);
},
{
closed = 1;
nodes = (
"585 713 OFFCURVE",
"511 745 OFFCURVE",
"486 758 CURVE SMOOTH",
"472 766 OFFCURVE",
"392 726 OFFCURVE",
"408 723 CURVE SMOOTH",
"444 715 OFFCURVE",
"550 687 OFFCURVE",
"571 681 CURVE SMOOTH",
"579 679 OFFCURVE",
"623 698 OFFCURVE",
"612 702 CURVE SMOOTH"
);
}
);
width = 532;
}
);
note = Agrave;
unicode = 00C0;
},
{
color = 3;
glyphname = Amacron;
lastChange = "2021-05-07 03:34:56 +0000";
layers = (
{
hints = (
{
horizontal = 1;
place = "{-7, 46}";
type = Stem;
},
{
horizontal = 1;
place = "{-18, 21}";
target = up;
type = BottomGhost;
},
{
horizontal = 1;
place = "{-4, 21}";
target = up;
type = BottomGhost;
},
{
horizontal = 1;
place = "{232, 36}";
type = Stem;
},
{
horizontal = 1;
place = "{547, 24}";
type = Stem;
},
{
horizontal = 1;
place = "{556, 44}";
type = Stem;
},
{
place = "{44, 133}";
type = Stem;
},
{
place = "{377, 89}";
type = Stem;
},
{
place = "{425, 35}";
type = Stem;
},
{
place = "{446, 57}";
type = Stem;
}
);
layerId = "C623C401-2266-4A98-B253-3D45160C29C7";
paths = (
{
closed = 1;
nodes = (
"357 133 OFFCURVE",
"328 8 OFFCURVE",
"402 -9 CURVE SMOOTH",
"422 -14 OFFCURVE",
"473 -13 OFFCURVE",
"473 8 CURVE",
"469 11 OFFCURVE",
"457 18 OFFCURVE",
"457 38 CURVE SMOOTH",
"457 123 OFFCURVE",
"499 273 OFFCURVE",
"580 380 CURVE",
"606 425 OFFCURVE",
"501 438 OFFCURVE",
"464 445 CURVE",
"370 250 OFFCURVE",
"291 45 OFFCURVE",
"207 43 CURVE SMOOTH",
"143 42 OFFCURVE",
"174 178 OFFCURVE",
"223 281 CURVE SMOOTH",
"268 369 OFFCURVE",
"375 546 OFFCURVE",
"488 546 CURVE SMOOTH",
"519 546 OFFCURVE",
"565 537 OFFCURVE",
"569 509 CURVE SMOOTH",
"572 493 OFFCURVE",
"610 510 OFFCURVE",
"594 553 CURVE SMOOTH",
"580 588 OFFCURVE",
"547 607 OFFCURVE",
"489 607 CURVE SMOOTH",
"247 607 OFFCURVE",
"109 369 OFFCURVE",
"58 190 CURVE SMOOTH",
"26 79 OFFCURVE",
"50 -2 OFFCURVE",
"151 -5 CURVE SMOOTH",
"236 -8 OFFCURVE",
"316 58 OFFCURVE",
"368 174 CURVE"
);
},
{
closed = 1;
nodes = (
"563 730 LINE SMOOTH",
"552 730 OFFCURVE",
"516 688 OFFCURVE",
"531 688 CURVE SMOOTH",
"725 688 LINE SMOOTH",
"732 688 OFFCURVE",
"770 730 OFFCURVE",
"747 730 CURVE SMOOTH"
);
}
);
width = 532;
}
);
note = Amacron;
unicode = 0100;
},
{
color = 3;
glyphname = Aogonek;
lastChange = "2021-05-07 03:34:56 +0000";
layers = (
{
hints = (
{
horizontal = 1;
place = "{-4, 21}";
target = up;
type = BottomGhost;
},
{
horizontal = 1;
place = "{232, 36}";
type = Stem;
},
{
horizontal = 1;
place = "{547, 24}";
type = Stem;
},
{
place = "{44, 133}";
type = Stem;
},
{
place = "{377, 89}";
type = Stem;
},
{
place = "{425, 35}";
type = Stem;
}
);
layerId = "C623C401-2266-4A98-B253-3D45160C29C7";
paths = (
{
closed = 1;
nodes = (
"448 -143 OFFCURVE",
"451 -122 OFFCURVE",
"427 -147 CURVE SMOOTH",
"399 -177 OFFCURVE",
"368 -202 OFFCURVE",
"347 -202 CURVE SMOOTH",
"331 -202 OFFCURVE",
"318 -188 OFFCURVE",
"318 -161 CURVE SMOOTH",
"318 -112 OFFCURVE",
"356 -35 OFFCURVE",
"425 -11 CURVE",
"447 -12 OFFCURVE",
"473 -7 OFFCURVE",
"473 8 CURVE",
"469 11 OFFCURVE",
"457 18 OFFCURVE",
"457 38 CURVE SMOOTH",
"457 123 OFFCURVE",
"499 273 OFFCURVE",
"580 380 CURVE",
"606 425 OFFCURVE",
"501 438 OFFCURVE",
"464 445 CURVE",
"370 250 OFFCURVE",
"291 45 OFFCURVE",
"207 43 CURVE SMOOTH",
"143 42 OFFCURVE",
"174 178 OFFCURVE",
"223 281 CURVE SMOOTH",
"268 369 OFFCURVE",
"375 546 OFFCURVE",
"488 546 CURVE SMOOTH",
"519 546 OFFCURVE",
"565 537 OFFCURVE",
"569 509 CURVE SMOOTH",
"572 493 OFFCURVE",
"610 510 OFFCURVE",
"594 553 CURVE SMOOTH",
"580 588 OFFCURVE",
"547 607 OFFCURVE",
"489 607 CURVE SMOOTH",
"247 607 OFFCURVE",
"109 369 OFFCURVE",
"58 190 CURVE SMOOTH",
"26 79 OFFCURVE",
"50 -2 OFFCURVE",
"151 -5 CURVE SMOOTH",
"236 -8 OFFCURVE",
"316 58 OFFCURVE",
"368 174 CURVE",
"358 136 OFFCURVE",
"332 26 OFFCURVE",
"386 -3 CURVE",
"300 -29 OFFCURVE",
"244 -115 OFFCURVE",
"244 -188 CURVE SMOOTH",
"244 -225 OFFCURVE",
"270 -245 OFFCURVE",
"302 -246 CURVE SMOOTH",
"329 -246 OFFCURVE",
"356 -234 OFFCURVE",
"385 -210 CURVE SMOOTH",
"404 -194 OFFCURVE",
"421 -175 OFFCURVE",
"438 -154 CURVE SMOOTH"
);
}
);
width = 532;
}
);
note = Aogonek;
unicode = 0104;
},
{
color = 3;
glyphname = Aring;
lastChange = "2021-05-07 03:34:56 +0000";
layers = (
{
hints = (
{
horizontal = 1;
place = "{-7, 46}";
type = Stem;
},
{
horizontal = 1;
place = "{-18, 21}";
target = up;
type = BottomGhost;
},
{
horizontal = 1;
place = "{-4, 21}";
target = up;
type = BottomGhost;
},
{
horizontal = 1;
place = "{232, 36}";
type = Stem;
},
{
horizontal = 1;
place = "{547, 24}";
type = Stem;
},
{
horizontal = 1;
place = "{556, 44}";
type = Stem;
},
{
place = "{44, 133}";
type = Stem;
},
{
place = "{377, 89}";
type = Stem;
},
{
place = "{425, 35}";
type = Stem;
},
{
place = "{446, 57}";
type = Stem;
}
);
layerId = "C623C401-2266-4A98-B253-3D45160C29C7";
paths = (
{
closed = 1;
nodes = (
"744 713 OFFCURVE",
"726 761 OFFCURVE",
"662 762 CURVE SMOOTH",
"594 763 OFFCURVE",
"548 719 OFFCURVE",
"534 673 CURVE SMOOTH",
"525 645 OFFCURVE",
"529 616 OFFCURVE",
"547 598 CURVE",
"531 604 OFFCURVE",
"512 607 OFFCURVE",
"489 607 CURVE SMOOTH",
"247 607 OFFCURVE",
"109 369 OFFCURVE",
"58 190 CURVE SMOOTH",
"26 79 OFFCURVE",
"50 -2 OFFCURVE",
"151 -5 CURVE SMOOTH",
"236 -8 OFFCURVE",
"316 58 OFFCURVE",
"368 174 CURVE",
"357 133 OFFCURVE",
"328 8 OFFCURVE",
"402 -9 CURVE SMOOTH",
"422 -14 OFFCURVE",
"473 -13 OFFCURVE",
"473 8 CURVE",
"469 11 OFFCURVE",
"457 18 OFFCURVE",
"457 38 CURVE SMOOTH",
"457 123 OFFCURVE",
"499 273 OFFCURVE",
"580 380 CURVE",
"606 425 OFFCURVE",
"501 438 OFFCURVE",
"464 445 CURVE",
"370 250 OFFCURVE",
"291 45 OFFCURVE",
"207 43 CURVE SMOOTH",
"143 42 OFFCURVE",
"174 178 OFFCURVE",
"223 281 CURVE SMOOTH",
"268 369 OFFCURVE",
"375 546 OFFCURVE",
"488 546 CURVE SMOOTH",
"519 546 OFFCURVE",
"565 537 OFFCURVE",
"569 509 CURVE SMOOTH",
"572 493 OFFCURVE",
"610 510 OFFCURVE",
"594 553 CURVE SMOOTH",
"589 564 OFFCURVE",
"582 574 OFFCURVE",
"573 582 CURVE",
"581 580 OFFCURVE",
"590 579 OFFCURVE",
"600 579 CURVE SMOOTH",
"667 578 OFFCURVE",
"714 622 OFFCURVE",
"729 668 CURVE SMOOTH"
);
},
{
closed = 1;
nodes = (
"705 718 OFFCURVE",
"660 608 OFFCURVE",
"608 619 CURVE SMOOTH",
"564 628 OFFCURVE",
"607 738 OFFCURVE",
"659 728 CURVE SMOOTH"
);
}
);
width = 532;
}
);
note = Aring;
unicode = 00C5;
},
{
color = 3;
glyphname = Atilde;
lastChange = "2021-05-07 03:34:56 +0000";
layers = (
{
hints = (
{
horizontal = 1;
place = "{-7, 46}";
type = Stem;
},
{
horizontal = 1;
place = "{-18, 21}";
target = up;
type = BottomGhost;
},
{
horizontal = 1;
place = "{-4, 21}";
target = up;
type = BottomGhost;
},
{
horizontal = 1;
place = "{232, 36}";
type = Stem;
},
{
horizontal = 1;
place = "{547, 24}";
type = Stem;
},
{
horizontal = 1;
place = "{556, 44}";
type = Stem;
},
{
place = "{44, 133}";
type = Stem;
},
{
place = "{377, 89}";
type = Stem;
},
{
place = "{425, 35}";
type = Stem;
},
{
place = "{446, 57}";
type = Stem;
}
);
layerId = "C623C401-2266-4A98-B253-3D45160C29C7";
paths = (
{
closed = 1;
nodes = (
"357 133 OFFCURVE",
"328 8 OFFCURVE",
"402 -9 CURVE SMOOTH",
"422 -14 OFFCURVE",
"473 -13 OFFCURVE",
"473 8 CURVE",
"469 11 OFFCURVE",
"457 18 OFFCURVE",
"457 38 CURVE SMOOTH",
"457 123 OFFCURVE",
"499 273 OFFCURVE",
"580 380 CURVE",
"606 425 OFFCURVE",
"501 438 OFFCURVE",
"464 445 CURVE",
"370 250 OFFCURVE",
"291 45 OFFCURVE",
"207 43 CURVE SMOOTH",
"143 42 OFFCURVE",
"174 178 OFFCURVE",
"223 281 CURVE SMOOTH",
"268 369 OFFCURVE",
"375 546 OFFCURVE",
"488 546 CURVE SMOOTH",
"519 546 OFFCURVE",
"565 537 OFFCURVE",
"569 509 CURVE SMOOTH",
"572 493 OFFCURVE",
"610 510 OFFCURVE",
"594 553 CURVE SMOOTH",
"580 588 OFFCURVE",
"547 607 OFFCURVE",
"489 607 CURVE SMOOTH",
"247 607 OFFCURVE",
"109 369 OFFCURVE",
"58 190 CURVE SMOOTH",
"26 79 OFFCURVE",
"50 -2 OFFCURVE",
"151 -5 CURVE SMOOTH",
"236 -8 OFFCURVE",
"316 58 OFFCURVE",
"368 174 CURVE"
);
},
{
closed = 1;
nodes = (
"651 733 OFFCURVE",
"640 749 OFFCURVE",
"636 743 CURVE SMOOTH",
"628 733 OFFCURVE",
"610 719 OFFCURVE",
"583 719 CURVE SMOOTH",
"539 719 OFFCURVE",
"508 745 OFFCURVE",
"464 745 CURVE SMOOTH",
"430 745 OFFCURVE",
"397 709 OFFCURVE",
"387 691 CURVE",
"385 685 OFFCURVE",
"401 672 OFFCURVE",
"404 678 CURVE SMOOTH",
"412 690 OFFCURVE",
"425 696 OFFCURVE",
"454 696 CURVE SMOOTH",
"495 696 OFFCURVE",
"529 670 OFFCURVE",
"572 670 CURVE SMOOTH",
"606 670 OFFCURVE",
"631 707 OFFCURVE",
"646 728 CURVE"
);
}
);
width = 532;
}
);
note = Atilde;
unicode = 00C3;
},
{
color = 3;
glyphname = AE;
lastChange = "2021-05-07 03:34:56 +0000";
layers = (
{
hints = (
{
horizontal = 1;
place = "{-5, 21}";
target = up;
type = BottomGhost;
},
{
horizontal = 1;
place = "{612, -20}";
target = down;
type = TopGhost;
},
{
place = "{340, 95}";
type = Stem;
}
);
layerId = "C623C401-2266-4A98-B253-3D45160C29C7";
paths = (
{
closed = 1;
nodes = (
"807 620 OFFCURVE",
"684 625 OFFCURVE",
"622 619 CURVE SMOOTH",
"574 614 OFFCURVE",
"543 626 OFFCURVE",
"520 572 CURVE SMOOTH",
"516 560 LINE",
"513 556 LINE",
"467 508 OFFCURVE",
"361 394 OFFCURVE",
"256 285 CURVE",
"202 285 OFFCURVE",
"159 283 OFFCURVE",
"146 280 CURVE SMOOTH",
"105 271 OFFCURVE",
"88 263 OFFCURVE",
"74 238 CURVE SMOOTH",
"64 221 OFFCURVE",
"67 207 OFFCURVE",
"75 208 CURVE SMOOTH",
"87 210 OFFCURVE",
"114 214 OFFCURVE",
"148 217 CURVE SMOOTH",
"163 219 OFFCURVE",
"179 221 OFFCURVE",
"195 222 CURVE",
"104 128 OFFCURVE",
"22 49 OFFCURVE",
"-8 32 CURVE SMOOTH",
"-31 19 OFFCURVE",
"12 2 OFFCURVE",
"60 -4 CURVE SMOOTH",
"128 -11 OFFCURVE",
"157 21 OFFCURVE",
"201 80 CURVE SMOOTH",
"213 96 OFFCURVE",
"254 156 OFFCURVE",
"303 229 CURVE",
"332 230 OFFCURVE",
"363 231 OFFCURVE",
"395 230 CURVE",
"380 193 OFFCURVE",
"362 153 OFFCURVE",
"342 106 CURVE",
"323 39 OFFCURVE",
"375 -15 OFFCURVE",
"442 -1 CURVE SMOOTH",
"490 8 OFFCURVE",
"693 40 OFFCURVE",
"708 11 CURVE SMOOTH",
"710 6 OFFCURVE",
"715 7 OFFCURVE",
"715 14 CURVE SMOOTH",
"715 22 OFFCURVE",
"719 36 OFFCURVE",
"720 46 CURVE SMOOTH",
"727 112 OFFCURVE",
"545 103 OFFCURVE",
"448 90 CURVE",
"460 125 OFFCURVE",
"481 172 OFFCURVE",
"506 226 CURVE",
"525 227 LINE SMOOTH",
"616 233 OFFCURVE",
"707 233 OFFCURVE",
"718 221 CURVE SMOOTH",
"726 213 OFFCURVE",
"727 238 OFFCURVE",
"727 242 CURVE SMOOTH",
"727 274 OFFCURVE",
"625 285 OFFCURVE",
"534 287 CURVE",
"538 294 LINE SMOOTH",
"568 358 OFFCURVE",
"601 420 OFFCURVE",
"630 471 CURVE SMOOTH",
"644 496 OFFCURVE",
"657 518 OFFCURVE",
"668 536 CURVE",
"730 540 OFFCURVE",
"788 538 OFFCURVE",
"798 522 CURVE SMOOTH",
"801 518 OFFCURVE",
"806 519 OFFCURVE",
"805 526 CURVE SMOOTH",
"804 534 OFFCURVE",
"807 547 OFFCURVE",
"807 556 CURVE SMOOTH"
);
},
{
closed = 1;
nodes = (
"376 345 OFFCURVE",
"461 448 OFFCURVE",
"512 514 CURVE",
"489 465 OFFCURVE",
"469 407 OFFCURVE",
"419 287 CURVE",
"394 288 OFFCURVE",
"357 287 OFFCURVE",
"338 288 CURVE"
);
}
);
width = 729;
}
);
note = AE;
unicode = 00C6;
},
{
color = 3;
glyphname = B;
lastChange = "2021-05-07 03:34:56 +0000";
layers = (
{
hints = (
{
horizontal = 1;
place = "{-6, 36}";
type = Stem;
},
{
horizontal = 1;
place = "{572, 29}";
type = Stem;
},
{
place = "{18, 34}";
type = Stem;
},
{
place = "{81, 88}";
type = Stem;
},
{
place = "{273, 200}";
type = Stem;
},
{
place = "{449, 110}";
type = Stem;
}
);
layerId = "C623C401-2266-4A98-B253-3D45160C29C7";
paths = (
{
closed = 1;
nodes = (
"282 631 OFFCURVE",
"-7 586 OFFCURVE",
"5 449 CURVE SMOOTH",
"9 414 OFFCURVE",
"57 409 OFFCURVE",
"67 406 CURVE",
"75 458 OFFCURVE",
"129 518 OFFCURVE",
"204 553 CURVE SMOOTH",
"278 587 OFFCURVE",
"429 618 OFFCURVE",
"429 499 CURVE SMOOTH",
"429 407 OFFCURVE",
"348 291 OFFCURVE",
"284 292 CURVE",
"271 291 OFFCURVE",
"269 275 OFFCURVE",
"283 267 CURVE SMOOTH",
"333 237 OFFCURVE",
"353 141 OFFCURVE",
"343 97 CURVE SMOOTH",
"330 40 OFFCURVE",
"266 14 OFFCURVE",
"206 25 CURVE SMOOTH",
"176 30 OFFCURVE",
"171 49 OFFCURVE",
"176 69 CURVE SMOOTH",
"188 123 OFFCURVE",
"224 220 OFFCURVE",
"268 313 CURVE SMOOTH",
"296 372 OFFCURVE",
"346 477 OFFCURVE",
"389 526 CURVE SMOOTH",
"395 533 OFFCURVE",
"378 538 OFFCURVE",
"332 538 CURVE SMOOTH",
"290 538 OFFCURVE",
"251 525 OFFCURVE",
"226 486 CURVE SMOOTH",
"172 398 OFFCURVE",
"80 194 OFFCURVE",
"80 91 CURVE SMOOTH",
"80 62 OFFCURVE",
"84 40 OFFCURVE",
"99 30 CURVE SMOOTH",
"173 -17 OFFCURVE",
"293 -21 OFFCURVE",
"373 10 CURVE SMOOTH",
"526 68 OFFCURVE",
"495 263 OFFCURVE",
"353 294 CURVE",
"547 302 OFFCURVE",
"648 572 OFFCURVE",
"396 612 CURVE SMOOTH"
);
}
);
width = 472;
}
);
note = B;
unicode = 0042;
},
{
color = 3;
glyphname = C;
lastChange = "2021-05-07 03:34:56 +0000";
layers = (
{
hints = (
{
horizontal = 1;
place = "{-7, 46}";
type = Stem;
},
{
horizontal = 1;
place = "{556, 44}";
type = Stem;
},
{
place = "{44, 133}";
type = Stem;
},
{
place = "{425, 35}";
type = Stem;
},
{
place = "{446, 57}";
type = Stem;
}
);
layerId = "C623C401-2266-4A98-B253-3D45160C29C7";
paths = (
{
closed = 1;
nodes = (
"492 252 OFFCURVE",
"439 240 OFFCURVE",
"426 242 CURVE",
"386 165 OFFCURVE",
"302 40 OFFCURVE",
"227 40 CURVE SMOOTH",
"144 40 OFFCURVE",
"181 187 OFFCURVE",
"227 292 CURVE SMOOTH",
"244 329 OFFCURVE",
"287 411 OFFCURVE",
"335 475 CURVE SMOOTH",
"436 612 OFFCURVE",
"472 553 OFFCURVE",
"429 463 CURVE SMOOTH",
"404 408 OFFCURVE",
"352 343 OFFCURVE",
"336 328 CURVE SMOOTH",
"324 317 OFFCURVE",
"315 304 OFFCURVE",
"341 309 CURVE SMOOTH",
"484 337 OFFCURVE",
"593 600 OFFCURVE",
"396 600 CURVE SMOOTH",
"353 600 OFFCURVE",
"303 582 OFFCURVE",
"263 547 CURVE SMOOTH",
"175 472 OFFCURVE",
"86 297 OFFCURVE",
"57 194 CURVE SMOOTH",
"17 53 OFFCURVE",
"64 -40 OFFCURVE",
"238 5 CURVE SMOOTH",
"311 23 OFFCURVE",
"390 83 OFFCURVE",
"433 154 CURVE SMOOTH"
);
}
);
width = 433;
}
);
note = C;
unicode = 0043;
},
{
color = 3;
glyphname = Cacute;
lastChange = "2021-05-07 03:34:56 +0000";
layers = (
{
hints = (
{
horizontal = 1;
place = "{-7, 46}";
type = Stem;
},
{
horizontal = 1;
place = "{556, 44}";
type = Stem;
},
{
place = "{44, 133}";
type = Stem;
},
{
place = "{425, 35}";
type = Stem;
},
{
place = "{446, 57}";
type = Stem;
}
);
layerId = "C623C401-2266-4A98-B253-3D45160C29C7";
paths = (
{
closed = 1;
nodes = (
"492 252 OFFCURVE",
"439 240 OFFCURVE",
"426 242 CURVE",
"386 165 OFFCURVE",
"302 40 OFFCURVE",
"227 40 CURVE SMOOTH",
"144 40 OFFCURVE",
"181 187 OFFCURVE",
"227 292 CURVE SMOOTH",
"244 329 OFFCURVE",
"287 411 OFFCURVE",
"335 475 CURVE SMOOTH",
"436 612 OFFCURVE",
"472 553 OFFCURVE",
"429 463 CURVE SMOOTH",
"404 408 OFFCURVE",
"352 343 OFFCURVE",
"336 328 CURVE SMOOTH",
"324 317 OFFCURVE",
"315 304 OFFCURVE",
"341 309 CURVE SMOOTH",
"484 337 OFFCURVE",
"593 600 OFFCURVE",
"396 600 CURVE SMOOTH",
"353 600 OFFCURVE",
"303 582 OFFCURVE",
"263 547 CURVE SMOOTH",
"175 472 OFFCURVE",
"86 297 OFFCURVE",
"57 194 CURVE SMOOTH",
"17 53 OFFCURVE",
"64 -40 OFFCURVE",
"238 5 CURVE SMOOTH",
"311 23 OFFCURVE",
"390 83 OFFCURVE",
"433 154 CURVE SMOOTH"
);
},
{
closed = 1;
nodes = (
"347 690 OFFCURVE",
"391 671 OFFCURVE",
"399 673 CURVE SMOOTH",
"420 679 OFFCURVE",
"526 707 OFFCURVE",
"562 715 CURVE SMOOTH",
"578 718 OFFCURVE",
"498 758 OFFCURVE",
"484 750 CURVE SMOOTH",
"459 737 OFFCURVE",
"385 705 OFFCURVE",
"358 694 CURVE SMOOTH"
);
}
);
width = 450;
}
);
note = Cacute;
unicode = 0106;
},
{
color = 3;
glyphname = Ccaron;
lastChange = "2021-05-07 03:34:56 +0000";
layers = (
{
hints = (
{
horizontal = 1;
place = "{-7, 46}";
type = Stem;
},
{
horizontal = 1;
place = "{556, 44}";
type = Stem;
},
{
place = "{44, 133}";
type = Stem;
},
{
place = "{425, 35}";
type = Stem;
},
{
place = "{446, 57}";
type = Stem;
}
);
layerId = "C623C401-2266-4A98-B253-3D45160C29C7";
paths = (
{
closed = 1;
nodes = (
"492 252 OFFCURVE",
"439 240 OFFCURVE",
"426 242 CURVE",
"386 165 OFFCURVE",
"302 40 OFFCURVE",
"227 40 CURVE SMOOTH",
"144 40 OFFCURVE",
"181 187 OFFCURVE",
"227 292 CURVE SMOOTH",
"244 329 OFFCURVE",
"287 411 OFFCURVE",
"335 475 CURVE SMOOTH",
"436 612 OFFCURVE",
"472 553 OFFCURVE",
"429 463 CURVE SMOOTH",
"404 408 OFFCURVE",
"352 343 OFFCURVE",
"336 328 CURVE SMOOTH",
"324 317 OFFCURVE",
"315 304 OFFCURVE",
"341 309 CURVE SMOOTH",
"484 337 OFFCURVE",
"593 600 OFFCURVE",
"396 600 CURVE SMOOTH",
"353 600 OFFCURVE",
"303 582 OFFCURVE",
"263 547 CURVE SMOOTH",
"175 472 OFFCURVE",
"86 297 OFFCURVE",
"57 194 CURVE SMOOTH",
"17 53 OFFCURVE",
"64 -40 OFFCURVE",
"238 5 CURVE SMOOTH",
"311 23 OFFCURVE",
"390 83 OFFCURVE",
"433 154 CURVE SMOOTH"
);
},
{
closed = 1;
nodes = (
"576 766 LINE SMOOTH",
"582 770 OFFCURVE",
"520 771 OFFCURVE",
"516 767 CURVE SMOOTH",
"453 696 LINE",
"424 770 LINE SMOOTH",
"423 774 OFFCURVE",
"362 772 OFFCURVE",
"366 766 CURVE SMOOTH",
"420 668 LINE",
"427 662 OFFCURVE",
"450 665 OFFCURVE",
"457 669 CURVE"
);
}
);
width = 450;
}
);
note = Ccaron;
unicode = 010C;
},
{
color = 3;
glyphname = Ccedilla;
lastChange = "2021-05-07 03:34:56 +0000";
layers = (
{
hints = (
{
horizontal = 1;
place = "{-7, 46}";
type = Stem;
},
{
horizontal = 1;
place = "{556, 44}";
type = Stem;
},
{
place = "{44, 133}";
type = Stem;
},
{
place = "{425, 35}";
type = Stem;
},
{
place = "{446, 57}";
type = Stem;
}
);
layerId = "C623C401-2266-4A98-B253-3D45160C29C7";
paths = (
{
closed = 1;
nodes = (
"492 252 OFFCURVE",
"439 240 OFFCURVE",
"426 242 CURVE",
"386 165 OFFCURVE",
"302 40 OFFCURVE",
"227 40 CURVE SMOOTH",
"144 40 OFFCURVE",
"181 187 OFFCURVE",
"227 292 CURVE SMOOTH",
"244 329 OFFCURVE",
"287 411 OFFCURVE",
"335 475 CURVE SMOOTH",
"436 612 OFFCURVE",
"472 553 OFFCURVE",
"429 463 CURVE SMOOTH",
"404 408 OFFCURVE",
"352 343 OFFCURVE",
"336 328 CURVE SMOOTH",
"324 317 OFFCURVE",
"315 304 OFFCURVE",
"341 309 CURVE SMOOTH",
"484 337 OFFCURVE",
"593 600 OFFCURVE",
"396 600 CURVE SMOOTH",
"353 600 OFFCURVE",
"303 582 OFFCURVE",
"263 547 CURVE SMOOTH",
"175 472 OFFCURVE",
"86 297 OFFCURVE",
"57 194 CURVE SMOOTH",
"27 89 OFFCURVE",
"45 10 OFFCURVE",
"129 -4 CURVE",
"114 -39 LINE",
"110 -39 LINE SMOOTH",
"49 -39 OFFCURVE",
"10 -66 OFFCURVE",
"-17 -114 CURVE SMOOTH",
"-50 -175 OFFCURVE",
"-52 -265 OFFCURVE",
"36 -265 CURVE SMOOTH",
"77 -265 OFFCURVE",
"106 -249 OFFCURVE",
"129 -227 CURVE SMOOTH",
"142 -214 OFFCURVE",
"152 -177 OFFCURVE",
"138 -192 CURVE SMOOTH",
"121 -211 OFFCURVE",
"89 -225 OFFCURVE",
"66 -225 CURVE SMOOTH",
"26 -225 OFFCURVE",
"26 -174 OFFCURVE",
"46 -127 CURVE SMOOTH",
"59 -98 OFFCURVE",
"87 -47 OFFCURVE",
"129 -59 CURVE SMOOTH",
"144 -63 OFFCURVE",
"155 -64 OFFCURVE",
"158 -55 CURVE SMOOTH",
"173 -6 LINE",
"192 -5 OFFCURVE",
"214 -1 OFFCURVE",
"238 5 CURVE SMOOTH",
"311 23 OFFCURVE",
"390 83 OFFCURVE",
"433 154 CURVE SMOOTH"
);
}
);
width = 450;
}
);
note = Ccedilla;
unicode = 00C7;
},
{
color = 3;
glyphname = D;
lastChange = "2021-05-07 03:34:56 +0000";
layers = (
{
hints = (
{
horizontal = 1;
place = "{-8, 31}";
type = Stem;
},
{
horizontal = 1;
place = "{567, 34}";
type = Stem;
},
{
place = "{18, 34}";
type = Stem;
},
{
place = "{92, 84}";
type = Stem;
},
{
place = "{456, 117}";
type = Stem;
}
);
layerId = "C623C401-2266-4A98-B253-3D45160C29C7";
paths = (
{
closed = 1;
nodes = (
"399 512 OFFCURVE",
"372 517 OFFCURVE",
"326 517 CURVE SMOOTH",
"284 517 OFFCURVE",
"251 503 OFFCURVE",
"225 465 CURVE SMOOTH",
"175 389 OFFCURVE",
"91 207 OFFCURVE",
"76 83 CURVE SMOOTH",
"70 33 OFFCURVE",
"92 36 OFFCURVE",
"125 20 CURVE",
"137 16 LINE",
"230 -52 OFFCURVE",
"366 35 OFFCURVE",
"457 158 CURVE SMOOTH",
"512 231 OFFCURVE",
"572 350 OFFCURVE",
"573 460 CURVE SMOOTH",
"574 539 OFFCURVE",
"532 600 OFFCURVE",
"417 601 CURVE SMOOTH",
"355 601 OFFCURVE",
"292 588 OFFCURVE",
"239 566 CURVE SMOOTH",
"126 518 OFFCURVE",
"65 455 OFFCURVE",
"57 445 CURVE SMOOTH",
"-19 348 OFFCURVE",
"39 359 OFFCURVE",
"52 357 CURVE",
"94 424 OFFCURVE",
"195 499 OFFCURVE",
"283 540 CURVE SMOOTH",
"573 676 OFFCURVE",
"427 278 OFFCURVE",
"354 159 CURVE SMOOTH",
"312 89 OFFCURVE",
"240 14 OFFCURVE",
"178 25 CURVE",
"169 70 OFFCURVE",
"232 223 OFFCURVE",
"269 303 CURVE SMOOTH",
"298 363 OFFCURVE",
"350 456 OFFCURVE",
"393 505 CURVE SMOOTH"
);
}
);
width = 488;
}
);
note = D;
unicode = 0044;
},
{
color = 3;
glyphname = Eth;
lastChange = "2021-05-07 03:34:56 +0000";
layers = (
{
hints = (
{
horizontal = 1;
place = "{243, 45}";
type = Stem;
},
{
place = "{104, 270}";
type = Stem;
}
);
layerId = "C623C401-2266-4A98-B253-3D45160C29C7";
paths = (
{
closed = 1;
nodes = (
"240 282 LINE",
"286 362 OFFCURVE",
"344 440 OFFCURVE",
"377 482 CURVE SMOOTH",
"411 526 OFFCURVE",
"425 511 OFFCURVE",
"423 466 CURVE SMOOTH",
"416 359 OFFCURVE",
"343 180 OFFCURVE",
"275 92 CURVE SMOOTH",
"250 61 OFFCURVE",
"208 18 OFFCURVE",
"167 54 CURVE SMOOTH",
"163 58 OFFCURVE",
"153 45 OFFCURVE",
"167 24 CURVE SMOOTH",
"176 11 OFFCURVE",
"210 0 OFFCURVE",
"225 0 CURVE SMOOTH",
"416 0 OFFCURVE",
"623 462 OFFCURVE",
"508 564 CURVE SMOOTH",
"481 588 OFFCURVE",
"434 598 OFFCURVE",
"417 580 CURVE SMOOTH",
"383 546 OFFCURVE",
"319 448 OFFCURVE",
"276 379 CURVE",
"304 442 OFFCURVE",
"331 499 OFFCURVE",
"350 537 CURVE SMOOTH",
"370 578 OFFCURVE",
"343 597 OFFCURVE",
"320 604 CURVE SMOOTH",
"288 613 OFFCURVE",
"252 616 OFFCURVE",
"223 616 CURVE SMOOTH",
"197 616 OFFCURVE",
"193 603 OFFCURVE",
"204 599 CURVE SMOOTH",
"248 581 OFFCURVE",
"197 467 OFFCURVE",
"147 365 CURVE SMOOTH",
"135 341 OFFCURVE",
"122 312 OFFCURVE",
"109 282 CURVE",
"79 282 LINE SMOOTH",
"66 282 OFFCURVE",
"28 222 OFFCURVE",
"45 222 CURVE SMOOTH",
"85 222 LINE",
"48 121 OFFCURVE",
"26 18 OFFCURVE",
"76 -5 CURVE SMOOTH",
"90 -12 OFFCURVE",
"124 -19 OFFCURVE",
"135 -24 CURVE SMOOTH",
"146 -29 OFFCURVE",
"150 -22 OFFCURVE",
"144 -15 CURVE SMOOTH",
"129 3 OFFCURVE",
"158 101 OFFCURVE",
"205 211 CURVE SMOOTH",
"210 222 LINE",
"269 222 LINE SMOOTH",
"277 222 OFFCURVE",
"317 282 OFFCURVE",
"291 282 CURVE SMOOTH"
);
}
);
width = 475;
}
);
note = Eth;
unicode = 00D0;
},
{
color = 3;
glyphname = Dcaron;
lastChange = "2021-05-07 03:34:56 +0000";
layers = (
{
hints = (
{
horizontal = 1;
place = "{-8, 31}";
type = Stem;
},
{
horizontal = 1;
place = "{567, 34}";
type = Stem;
},
{
place = "{18, 34}";
type = Stem;
},
{
place = "{92, 84}";
type = Stem;
},
{
place = "{456, 117}";
type = Stem;
}
);
layerId = "C623C401-2266-4A98-B253-3D45160C29C7";
paths = (
{
closed = 1;
nodes = (
"399 512 OFFCURVE",
"372 517 OFFCURVE",
"326 517 CURVE SMOOTH",
"284 517 OFFCURVE",
"251 503 OFFCURVE",
"225 465 CURVE SMOOTH",
"175 389 OFFCURVE",
"91 207 OFFCURVE",
"76 83 CURVE SMOOTH",
"70 33 OFFCURVE",
"92 36 OFFCURVE",
"125 20 CURVE",
"137 16 LINE",
"230 -52 OFFCURVE",
"366 35 OFFCURVE",
"457 158 CURVE SMOOTH",
"512 231 OFFCURVE",
"572 350 OFFCURVE",
"573 460 CURVE SMOOTH",
"574 539 OFFCURVE",
"532 600 OFFCURVE",
"417 601 CURVE SMOOTH",
"355 601 OFFCURVE",
"292 588 OFFCURVE",
"239 566 CURVE SMOOTH",
"126 518 OFFCURVE",
"65 455 OFFCURVE",
"57 445 CURVE SMOOTH",
"-19 348 OFFCURVE",
"39 359 OFFCURVE",
"52 357 CURVE",
"94 424 OFFCURVE",
"195 499 OFFCURVE",
"283 540 CURVE SMOOTH",
"573 676 OFFCURVE",
"427 278 OFFCURVE",
"354 159 CURVE SMOOTH",
"312 89 OFFCURVE",
"240 14 OFFCURVE",
"178 25 CURVE",
"169 70 OFFCURVE",
"232 223 OFFCURVE",
"269 303 CURVE SMOOTH",
"298 363 OFFCURVE",
"350 456 OFFCURVE",
"393 505 CURVE SMOOTH"
);
},
{
closed = 1;
nodes = (
"604 766 LINE SMOOTH",
"610 770 OFFCURVE",
"548 771 OFFCURVE",
"544 767 CURVE SMOOTH",
"481 696 LINE",
"452 770 LINE SMOOTH",
"451 774 OFFCURVE",
"390 772 OFFCURVE",
"394 766 CURVE SMOOTH",
"448 668 LINE",
"455 662 OFFCURVE",
"478 665 OFFCURVE",
"485 669 CURVE"
);
}
);
width = 488;
}
);
note = Dcaron;
unicode = 010E;
},
{
color = 3;
glyphname = E;
lastChange = "2021-05-07 03:34:56 +0000";
layers = (
{
hints = (
{
horizontal = 1;
place = "{-2, 41}";
type = Stem;
},
{
horizontal = 1;
place = "{537, 68}";
type = Stem;
},
{
place = "{18, 110}";
type = Stem;
},
{
place = "{132, 112}";
type = Stem;
},
{
place = "{389, 27}";
type = Stem;
},
{
place = "{414, 38}";
type = Stem;
}
);
layerId = "C623C401-2266-4A98-B253-3D45160C29C7";
paths = (
{
closed = 1;
nodes = (
"489 264 OFFCURVE",
"429 251 OFFCURVE",
"414 254 CURVE",
"369 172 OFFCURVE",
"252 40 OFFCURVE",
"177 40 CURVE SMOOTH",
"69 40 OFFCURVE",
"153 242 OFFCURVE",
"330 307 CURVE SMOOTH",
"366 321 OFFCURVE",
"327 381 OFFCURVE",
"293 383 CURVE",
"196 418 OFFCURVE",
"269 498 OFFCURVE",
"307 517 CURVE SMOOTH",
"344 536 OFFCURVE",
"377 539 OFFCURVE",
"406 536 CURVE",
"384 468 OFFCURVE",
"378 362 OFFCURVE",
"417 375 CURVE",
"422 431 OFFCURVE",
"453 485 OFFCURVE",
"483 525 CURVE SMOOTH",
"498 544 OFFCURVE",
"517 564 OFFCURVE",
"545 586 CURVE SMOOTH",
"588 620 OFFCURVE",
"478 668 OFFCURVE",
"422 574 CURVE",
"404 590 OFFCURVE",
"374 606 OFFCURVE",
"329 606 CURVE SMOOTH",
"256 605 OFFCURVE",
"173 578 OFFCURVE",
"145 525 CURVE SMOOTH",
"100 442 OFFCURVE",
"185 382 OFFCURVE",
"259 376 CURVE",
"96 326 OFFCURVE",
"19 208 OFFCURVE",
"19 115 CURVE SMOOTH",
"19 50 OFFCURVE",
"60 -1 OFFCURVE",
"137 -1 CURVE SMOOTH",
"224 -1 OFFCURVE",
"363 68 OFFCURVE",
"422 160 CURVE SMOOTH"
);
}
);
width = 430;
}
);
note = E;
unicode = 0045;
},
{
color = 3;
glyphname = Eacute;
lastChange = "2021-05-07 03:34:56 +0000";
layers = (
{
hints = (
{
horizontal = 1;
place = "{-2, 41}";
type = Stem;
},
{
horizontal = 1;
place = "{537, 68}";
type = Stem;
},
{
place = "{18, 110}";
type = Stem;
},
{
place = "{132, 112}";
type = Stem;
},
{
place = "{389, 27}";
type = Stem;
},
{
place = "{414, 38}";
type = Stem;
}
);
layerId = "C623C401-2266-4A98-B253-3D45160C29C7";
paths = (
{
closed = 1;
nodes = (
"489 264 OFFCURVE",
"429 251 OFFCURVE",
"414 254 CURVE",
"369 172 OFFCURVE",
"252 40 OFFCURVE",
"177 40 CURVE SMOOTH",
"69 40 OFFCURVE",
"153 242 OFFCURVE",
"330 307 CURVE SMOOTH",
"366 321 OFFCURVE",
"327 381 OFFCURVE",
"293 383 CURVE",
"196 418 OFFCURVE",
"269 498 OFFCURVE",
"307 517 CURVE SMOOTH",
"344 536 OFFCURVE",
"377 539 OFFCURVE",
"406 536 CURVE",
"384 468 OFFCURVE",
"378 362 OFFCURVE",
"417 375 CURVE",
"422 431 OFFCURVE",
"453 485 OFFCURVE",
"483 525 CURVE SMOOTH",
"498 544 OFFCURVE",
"517 564 OFFCURVE",
"545 586 CURVE SMOOTH",
"588 620 OFFCURVE",
"478 668 OFFCURVE",
"422 574 CURVE",
"404 590 OFFCURVE",
"374 606 OFFCURVE",
"329 606 CURVE SMOOTH",
"256 605 OFFCURVE",
"173 578 OFFCURVE",
"145 525 CURVE SMOOTH",
"100 442 OFFCURVE",
"185 382 OFFCURVE",
"259 376 CURVE",
"96 326 OFFCURVE",
"19 208 OFFCURVE",
"19 115 CURVE SMOOTH",
"19 50 OFFCURVE",
"60 -1 OFFCURVE",
"137 -1 CURVE SMOOTH",
"224 -1 OFFCURVE",
"363 68 OFFCURVE",
"422 160 CURVE SMOOTH"
);
},
{
closed = 1;
nodes = (
"341 710 OFFCURVE",
"385 691 OFFCURVE",
"393 693 CURVE SMOOTH",
"414 699 OFFCURVE",
"520 727 OFFCURVE",
"556 735 CURVE SMOOTH",
"572 738 OFFCURVE",
"492 778 OFFCURVE",
"478 770 CURVE SMOOTH",
"453 757 OFFCURVE",
"379 725 OFFCURVE",
"352 714 CURVE SMOOTH"
);
}
);
width = 443;
}
);
note = Eacute;
unicode = 00C9;
},
{
color = 3;
glyphname = Ecaron;
lastChange = "2021-05-07 03:34:56 +0000";
layers = (
{
hints = (
{
horizontal = 1;
place = "{-2, 41}";
type = Stem;
},
{
horizontal = 1;
place = "{537, 68}";
type = Stem;
},
{
place = "{18, 110}";
type = Stem;
},
{
place = "{132, 112}";
type = Stem;
},
{
place = "{414, 38}";
type = Stem;
},
{
place = "{389, 27}";
type = Stem;
}
);
layerId = "C623C401-2266-4A98-B253-3D45160C29C7";
paths = (
{
closed = 1;
nodes = (
"489 264 OFFCURVE",
"429 251 OFFCURVE",
"414 254 CURVE",
"369 172 OFFCURVE",
"252 40 OFFCURVE",
"177 40 CURVE SMOOTH",
"69 40 OFFCURVE",
"153 242 OFFCURVE",
"330 307 CURVE SMOOTH",
"366 321 OFFCURVE",
"327 381 OFFCURVE",
"293 383 CURVE",
"196 418 OFFCURVE",
"269 498 OFFCURVE",
"307 517 CURVE SMOOTH",
"344 536 OFFCURVE",
"377 539 OFFCURVE",
"406 536 CURVE",
"384 468 OFFCURVE",
"378 362 OFFCURVE",
"417 375 CURVE",
"422 431 OFFCURVE",
"453 485 OFFCURVE",
"483 525 CURVE SMOOTH",
"498 544 OFFCURVE",
"517 564 OFFCURVE",
"545 586 CURVE SMOOTH",
"588 620 OFFCURVE",
"478 668 OFFCURVE",
"422 574 CURVE",
"404 590 OFFCURVE",
"374 606 OFFCURVE",
"329 606 CURVE SMOOTH",
"256 605 OFFCURVE",
"173 578 OFFCURVE",
"145 525 CURVE SMOOTH",
"100 442 OFFCURVE",
"185 382 OFFCURVE",
"259 376 CURVE",
"96 326 OFFCURVE",
"19 208 OFFCURVE",
"19 115 CURVE SMOOTH",
"19 50 OFFCURVE",
"60 -1 OFFCURVE",
"137 -1 CURVE SMOOTH",
"224 -1 OFFCURVE",
"363 68 OFFCURVE",
"422 160 CURVE SMOOTH"
);
},
{
closed = 1;
nodes = (
"541 774 LINE SMOOTH",
"547 778 OFFCURVE",
"485 779 OFFCURVE",
"481 775 CURVE SMOOTH",
"418 704 LINE",
"389 778 LINE SMOOTH",
"388 782 OFFCURVE",
"327 780 OFFCURVE",
"331 774 CURVE SMOOTH",
"385 676 LINE",
"392 670 OFFCURVE",
"415 673 OFFCURVE",
"422 677 CURVE"
);
}
);
width = 443;
}
);
note = Ecaron;
unicode = 011A;
},
{
color = 3;
glyphname = Ecircumflex;
lastChange = "2021-05-07 03:34:56 +0000";
layers = (
{
hints = (
{
horizontal = 1;
place = "{-2, 41}";
type = Stem;
},
{
horizontal = 1;
place = "{537, 68}";
type = Stem;
},
{
place = "{18, 110}";
type = Stem;
},
{
place = "{132, 112}";
type = Stem;
},
{
place = "{389, 27}";
type = Stem;
},
{
place = "{414, 38}";
type = Stem;
}
);
layerId = "C623C401-2266-4A98-B253-3D45160C29C7";
paths = (
{
closed = 1;
nodes = (
"489 264 OFFCURVE",
"429 251 OFFCURVE",
"414 254 CURVE",
"369 172 OFFCURVE",
"252 40 OFFCURVE",
"177 40 CURVE SMOOTH",
"69 40 OFFCURVE",
"153 242 OFFCURVE",
"330 307 CURVE SMOOTH",
"366 321 OFFCURVE",
"327 381 OFFCURVE",
"293 383 CURVE",
"196 418 OFFCURVE",
"269 498 OFFCURVE",
"307 517 CURVE SMOOTH",
"344 536 OFFCURVE",
"377 539 OFFCURVE",
"406 536 CURVE",
"384 468 OFFCURVE",
"378 362 OFFCURVE",
"417 375 CURVE",
"422 431 OFFCURVE",
"453 485 OFFCURVE",
"483 525 CURVE SMOOTH",
"498 544 OFFCURVE",
"517 564 OFFCURVE",
"545 586 CURVE SMOOTH",
"588 620 OFFCURVE",
"478 668 OFFCURVE",
"422 574 CURVE",
"404 590 OFFCURVE",
"374 606 OFFCURVE",
"329 606 CURVE SMOOTH",
"256 605 OFFCURVE",
"173 578 OFFCURVE",
"145 525 CURVE SMOOTH",
"100 442 OFFCURVE",
"185 382 OFFCURVE",
"259 376 CURVE",
"96 326 OFFCURVE",
"19 208 OFFCURVE",
"19 115 CURVE SMOOTH",
"19 50 OFFCURVE",
"60 -1 OFFCURVE",
"137 -1 CURVE SMOOTH",
"224 -1 OFFCURVE",
"363 68 OFFCURVE",
"422 160 CURVE SMOOTH"
);
},
{
closed = 1;
nodes = (
"344 704 LINE SMOOTH",
"338 700 OFFCURVE",
"400 699 OFFCURVE",
"404 703 CURVE SMOOTH",
"467 774 LINE",
"496 700 LINE SMOOTH",
"497 696 OFFCURVE",
"558 698 OFFCURVE",
"554 704 CURVE SMOOTH",
"500 802 LINE",
"493 808 OFFCURVE",
"470 805 OFFCURVE",
"463 801 CURVE"
);
}
);
width = 443;
}
);
note = Ecircumflex;
unicode = 00CA;
},
{
color = 3;
glyphname = Edieresis;
lastChange = "2021-05-07 03:34:56 +0000";
layers = (
{
hints = (
{
horizontal = 1;
place = "{-2, 41}";
type = Stem;
},
{
horizontal = 1;
place = "{537, 68}";
type = Stem;
},
{
place = "{18, 110}";
type = Stem;
},
{
place = "{132, 112}";
type = Stem;
},
{
place = "{389, 27}";
type = Stem;
},
{
place = "{414, 38}";
type = Stem;
}
);
layerId = "C623C401-2266-4A98-B253-3D45160C29C7";
paths = (
{
closed = 1;
nodes = (
"489 264 OFFCURVE",
"429 251 OFFCURVE",
"414 254 CURVE",
"369 172 OFFCURVE",
"252 40 OFFCURVE",
"177 40 CURVE SMOOTH",
"69 40 OFFCURVE",
"153 242 OFFCURVE",
"330 307 CURVE SMOOTH",
"366 321 OFFCURVE",
"327 381 OFFCURVE",
"293 383 CURVE",
"196 418 OFFCURVE",
"269 498 OFFCURVE",
"307 517 CURVE SMOOTH",
"344 536 OFFCURVE",
"377 539 OFFCURVE",
"406 536 CURVE",
"384 468 OFFCURVE",
"378 362 OFFCURVE",
"417 375 CURVE",
"422 431 OFFCURVE",
"453 485 OFFCURVE",
"483 525 CURVE SMOOTH",
"498 544 OFFCURVE",
"517 564 OFFCURVE",
"545 586 CURVE SMOOTH",
"588 620 OFFCURVE",
"478 668 OFFCURVE",
"422 574 CURVE",
"404 590 OFFCURVE",
"374 606 OFFCURVE",
"329 606 CURVE SMOOTH",
"256 605 OFFCURVE",
"173 578 OFFCURVE",
"145 525 CURVE SMOOTH",
"100 442 OFFCURVE",
"185 382 OFFCURVE",
"259 376 CURVE",
"96 326 OFFCURVE",
"19 208 OFFCURVE",
"19 115 CURVE SMOOTH",
"19 50 OFFCURVE",
"60 -1 OFFCURVE",
"137 -1 CURVE SMOOTH",
"224 -1 OFFCURVE",
"363 68 OFFCURVE",
"422 160 CURVE SMOOTH"
);
},
{
closed = 1;
nodes = (
"540 760 OFFCURVE",
"527 781 OFFCURVE",
"502 780 CURVE SMOOTH",
"478 778 OFFCURVE",
"452 755 OFFCURVE",
"445 727 CURVE SMOOTH",
"438 699 OFFCURVE",
"451 678 OFFCURVE",
"476 680 CURVE SMOOTH",
"500 681 OFFCURVE",
"526 705 OFFCURVE",
"533 732 CURVE SMOOTH"
);
},
{
closed = 1;
nodes = (
"386 760 OFFCURVE",
"372 781 OFFCURVE",
"348 780 CURVE SMOOTH",
"323 778 OFFCURVE",
"298 755 OFFCURVE",
"290 727 CURVE SMOOTH",
"283 699 OFFCURVE",
"297 678 OFFCURVE",
"321 680 CURVE SMOOTH",
"346 681 OFFCURVE",
"371 705 OFFCURVE",
"379 732 CURVE SMOOTH"
);
}
);
width = 443;
}
);
note = Edieresis;
unicode = 00CB;
},
{
color = 3;
glyphname = Edotaccent;
lastChange = "2021-05-07 03:34:56 +0000";
layers = (
{
hints = (
{
horizontal = 1;
place = "{-2, 41}";
type = Stem;
},
{
horizontal = 1;
place = "{537, 68}";
type = Stem;
},
{
place = "{18, 110}";
type = Stem;
},
{
place = "{132, 112}";
type = Stem;
},
{
place = "{389, 27}";
type = Stem;
},
{
place = "{414, 38}";
type = Stem;
}
);
layerId = "C623C401-2266-4A98-B253-3D45160C29C7";
paths = (
{
closed = 1;
nodes = (
"489 264 OFFCURVE",
"429 251 OFFCURVE",
"414 254 CURVE",
"369 172 OFFCURVE",
"252 40 OFFCURVE",
"177 40 CURVE SMOOTH",
"69 40 OFFCURVE",
"153 242 OFFCURVE",
"330 307 CURVE SMOOTH",
"366 321 OFFCURVE",
"327 381 OFFCURVE",
"293 383 CURVE",
"196 418 OFFCURVE",
"269 498 OFFCURVE",
"307 517 CURVE SMOOTH",
"344 536 OFFCURVE",
"377 539 OFFCURVE",
"406 536 CURVE",
"384 468 OFFCURVE",
"378 362 OFFCURVE",
"417 375 CURVE",
"422 431 OFFCURVE",
"453 485 OFFCURVE",
"483 525 CURVE SMOOTH",
"498 544 OFFCURVE",
"517 564 OFFCURVE",
"545 586 CURVE SMOOTH",
"588 620 OFFCURVE",
"478 668 OFFCURVE",
"422 574 CURVE",
"404 590 OFFCURVE",
"374 606 OFFCURVE",
"329 606 CURVE SMOOTH",
"256 605 OFFCURVE",
"173 578 OFFCURVE",
"145 525 CURVE SMOOTH",
"100 442 OFFCURVE",
"185 382 OFFCURVE",
"259 376 CURVE",
"96 326 OFFCURVE",
"19 208 OFFCURVE",
"19 115 CURVE SMOOTH",
"19 50 OFFCURVE",
"60 -1 OFFCURVE",
"137 -1 CURVE SMOOTH",
"224 -1 OFFCURVE",
"363 68 OFFCURVE",
"422 160 CURVE SMOOTH"
);
},
{
closed = 1;
nodes = (
"481 771 OFFCURVE",
"466 793 OFFCURVE",
"440 793 CURVE SMOOTH",
"414 791 OFFCURVE",
"386 765 OFFCURVE",
"378 736 CURVE SMOOTH",
"371 706 OFFCURVE",
"386 683 OFFCURVE",
"412 685 CURVE SMOOTH",
"438 686 OFFCURVE",
"465 712 OFFCURVE",
"473 741 CURVE SMOOTH"
);
}
);
width = 443;
}
);
note = Edotaccent;
unicode = 0116;
},
{
color = 3;
glyphname = Egrave;
lastChange = "2021-05-07 03:34:56 +0000";
layers = (
{
hints = (
{
horizontal = 1;
place = "{-2, 41}";
type = Stem;
},
{
horizontal = 1;
place = "{537, 68}";
type = Stem;
},
{
place = "{18, 110}";
type = Stem;
},
{
place = "{132, 112}";
type = Stem;
},
{
place = "{389, 27}";
type = Stem;
},
{
place = "{414, 38}";
type = Stem;
}
);
layerId = "C623C401-2266-4A98-B253-3D45160C29C7";
paths = (
{
closed = 1;
nodes = (
"489 264 OFFCURVE",
"429 251 OFFCURVE",
"414 254 CURVE",
"369 172 OFFCURVE",
"252 40 OFFCURVE",
"177 40 CURVE SMOOTH",
"69 40 OFFCURVE",
"153 242 OFFCURVE",
"330 307 CURVE SMOOTH",
"366 321 OFFCURVE",
"327 381 OFFCURVE",
"293 383 CURVE",
"196 418 OFFCURVE",
"269 498 OFFCURVE",
"307 517 CURVE SMOOTH",
"344 536 OFFCURVE",
"377 539 OFFCURVE",
"406 536 CURVE",
"384 468 OFFCURVE",
"378 362 OFFCURVE",
"417 375 CURVE",
"422 431 OFFCURVE",
"453 485 OFFCURVE",
"483 525 CURVE SMOOTH",
"498 544 OFFCURVE",
"517 564 OFFCURVE",
"545 586 CURVE SMOOTH",
"588 620 OFFCURVE",
"478 668 OFFCURVE",
"422 574 CURVE",
"404 590 OFFCURVE",
"374 606 OFFCURVE",
"329 606 CURVE SMOOTH",
"256 605 OFFCURVE",
"173 578 OFFCURVE",
"145 525 CURVE SMOOTH",
"100 442 OFFCURVE",
"185 382 OFFCURVE",
"259 376 CURVE",
"96 326 OFFCURVE",
"19 208 OFFCURVE",
"19 115 CURVE SMOOTH",
"19 50 OFFCURVE",
"60 -1 OFFCURVE",
"137 -1 CURVE SMOOTH",
"224 -1 OFFCURVE",
"363 68 OFFCURVE",
"422 160 CURVE SMOOTH"
);
},
{
closed = 1;
nodes = (
"493 729 OFFCURVE",
"419 761 OFFCURVE",
"394 774 CURVE SMOOTH",
"380 782 OFFCURVE",
"300 742 OFFCURVE",
"316 739 CURVE SMOOTH",
"352 731 OFFCURVE",
"458 703 OFFCURVE",
"479 697 CURVE SMOOTH",
"487 695 OFFCURVE",
"531 714 OFFCURVE",
"520 718 CURVE SMOOTH"
);
}
);
width = 443;
}
);
note = Egrave;
unicode = 00C8;
},
{
color = 3;
glyphname = Emacron;
lastChange = "2021-05-07 03:34:56 +0000";
layers = (
{
hints = (
{
horizontal = 1;
place = "{-2, 41}";
type = Stem;
},
{
horizontal = 1;
place = "{537, 68}";
type = Stem;
},
{
place = "{18, 110}";
type = Stem;
},
{
place = "{132, 112}";
type = Stem;
},
{
place = "{389, 27}";
type = Stem;
},
{
place = "{414, 38}";
type = Stem;
}
);
layerId = "C623C401-2266-4A98-B253-3D45160C29C7";
paths = (
{
closed = 1;
nodes = (
"489 264 OFFCURVE",
"429 251 OFFCURVE",
"414 254 CURVE",
"369 172 OFFCURVE",
"252 40 OFFCURVE",
"177 40 CURVE SMOOTH",
"69 40 OFFCURVE",
"153 242 OFFCURVE",
"330 307 CURVE SMOOTH",
"366 321 OFFCURVE",
"327 381 OFFCURVE",
"293 383 CURVE",
"196 418 OFFCURVE",
"269 498 OFFCURVE",
"307 517 CURVE SMOOTH",
"344 536 OFFCURVE",
"377 539 OFFCURVE",
"406 536 CURVE",
"384 468 OFFCURVE",
"378 362 OFFCURVE",
"417 375 CURVE",
"422 431 OFFCURVE",
"453 485 OFFCURVE",
"483 525 CURVE SMOOTH",
"498 544 OFFCURVE",
"517 564 OFFCURVE",
"545 586 CURVE SMOOTH",
"588 620 OFFCURVE",
"478 668 OFFCURVE",
"422 574 CURVE",
"404 590 OFFCURVE",
"374 606 OFFCURVE",
"329 606 CURVE SMOOTH",
"256 605 OFFCURVE",
"173 578 OFFCURVE",
"145 525 CURVE SMOOTH",
"100 442 OFFCURVE",
"185 382 OFFCURVE",
"259 376 CURVE",
"96 326 OFFCURVE",
"19 208 OFFCURVE",
"19 115 CURVE SMOOTH",
"19 50 OFFCURVE",
"60 -1 OFFCURVE",
"137 -1 CURVE SMOOTH",
"224 -1 OFFCURVE",
"363 68 OFFCURVE",
"422 160 CURVE SMOOTH"
);
},
{
closed = 1;
nodes = (
"342 740 LINE SMOOTH",
"331 740 OFFCURVE",
"295 698 OFFCURVE",
"310 698 CURVE SMOOTH",
"504 698 LINE SMOOTH",
"511 698 OFFCURVE",
"549 740 OFFCURVE",
"526 740 CURVE SMOOTH"
);
}
);
width = 443;
}
);
note = Emacron;
unicode = 0112;
},
{
color = 3;
glyphname = Eogonek;
lastChange = "2021-05-07 03:34:56 +0000";
layers = (
{
hints = (
{
horizontal = 1;
place = "{-2, 41}";
type = Stem;
},
{
horizontal = 1;
place = "{537, 68}";
type = Stem;
},
{
place = "{18, 110}";
type = Stem;
},
{
place = "{132, 112}";
type = Stem;
},
{
place = "{389, 27}";
type = Stem;
},
{
place = "{414, 38}";
type = Stem;
}
);
layerId = "C623C401-2266-4A98-B253-3D45160C29C7";
paths = (
{
closed = 1;
nodes = (
"158 -131 OFFCURVE",
"161 -110 OFFCURVE",
"137 -135 CURVE SMOOTH",
"109 -165 OFFCURVE",
"78 -190 OFFCURVE",
"57 -190 CURVE SMOOTH",
"41 -190 OFFCURVE",
"28 -176 OFFCURVE",
"28 -149 CURVE SMOOTH",
"28 -101 OFFCURVE",
"65 -26 OFFCURVE",
"131 -1 CURVE",
"137 -1 LINE SMOOTH",
"224 -1 OFFCURVE",
"363 68 OFFCURVE",
"422 160 CURVE SMOOTH",
"489 264 OFFCURVE",
"429 251 OFFCURVE",
"414 254 CURVE",
"369 172 OFFCURVE",
"252 40 OFFCURVE",
"177 40 CURVE SMOOTH",
"69 40 OFFCURVE",
"153 242 OFFCURVE",
"330 307 CURVE SMOOTH",
"366 321 OFFCURVE",
"327 381 OFFCURVE",
"293 383 CURVE",
"196 418 OFFCURVE",
"269 498 OFFCURVE",
"307 517 CURVE SMOOTH",
"344 536 OFFCURVE",
"377 539 OFFCURVE",
"406 536 CURVE",
"384 468 OFFCURVE",
"378 362 OFFCURVE",
"417 375 CURVE",
"422 431 OFFCURVE",
"453 485 OFFCURVE",
"483 525 CURVE SMOOTH",
"498 544 OFFCURVE",
"517 564 OFFCURVE",
"545 586 CURVE SMOOTH",
"588 620 OFFCURVE",
"478 668 OFFCURVE",
"422 574 CURVE",
"404 590 OFFCURVE",
"374 606 OFFCURVE",
"329 606 CURVE SMOOTH",
"256 605 OFFCURVE",
"173 578 OFFCURVE",
"145 525 CURVE SMOOTH",
"100 442 OFFCURVE",
"185 382 OFFCURVE",
"259 376 CURVE",
"96 326 OFFCURVE",
"19 208 OFFCURVE",
"19 115 CURVE SMOOTH",
"19 65 OFFCURVE",
"43 23 OFFCURVE",
"90 6 CURVE",
"8 -21 OFFCURVE",
"-46 -105 OFFCURVE",
"-46 -176 CURVE SMOOTH",
"-46 -213 OFFCURVE",
"-20 -233 OFFCURVE",
"12 -234 CURVE SMOOTH",
"39 -234 OFFCURVE",
"66 -222 OFFCURVE",
"95 -198 CURVE SMOOTH",
"114 -182 OFFCURVE",
"131 -163 OFFCURVE",
"148 -142 CURVE SMOOTH"
);
}
);
width = 443;
}
);
note = Eogonek;
unicode = 0118;
},
{
color = 3;
glyphname = F;
lastChange = "2021-05-07 03:34:56 +0000";
layers = (
{
hints = (
{
horizontal = 1;
place = "{-7, 21}";
target = up;
type = BottomGhost;
},
{
horizontal = 1;
place = "{232, 94}";
type = Stem;
},
{
horizontal = 1;
place = "{372, 127}";
type = Stem;
},
{
place = "{33, 70}";
type = Stem;
},
{
place = "{162, 91}";
type = Stem;
},
{
place = "{358, 156}";
type = Stem;
}
);
layerId = "C623C401-2266-4A98-B253-3D45160C29C7";
paths = (
{
closed = 1;
nodes = (
"372 299 OFFCURVE",
"365 300 OFFCURVE",
"357 301 CURVE",
"396 367 OFFCURVE",
"444 438 OFFCURVE",
"499 510 CURVE SMOOTH",
"516 532 OFFCURVE",
"517 551 OFFCURVE",
"511 568 CURVE SMOOTH",
"505 588 OFFCURVE",
"486 622 OFFCURVE",
"463 627 CURVE SMOOTH",
"383 642 OFFCURVE",
"158 469 OFFCURVE",
"109 504 CURVE",
"106 507 OFFCURVE",
"97 503 OFFCURVE",
"108 523 CURVE SMOOTH",
"113 532 OFFCURVE",
"85 531 OFFCURVE",
"80 523 CURVE SMOOTH",
"40 464 OFFCURVE",
"15 391 OFFCURVE",
"50 378 CURVE SMOOTH",
"153 338 OFFCURVE",
"283 530 OFFCURVE",
"346 553 CURVE SMOOTH",
"385 567 OFFCURVE",
"325 473 OFFCURVE",
"316 460 CURVE SMOOTH",
"288 416 OFFCURVE",
"263 367 OFFCURVE",
"241 319 CURVE",
"234 320 OFFCURVE",
"229 322 OFFCURVE",
"224 323 CURVE SMOOTH",
"170 336 OFFCURVE",
"145 322 OFFCURVE",
"119 248 CURVE SMOOTH",
"116 239 OFFCURVE",
"165 236 OFFCURVE",
"206 234 CURVE",
"182 173 OFFCURVE",
"167 120 OFFCURVE",
"163 90 CURVE SMOOTH",
"153 22 OFFCURVE",
"183 -7 OFFCURVE",
"257 -7 CURVE SMOOTH",
"267 -7 OFFCURVE",
"269 -5 OFFCURVE",
"265 0 CURVE SMOOTH",
"258 8 OFFCURVE",
"254 20 OFFCURVE",
"254 35 CURVE SMOOTH",
"253 80 OFFCURVE",
"278 152 OFFCURVE",
"322 236 CURVE",
"368 246 OFFCURVE",
"400 269 OFFCURVE",
"419 308 CURVE",
"417 306 OFFCURVE",
"409 301 OFFCURVE",
"375 300 CURVE"
);
},
{
closed = 1;
nodes = (
"420 309 OFFCURVE",
"420 308 OFFCURVE",
"419 308 CURVE",
"419 308 OFFCURVE",
"420 308 OFFCURVE",
"420 309 CURVE"
);
}
);
width = 387;
}
);
note = F;
unicode = 0046;
},
{
color = 3;
glyphname = G;
lastChange = "2021-05-07 03:34:56 +0000";
layers = (
{
hints = (
{
horizontal = 1;
place = "{-129, 35}";
type = Stem;
},
{
horizontal = 1;
place = "{0, 41}";
type = Stem;
},
{
horizontal = 1;
place = "{563, 42}";
type = Stem;
},
{
place = "{60, 112}";
type = Stem;
},
{
place = "{398, 19}";
type = Stem;
},
{
place = "{471, 62}";
type = Stem;
}
);
layerId = "C623C401-2266-4A98-B253-3D45160C29C7";
paths = (
{
closed = 1;
nodes = (
"436 323 LINE SMOOTH",
"405 323 OFFCURVE",
"393 299 OFFCURVE",
"379 263 CURVE SMOOTH",
"347 189 LINE SMOOTH",
"312 111 OFFCURVE",
"266 42 OFFCURVE",
"219 42 CURVE SMOOTH",
"141 42 OFFCURVE",
"176 183 OFFCURVE",
"220 284 CURVE SMOOTH",
"235 320 OFFCURVE",
"283 416 OFFCURVE",
"330 480 CURVE SMOOTH",
"410 588 OFFCURVE",
"471 579 OFFCURVE",
"471 526 CURVE SMOOTH",
"471 483 OFFCURVE",
"426 405 OFFCURVE",
"402 373 CURVE SMOOTH",
"394 362 OFFCURVE",
"397 357 OFFCURVE",
"411 359 CURVE SMOOTH",
"460 365 OFFCURVE",
"533 440 OFFCURVE",
"533 497 CURVE SMOOTH",
"533 552 OFFCURVE",
"490 605 OFFCURVE",
"392 605 CURVE SMOOTH",
"348 605 OFFCURVE",
"299 586 OFFCURVE",
"258 552 CURVE SMOOTH",
"219 518 OFFCURVE",
"155 436 OFFCURVE",
"110 332 CURVE SMOOTH",
"46 181 OFFCURVE",
"23 0 OFFCURVE",
"181 0 CURVE SMOOTH",
"236 0 OFFCURVE",
"281 42 OFFCURVE",
"318 95 CURVE",
"307 62 OFFCURVE",
"297 36 OFFCURVE",
"292 24 CURVE SMOOTH",
"261 -48 OFFCURVE",
"247 -119 OFFCURVE",
"163 -83 CURVE SMOOTH",
"144 -75 OFFCURVE",
"134 -93 OFFCURVE",
"149 -105 CURVE SMOOTH",
"174 -126 OFFCURVE",
"203 -130 OFFCURVE",
"229 -129 CURVE SMOOTH",
"275 -126 OFFCURVE",
"318 -96 OFFCURVE",
"356 -45 CURVE SMOOTH",
"378 -15 OFFCURVE",
"421 55 OFFCURVE",
"448 129 CURVE SMOOTH",
"491 243 OFFCURVE",
"531 301 OFFCURVE",
"544 307 CURVE SMOOTH",
"556 314 OFFCURVE",
"555 323 OFFCURVE",
"545 323 CURVE SMOOTH"
);
}
);
width = 502;
}
);
note = G;
unicode = 0047;
},
{
color = 3;
glyphname = Gcommaaccent;
lastChange = "2021-05-07 03:34:56 +0000";
layers = (
{
hints = (
{
horizontal = 1;
place = "{-6, 46}";
type = Stem;
},
{
horizontal = 1;
place = "{565, 35}";
type = Stem;
},
{
place = "{44, 139}";
type = Stem;
},
{
place = "{326, 90}";
type = Stem;
},
{
place = "{456, 27}";
type = Stem;
}
);
layerId = "C623C401-2266-4A98-B253-3D45160C29C7";
paths = (
{
closed = 1;
nodes = (
"187 -106 OFFCURVE",
"189 -56 OFFCURVE",
"146 -61 CURVE SMOOTH",
"118 -64 OFFCURVE",
"88 -90 OFFCURVE",
"80 -121 CURVE SMOOTH",
"72 -151 OFFCURVE",
"84 -174 OFFCURVE",
"108 -176 CURVE",
"93 -207 OFFCURVE",
"72 -235 OFFCURVE",
"39 -250 CURVE SMOOTH",
"28 -255 OFFCURVE",
"47 -267 OFFCURVE",
"57 -263 CURVE SMOOTH",
"118 -239 OFFCURVE",
"156 -198 OFFCURVE",
"179 -130 CURVE SMOOTH"
);
},
{
closed = 1;
nodes = (
"656 621 OFFCURVE",
"538 671 OFFCURVE",
"484 565 CURVE",
"480 569 OFFCURVE",
"475 574 OFFCURVE",
"468 579 CURVE SMOOTH",
"416 615 OFFCURVE",
"331 605 OFFCURVE",
"263 547 CURVE SMOOTH",
"175 472 OFFCURVE",
"86 297 OFFCURVE",
"57 194 CURVE SMOOTH",
"17 53 OFFCURVE",
"64 -40 OFFCURVE",
"238 5 CURVE SMOOTH",
"275 14 OFFCURVE",
"312 33 OFFCURVE",
"346 59 CURVE",
"333 8 OFFCURVE",
"326 -38 OFFCURVE",
"326 -66 CURVE SMOOTH",
"325 -123 OFFCURVE",
"362 -148 OFFCURVE",
"422 -151 CURVE SMOOTH",
"430 -152 OFFCURVE",
"431 -150 OFFCURVE",
"428 -146 CURVE SMOOTH",
"422 -139 OFFCURVE",
"417 -128 OFFCURVE",
"416 -116 CURVE SMOOTH",
"411 -76 OFFCURVE",
"445 34 OFFCURVE",
"485 126 CURVE SMOOTH",
"502 167 OFFCURVE",
"523 206 OFFCURVE",
"541 237 CURVE SMOOTH",
"557 265 OFFCURVE",
"571 285 OFFCURVE",
"577 290 CURVE SMOOTH",
"587 297 OFFCURVE",
"592 306 OFFCURVE",
"574 311 CURVE SMOOTH",
"497 331 OFFCURVE",
"456 325 OFFCURVE",
"426 270 CURVE SMOOTH",
"407 237 OFFCURVE",
"391 200 OFFCURVE",
"377 161 CURVE",
"334 99 OFFCURVE",
"278 40 OFFCURVE",
"227 40 CURVE SMOOTH",
"144 40 OFFCURVE",
"196 190 OFFCURVE",
"238 295 CURVE SMOOTH",
"268 368 OFFCURVE",
"398 618 OFFCURVE",
"466 555 CURVE SMOOTH",
"470 552 OFFCURVE",
"473 549 OFFCURVE",
"477 548 CURVE",
"452 482 OFFCURVE",
"443 361 OFFCURVE",
"483 375 CURVE",
"488 431 OFFCURVE",
"520 485 OFFCURVE",
"549 525 CURVE SMOOTH",
"564 544 OFFCURVE",
"584 564 OFFCURVE",
"611 586 CURVE SMOOTH"
);
}
);
width = 541;
}
);
note = uni0122;
unicode = 0122;
},
{
color = 3;
glyphname = H;
lastChange = "2021-05-07 03:34:56 +0000";
layers = (
{
hints = (
{
horizontal = 1;
place = "{262, 76}";
type = Stem;
},
{
horizontal = 1;
place = "{597, -20}";
target = down;
type = TopGhost;
},
{
place = "{60, 94}";
type = Stem;
},
{
place = "{311, 93}";
type = Stem;
}
);
layerId = "C623C401-2266-4A98-B253-3D45160C29C7";
paths = (
{
closed = 1;
nodes = (
"328 18 OFFCURVE",
"338 8 OFFCURVE",
"353 3 CURVE SMOOTH",
"357 1 OFFCURVE",
"358 1 OFFCURVE",
"359 2 CURVE",
"373 -2 OFFCURVE",
"391 -4 OFFCURVE",
"401 -9 CURVE SMOOTH",
"411 -14 OFFCURVE",
"415 -7 OFFCURVE",
"410 0 CURVE SMOOTH",
"365 54 OFFCURVE",
"607 521 OFFCURVE",
"679 573 CURVE SMOOTH",
"700 588 OFFCURVE",
"656 598 OFFCURVE",
"610 597 CURVE SMOOTH",
"545 595 OFFCURVE",
"516 568 OFFCURVE",
"479 507 CURVE SMOOTH",
"460 476 OFFCURVE",
"399 369 OFFCURVE",
"356 261 CURVE",
"247 263 LINE",
"315 402 OFFCURVE",
"401 545 OFFCURVE",
"440 573 CURVE SMOOTH",
"461 588 OFFCURVE",
"417 599 OFFCURVE",
"369 598 CURVE SMOOTH",
"302 596 OFFCURVE",
"271 567 OFFCURVE",
"233 505 CURVE SMOOTH",
"214 474 OFFCURVE",
"157 372 OFFCURVE",
"114 267 CURVE",
"95 267 LINE",
"86 269 OFFCURVE",
"77 269 OFFCURVE",
"68 268 CURVE SMOOTH",
"24 264 OFFCURVE",
"-5 210 OFFCURVE",
"43 200 CURVE SMOOTH",
"58 197 OFFCURVE",
"71 194 OFFCURVE",
"85 189 CURVE",
"54 93 OFFCURVE",
"46 8 OFFCURVE",
"103 -12 CURVE SMOOTH",
"117 -16 OFFCURVE",
"139 -19 OFFCURVE",
"151 -24 CURVE SMOOTH",
"161 -29 OFFCURVE",
"165 -22 OFFCURVE",
"160 -15 CURVE SMOOTH",
"145 2 OFFCURVE",
"161 64 OFFCURVE",
"192 141 CURVE",
"236 110 OFFCURVE",
"287 61 OFFCURVE",
"321 30 CURVE"
);
},
{
closed = 1;
nodes = (
"233 235 LINE",
"270 233 OFFCURVE",
"308 232 OFFCURVE",
"345 232 CURVE",
"324 174 OFFCURVE",
"309 117 OFFCURVE",
"311 75 CURVE",
"291 106 OFFCURVE",
"256 154 OFFCURVE",
"215 195 CURVE"
);
}
);
width = 499;
}
);
note = H;
unicode = 0048;
},
{
color = 3;
glyphname = I;
lastChange = "2021-05-07 03:34:56 +0000";
layers = (
{
hints = (
{
horizontal = 1;
place = "{-18, 43}";
type = Stem;
},
{
place = "{116, 37}";
type = Stem;
}
);
layerId = "C623C401-2266-4A98-B253-3D45160C29C7";
paths = (
{
closed = 1;
nodes = (
"464 589 OFFCURVE",
"448 604 OFFCURVE",
"417 604 CURVE SMOOTH",
"318 604 OFFCURVE",
"189 504 OFFCURVE",
"146 421 CURVE SMOOTH",
"93 319 OFFCURVE",
"146 335 OFFCURVE",
"159 334 CURVE",
"191 406 OFFCURVE",
"255 519 OFFCURVE",
"322 544 CURVE",
"318 524 LINE SMOOTH",
"293 386 OFFCURVE",
"198 138 OFFCURVE",
"131 52 CURVE SMOOTH",
"125 44 OFFCURVE",
"101 15 OFFCURVE",
"76 12 CURVE SMOOTH",
"45 9 OFFCURVE",
"34 23 OFFCURVE",
"23 30 CURVE SMOOTH",
"13 36 OFFCURVE",
"-4 25 OFFCURVE",
"14 1 CURVE SMOOTH",
"30 -19 OFFCURVE",
"57 -31 OFFCURVE",
"91 -31 CURVE SMOOTH",
"138 -31 OFFCURVE",
"180 -16 OFFCURVE",
"204 -1 CURVE SMOOTH",
"260 37 OFFCURVE",
"315 141 OFFCURVE",
"357 238 CURVE SMOOTH",
"392 320 OFFCURVE",
"453 507 OFFCURVE",
"460 556 CURVE SMOOTH"
);
}
);
width = 364;
}
);
note = I;
unicode = 0049;
},
{
color = 3;
glyphname = Iacute;
lastChange = "2021-05-07 03:34:56 +0000";
layers = (
{
hints = (
{
horizontal = 1;
place = "{-18, 43}";
type = Stem;
},
{
place = "{116, 37}";
type = Stem;
}
);
layerId = "C623C401-2266-4A98-B253-3D45160C29C7";
paths = (
{
closed = 1;
nodes = (
"464 589 OFFCURVE",
"448 604 OFFCURVE",
"417 604 CURVE SMOOTH",
"318 604 OFFCURVE",
"189 504 OFFCURVE",
"146 421 CURVE SMOOTH",
"93 319 OFFCURVE",
"146 335 OFFCURVE",
"159 334 CURVE",
"191 406 OFFCURVE",
"255 519 OFFCURVE",
"322 544 CURVE",
"318 524 LINE SMOOTH",
"293 386 OFFCURVE",
"198 138 OFFCURVE",
"131 52 CURVE SMOOTH",
"125 44 OFFCURVE",
"101 15 OFFCURVE",
"76 12 CURVE SMOOTH",
"45 9 OFFCURVE",
"34 23 OFFCURVE",
"23 30 CURVE SMOOTH",
"13 36 OFFCURVE",
"-4 25 OFFCURVE",
"14 1 CURVE SMOOTH",
"30 -19 OFFCURVE",
"57 -31 OFFCURVE",
"91 -31 CURVE SMOOTH",
"138 -31 OFFCURVE",
"180 -16 OFFCURVE",
"204 -1 CURVE SMOOTH",
"260 37 OFFCURVE",
"315 141 OFFCURVE",
"357 238 CURVE SMOOTH",
"392 320 OFFCURVE",
"453 507 OFFCURVE",
"460 556 CURVE SMOOTH"
);
},
{
closed = 1;
nodes = (
"333 693 OFFCURVE",
"377 674 OFFCURVE",
"385 676 CURVE SMOOTH",
"406 682 OFFCURVE",
"512 710 OFFCURVE",
"548 718 CURVE SMOOTH",
"564 721 OFFCURVE",
"484 761 OFFCURVE",
"470 753 CURVE SMOOTH",
"445 740 OFFCURVE",
"371 708 OFFCURVE",
"344 697 CURVE SMOOTH"
);
}
);
width = 364;
}
);
note = Iacute;
unicode = 00CD;
},
{
color = 3;
glyphname = Icircumflex;
lastChange = "2021-05-07 03:34:56 +0000";
layers = (
{
hints = (
{
horizontal = 1;
place = "{-18, 43}";
type = Stem;
},
{
place = "{116, 37}";
type = Stem;
}
);
layerId = "C623C401-2266-4A98-B253-3D45160C29C7";
paths = (
{
closed = 1;
nodes = (
"464 589 OFFCURVE",
"448 604 OFFCURVE",
"417 604 CURVE SMOOTH",
"318 604 OFFCURVE",
"189 504 OFFCURVE",
"146 421 CURVE SMOOTH",
"93 319 OFFCURVE",
"146 335 OFFCURVE",
"159 334 CURVE",
"191 406 OFFCURVE",
"255 519 OFFCURVE",
"322 544 CURVE",
"318 524 LINE SMOOTH",
"293 386 OFFCURVE",
"198 138 OFFCURVE",
"131 52 CURVE SMOOTH",
"125 44 OFFCURVE",
"101 15 OFFCURVE",
"76 12 CURVE SMOOTH",
"45 9 OFFCURVE",
"34 23 OFFCURVE",
"23 30 CURVE SMOOTH",
"13 36 OFFCURVE",
"-4 25 OFFCURVE",
"14 1 CURVE SMOOTH",
"30 -19 OFFCURVE",
"57 -31 OFFCURVE",
"91 -31 CURVE SMOOTH",
"138 -31 OFFCURVE",
"180 -16 OFFCURVE",
"204 -1 CURVE SMOOTH",
"260 37 OFFCURVE",
"315 141 OFFCURVE",
"357 238 CURVE SMOOTH",
"392 320 OFFCURVE",
"453 507 OFFCURVE",
"460 556 CURVE SMOOTH"
);
},
{
closed = 1;
nodes = (
"327 691 LINE SMOOTH",
"321 687 OFFCURVE",
"383 686 OFFCURVE",
"387 690 CURVE SMOOTH",
"450 761 LINE",
"479 687 LINE SMOOTH",
"480 683 OFFCURVE",
"541 685 OFFCURVE",
"537 691 CURVE SMOOTH",
"483 789 LINE",
"476 795 OFFCURVE",
"453 792 OFFCURVE",
"446 788 CURVE"
);
}
);
width = 364;
}
);
note = Icircumflex;
unicode = 00CE;
},
{
color = 3;
glyphname = Idieresis;
lastChange = "2021-05-07 03:34:56 +0000";
layers = (
{
hints = (
{
horizontal = 1;
place = "{-18, 43}";
type = Stem;
},
{
place = "{116, 37}";
type = Stem;
}
);
layerId = "C623C401-2266-4A98-B253-3D45160C29C7";
paths = (
{
closed = 1;
nodes = (
"464 589 OFFCURVE",
"448 604 OFFCURVE",
"417 604 CURVE SMOOTH",
"318 604 OFFCURVE",
"189 504 OFFCURVE",
"146 421 CURVE SMOOTH",
"93 319 OFFCURVE",
"146 335 OFFCURVE",
"159 334 CURVE",
"191 406 OFFCURVE",
"255 519 OFFCURVE",
"322 544 CURVE",
"318 524 LINE SMOOTH",
"293 386 OFFCURVE",
"198 138 OFFCURVE",
"131 52 CURVE SMOOTH",
"125 44 OFFCURVE",
"101 15 OFFCURVE",
"76 12 CURVE SMOOTH",
"45 9 OFFCURVE",
"34 23 OFFCURVE",
"23 30 CURVE SMOOTH",
"13 36 OFFCURVE",
"-4 25 OFFCURVE",
"14 1 CURVE SMOOTH",
"30 -19 OFFCURVE",
"57 -31 OFFCURVE",
"91 -31 CURVE SMOOTH",
"138 -31 OFFCURVE",
"180 -16 OFFCURVE",
"204 -1 CURVE SMOOTH",
"260 37 OFFCURVE",
"315 141 OFFCURVE",
"357 238 CURVE SMOOTH",
"392 320 OFFCURVE",
"453 507 OFFCURVE",
"460 556 CURVE SMOOTH"
);
},
{
closed = 1;
nodes = (
"404 762 OFFCURVE",
"390 783 OFFCURVE",
"366 782 CURVE SMOOTH",
"341 780 OFFCURVE",
"316 757 OFFCURVE",
"308 729 CURVE SMOOTH",
"301 701 OFFCURVE",
"315 680 OFFCURVE",
"339 682 CURVE SMOOTH",
"364 683 OFFCURVE",
"389 707 OFFCURVE",
"397 734 CURVE SMOOTH"
);
},
{
closed = 1;
nodes = (
"558 762 OFFCURVE",
"545 783 OFFCURVE",
"520 782 CURVE SMOOTH",
"496 780 OFFCURVE",
"470 757 OFFCURVE",
"463 729 CURVE SMOOTH",
"456 701 OFFCURVE",
"469 680 OFFCURVE",
"494 682 CURVE SMOOTH",
"518 683 OFFCURVE",
"544 707 OFFCURVE",
"551 734 CURVE SMOOTH"
);
}
);
width = 364;
}
);
note = Idieresis;
unicode = 00CF;
},
{
color = 3;
glyphname = Igrave;
lastChange = "2021-05-07 03:34:56 +0000";
layers = (
{
hints = (
{
horizontal = 1;
place = "{-18, 43}";
type = Stem;
},
{
place = "{116, 37}";
type = Stem;
}
);
layerId = "C623C401-2266-4A98-B253-3D45160C29C7";
paths = (
{
closed = 1;
nodes = (
"464 589 OFFCURVE",
"448 604 OFFCURVE",
"417 604 CURVE SMOOTH",
"318 604 OFFCURVE",
"189 504 OFFCURVE",
"146 421 CURVE SMOOTH",
"93 319 OFFCURVE",
"146 335 OFFCURVE",
"159 334 CURVE",
"191 406 OFFCURVE",
"255 519 OFFCURVE",
"322 544 CURVE",
"318 524 LINE SMOOTH",
"293 386 OFFCURVE",
"198 138 OFFCURVE",
"131 52 CURVE SMOOTH",
"125 44 OFFCURVE",
"101 15 OFFCURVE",
"76 12 CURVE SMOOTH",
"45 9 OFFCURVE",
"34 23 OFFCURVE",
"23 30 CURVE SMOOTH",
"13 36 OFFCURVE",
"-4 25 OFFCURVE",
"14 1 CURVE SMOOTH",
"30 -19 OFFCURVE",
"57 -31 OFFCURVE",
"91 -31 CURVE SMOOTH",
"138 -31 OFFCURVE",
"180 -16 OFFCURVE",
"204 -1 CURVE SMOOTH",
"260 37 OFFCURVE",
"315 141 OFFCURVE",
"357 238 CURVE SMOOTH",
"392 320 OFFCURVE",
"453 507 OFFCURVE",
"460 556 CURVE SMOOTH"
);
},
{
closed = 1;
nodes = (
"483 728 OFFCURVE",
"409 760 OFFCURVE",
"384 773 CURVE SMOOTH",
"370 781 OFFCURVE",
"290 741 OFFCURVE",
"306 738 CURVE SMOOTH",
"342 730 OFFCURVE",
"448 702 OFFCURVE",
"469 696 CURVE SMOOTH",
"477 694 OFFCURVE",
"521 713 OFFCURVE",
"510 717 CURVE SMOOTH"
);
}
);
width = 364;
}
);
note = Igrave;
unicode = 00CC;
},
{
color = 3;
glyphname = Imacron;
lastChange = "2021-05-07 03:34:56 +0000";
layers = (
{
hints = (
{
horizontal = 1;
place = "{-18, 43}";
type = Stem;
},
{
place = "{116, 37}";
type = Stem;
}
);
layerId = "C623C401-2266-4A98-B253-3D45160C29C7";
paths = (
{
closed = 1;
nodes = (
"464 589 OFFCURVE",
"448 604 OFFCURVE",
"417 604 CURVE SMOOTH",
"318 604 OFFCURVE",
"189 504 OFFCURVE",
"146 421 CURVE SMOOTH",
"93 319 OFFCURVE",
"146 335 OFFCURVE",
"159 334 CURVE",
"191 406 OFFCURVE",
"255 519 OFFCURVE",
"322 544 CURVE",
"318 524 LINE SMOOTH",
"293 386 OFFCURVE",
"198 138 OFFCURVE",
"131 52 CURVE SMOOTH",
"125 44 OFFCURVE",
"101 15 OFFCURVE",
"76 12 CURVE SMOOTH",
"45 9 OFFCURVE",
"34 23 OFFCURVE",
"23 30 CURVE SMOOTH",
"13 36 OFFCURVE",
"-4 25 OFFCURVE",
"14 1 CURVE SMOOTH",
"30 -19 OFFCURVE",
"57 -31 OFFCURVE",
"91 -31 CURVE SMOOTH",
"138 -31 OFFCURVE",
"180 -16 OFFCURVE",
"204 -1 CURVE SMOOTH",
"260 37 OFFCURVE",
"315 141 OFFCURVE",
"357 238 CURVE SMOOTH",
"392 320 OFFCURVE",
"453 507 OFFCURVE",
"460 556 CURVE SMOOTH"
);
},
{
closed = 1;
nodes = (
"360 731 LINE SMOOTH",
"349 731 OFFCURVE",
"313 689 OFFCURVE",
"328 689 CURVE SMOOTH",
"522 689 LINE SMOOTH",
"529 689 OFFCURVE",
"567 731 OFFCURVE",
"544 731 CURVE SMOOTH"
);
}
);
width = 364;
}
);
note = Imacron;
unicode = 012A;
},
{
color = 3;
glyphname = Iogonek;
lastChange = "2021-05-07 03:34:56 +0000";
layers = (
{
hints = (
{
horizontal = 1;
place = "{-18, 43}";
type = Stem;
},
{
place = "{116, 37}";
type = Stem;
}
);
layerId = "C623C401-2266-4A98-B253-3D45160C29C7";
paths = (
{
closed = 1;
nodes = (
"147 -156 OFFCURVE",
"150 -135 OFFCURVE",
"126 -160 CURVE SMOOTH",
"98 -190 OFFCURVE",
"67 -215 OFFCURVE",
"46 -215 CURVE SMOOTH",
"30 -215 OFFCURVE",
"17 -201 OFFCURVE",
"17 -174 CURVE SMOOTH",
"17 -128 OFFCURVE",
"50 -59 OFFCURVE",
"110 -30 CURVE",
"149 -27 OFFCURVE",
"183 -14 OFFCURVE",
"204 -1 CURVE SMOOTH",
"260 37 OFFCURVE",
"315 141 OFFCURVE",
"357 238 CURVE SMOOTH",
"392 320 OFFCURVE",
"453 507 OFFCURVE",
"460 556 CURVE SMOOTH",
"464 589 OFFCURVE",
"448 604 OFFCURVE",
"417 604 CURVE SMOOTH",
"318 604 OFFCURVE",
"189 504 OFFCURVE",
"146 421 CURVE SMOOTH",
"93 319 OFFCURVE",
"146 335 OFFCURVE",
"159 334 CURVE",
"191 406 OFFCURVE",
"255 519 OFFCURVE",
"322 544 CURVE",
"318 524 LINE SMOOTH",
"293 386 OFFCURVE",
"198 138 OFFCURVE",
"131 52 CURVE SMOOTH",
"125 44 OFFCURVE",
"101 15 OFFCURVE",
"76 12 CURVE SMOOTH",
"45 9 OFFCURVE",
"34 23 OFFCURVE",
"23 30 CURVE SMOOTH",
"13 36 OFFCURVE",
"-4 25 OFFCURVE",
"14 1 CURVE SMOOTH",
"24 -12 OFFCURVE",
"39 -22 OFFCURVE",
"58 -27 CURVE",
"-12 -61 OFFCURVE",
"-57 -136 OFFCURVE",
"-57 -201 CURVE SMOOTH",
"-57 -238 OFFCURVE",
"-31 -258 OFFCURVE",
"1 -259 CURVE SMOOTH",
"28 -259 OFFCURVE",
"55 -247 OFFCURVE",
"84 -223 CURVE SMOOTH",
"103 -207 OFFCURVE",
"120 -188 OFFCURVE",
"137 -167 CURVE SMOOTH"
);
}
);
width = 364;
}
);
note = Iogonek;
unicode = 012E;
},
{
color = 3;
glyphname = J;
lastChange = "2021-05-07 03:34:56 +0000";
layers = (
{
hints = (
{
horizontal = 1;
place = "{-88, 50}";
type = Stem;
},
{
horizontal = 1;
place = "{540, 81}";
type = Stem;
},
{
place = "{470, 8}";
type = Stem;
}
);
layerId = "C623C401-2266-4A98-B253-3D45160C29C7";
paths = (
{
closed = 1;
nodes = (
"520 525 OFFCURVE",
"550 522 OFFCURVE",
"554 514 CURVE SMOOTH",
"556 511 OFFCURVE",
"560 511 OFFCURVE",
"560 517 CURVE SMOOTH",
"559 524 OFFCURVE",
"561 534 OFFCURVE",
"561 542 CURVE SMOOTH",
"561 614 OFFCURVE",
"278 587 OFFCURVE",
"240 578 CURVE SMOOTH",
"206 571 OFFCURVE",
"200 565 OFFCURVE",
"189 532 CURVE SMOOTH",
"181 508 OFFCURVE",
"184 489 OFFCURVE",
"190 491 CURVE SMOOTH",
"200 494 OFFCURVE",
"221 499 OFFCURVE",
"248 504 CURVE SMOOTH",
"275 509 OFFCURVE",
"307 514 OFFCURVE",
"340 517 CURVE SMOOTH",
"347 518 LINE",
"322 398 OFFCURVE",
"251 197 OFFCURVE",
"191 86 CURVE SMOOTH",
"115 -54 OFFCURVE",
"53 -7 OFFCURVE",
"79 82 CURVE SMOOTH",
"110 191 OFFCURVE",
"172 271 OFFCURVE",
"228 297 CURVE SMOOTH",
"250 307 OFFCURVE",
"222 325 OFFCURVE",
"182 314 CURVE SMOOTH",
"80 287 OFFCURVE",
"5 167 OFFCURVE",
"0 74 CURVE SMOOTH",
"-4 10 OFFCURVE",
"24 -37 OFFCURVE",
"94 -37 CURVE SMOOTH",
"255 -39 OFFCURVE",
"329 101 OFFCURVE",
"381 225 CURVE SMOOTH",
"413 301 OFFCURVE",
"461 445 OFFCURVE",
"482 525 CURVE"
);
}
);
width = 401;
}
);
note = J;
unicode = 004A;
},
{
color = 3;
glyphname = K;
lastChange = "2021-05-07 03:34:56 +0000";
layers = (
{
hints = (
{
horizontal = 1;
place = "{-15, 21}";
target = up;
type = BottomGhost;
},
{
horizontal = 1;
place = "{274, 28}";
type = Stem;
},
{
horizontal = 1;
place = "{597, -20}";
target = down;
type = TopGhost;
},
{
place = "{-2, 94}";
type = Stem;
}
);
layerId = "C623C401-2266-4A98-B253-3D45160C29C7";
paths = (
{
closed = 1;
nodes = (
"497 601 OFFCURVE",
"481 623 OFFCURVE",
"463 627 CURVE SMOOTH",
"394 640 OFFCURVE",
"219 514 OFFCURVE",
"140 500 CURVE SMOOTH",
"121 497 OFFCURVE",
"95 498 OFFCURVE",
"108 523 CURVE SMOOTH",
"119 542 OFFCURVE",
"95 545 OFFCURVE",
"80 523 CURVE SMOOTH",
"40 464 OFFCURVE",
"15 391 OFFCURVE",
"50 378 CURVE SMOOTH",
"153 338 OFFCURVE",
"275 519 OFFCURVE",
"336 546 CURVE SMOOTH",
"370 561 OFFCURVE",
"318 477 OFFCURVE",
"311 464 CURVE SMOOTH",
"263 376 OFFCURVE",
"82 46 OFFCURVE",
"208 3 CURVE SMOOTH",
"222 -2 OFFCURVE",
"244 -4 OFFCURVE",
"256 -9 CURVE SMOOTH",
"266 -14 OFFCURVE",
"270 -7 OFFCURVE",
"265 0 CURVE SMOOTH",
"236 34 OFFCURVE",
"285 155 OFFCURVE",
"346 275 CURVE",
"352 275 LINE SMOOTH",
"361 274 OFFCURVE",
"373 275 OFFCURVE",
"388 278 CURVE",
"389 275 LINE",
"396 226 OFFCURVE",
"419 -15 OFFCURVE",
"527 -15 CURVE SMOOTH",
"580 -15 OFFCURVE",
"632 58 OFFCURVE",
"621 56 CURVE SMOOTH",
"569 46 OFFCURVE",
"478 288 OFFCURVE",
"475 306 CURVE",
"552 346 OFFCURVE",
"723 451 OFFCURVE",
"723 554 CURVE SMOOTH",
"723 602 OFFCURVE",
"677 607 OFFCURVE",
"651 588 CURVE SMOOTH",
"580 541 OFFCURVE",
"516 335 OFFCURVE",
"361 305 CURVE",
"411 400 OFFCURVE",
"466 491 OFFCURVE",
"492 529 CURVE SMOOTH",
"505 547 OFFCURVE",
"515 563 OFFCURVE",
"506 582 CURVE SMOOTH"
);
}
);
width = 621;
}
);
note = K;
unicode = 004B;
},
{
color = 3;
glyphname = L;
lastChange = "2021-05-07 03:34:56 +0000";
layers = (
{
hints = (
{
horizontal = 1;
place = "{-4, 103}";
type = Stem;
},
{
horizontal = 1;
place = "{17, 82}";
type = Stem;
},
{
horizontal = 1;
place = "{200, 23}";
type = Stem;
},
{
horizontal = 1;
place = "{546, 50}";
type = Stem;
},
{
place = "{398, 55}";
type = Stem;
}
);
layerId = "C623C401-2266-4A98-B253-3D45160C29C7";
paths = (
{
closed = 1;
nodes = (
"238 294 LINE SMOOTH",
"263 348 OFFCURVE",
"329 487 OFFCURVE",
"367 533 CURVE SMOOTH",
"400 572 OFFCURVE",
"413 521 OFFCURVE",
"377 451 CURVE SMOOTH",
"349 399 OFFCURVE",
"295 328 OFFCURVE",
"231 280 CURVE"
);
},
{
closed = 1;
nodes = (
"453 555 OFFCURVE",
"420 578 OFFCURVE",
"385 589 CURVE SMOOTH",
"368 594 OFFCURVE",
"351 597 OFFCURVE",
"336 597 CURVE SMOOTH",
"271 595 OFFCURVE",
"256 586 OFFCURVE",
"219 523 CURVE SMOOTH",
"197 486 OFFCURVE",
"119 349 OFFCURVE",
"76 225 CURVE",
"66 226 OFFCURVE",
"57 228 OFFCURVE",
"47 232 CURVE SMOOTH",
"29 239 OFFCURVE",
"12 216 OFFCURVE",
"30 210 CURVE SMOOTH",
"42 205 OFFCURVE",
"55 202 OFFCURVE",
"68 201 CURVE",
"38 110 OFFCURVE",
"31 30 OFFCURVE",
"83 9 CURVE SMOOTH",
"144 -17 OFFCURVE",
"168 5 OFFCURVE",
"232 12 CURVE SMOOTH",
"317 21 OFFCURVE",
"402 22 OFFCURVE",
"413 2 CURVE SMOOTH",
"415 -2 OFFCURVE",
"420 -2 OFFCURVE",
"419 5 CURVE SMOOTH",
"418 13 OFFCURVE",
"421 27 OFFCURVE",
"421 36 CURVE SMOOTH",
"421 110 OFFCURVE",
"237 98 OFFCURVE",
"151 87 CURVE",
"164 126 OFFCURVE",
"186 181 OFFCURVE",
"210 233 CURVE",
"335 294 OFFCURVE",
"453 427 OFFCURVE",
"453 523 CURVE SMOOTH"
);
}
);
width = 421;
}
);
note = L;
unicode = 004C;
},
{
color = 3;
glyphname = Lcaron;
lastChange = "2021-05-07 03:34:56 +0000";
layers = (
{
hints = (
{
horizontal = 1;
place = "{-4, 103}";
type = Stem;
},
{
horizontal = 1;
place = "{17, 82}";
type = Stem;
},
{
horizontal = 1;
place = "{200, 23}";
type = Stem;
},
{
horizontal = 1;
place = "{546, 50}";
type = Stem;
},
{
place = "{398, 55}";
type = Stem;
}
);
layerId = "C623C401-2266-4A98-B253-3D45160C29C7";
paths = (
{
closed = 1;
nodes = (
"453 555 OFFCURVE",
"420 578 OFFCURVE",
"385 589 CURVE SMOOTH",
"368 594 OFFCURVE",
"351 597 OFFCURVE",
"336 597 CURVE SMOOTH",
"271 595 OFFCURVE",
"256 586 OFFCURVE",
"219 523 CURVE SMOOTH",
"197 486 OFFCURVE",
"119 349 OFFCURVE",
"76 225 CURVE",
"66 226 OFFCURVE",
"57 228 OFFCURVE",
"47 232 CURVE SMOOTH",
"29 239 OFFCURVE",
"12 216 OFFCURVE",
"30 210 CURVE SMOOTH",
"42 205 OFFCURVE",
"55 202 OFFCURVE",
"68 201 CURVE",
"38 110 OFFCURVE",
"31 30 OFFCURVE",
"83 9 CURVE SMOOTH",
"144 -17 OFFCURVE",
"168 5 OFFCURVE",
"232 12 CURVE SMOOTH",
"317 21 OFFCURVE",
"402 22 OFFCURVE",
"413 2 CURVE SMOOTH",
"415 -2 OFFCURVE",
"420 -2 OFFCURVE",
"419 5 CURVE SMOOTH",
"418 13 OFFCURVE",
"421 27 OFFCURVE",
"421 36 CURVE SMOOTH",
"421 110 OFFCURVE",
"237 98 OFFCURVE",
"151 87 CURVE",
"164 126 OFFCURVE",
"186 181 OFFCURVE",
"210 233 CURVE",
"335 294 OFFCURVE",
"453 427 OFFCURVE",
"453 523 CURVE SMOOTH"
);
},
{
closed = 1;
nodes = (
"238 294 LINE SMOOTH",
"263 348 OFFCURVE",
"329 487 OFFCURVE",
"367 533 CURVE SMOOTH",
"400 572 OFFCURVE",
"413 521 OFFCURVE",
"377 451 CURVE SMOOTH",
"349 399 OFFCURVE",
"295 328 OFFCURVE",
"231 280 CURVE"
);
},
{
closed = 1;
nodes = (
"542 758 LINE SMOOTH",
"548 762 OFFCURVE",
"486 763 OFFCURVE",
"482 759 CURVE SMOOTH",
"419 688 LINE",
"390 762 LINE SMOOTH",
"389 766 OFFCURVE",
"328 764 OFFCURVE",
"332 758 CURVE SMOOTH",
"386 660 LINE",
"393 654 OFFCURVE",
"416 657 OFFCURVE",
"423 661 CURVE"
);
}
);
width = 421;
}
);
note = Lcaron;
unicode = 013D;
},
{
color = 3;
glyphname = Lslash;
lastChange = "2021-05-07 03:34:56 +0000";
layers = (
{
hints = (
{
horizontal = 1;
place = "{-3, 102}";
type = Stem;
},
{
place = "{45, 20}";
type = Stem;
},
{
place = "{413, 8}";
type = Stem;
},
{
horizontal = 1;
place = "{18, 81}";
type = Stem;
}
);
layerId = "C623C401-2266-4A98-B253-3D45160C29C7";
paths = (
{
closed = 1;
nodes = (
"421 110 OFFCURVE",
"238 104 OFFCURVE",
"152 93 CURVE",
"163 126 OFFCURVE",
"181 174 OFFCURVE",
"201 224 CURVE",
"292 244 LINE SMOOTH",
"300 246 OFFCURVE",
"321 291 OFFCURVE",
"295 286 CURVE SMOOTH",
"221 269 LINE",
"242 315 LINE SMOOTH",
"295 428 OFFCURVE",
"341 505 OFFCURVE",
"395 578 CURVE SMOOTH",
"403 589 OFFCURVE",
"382 598 OFFCURVE",
"336 597 CURVE SMOOTH",
"271 594 OFFCURVE",
"256 586 OFFCURVE",
"219 523 CURVE SMOOTH",
"197 487 OFFCURVE",
"124 359 OFFCURVE",
"80 238 CURVE",
"20 225 LINE SMOOTH",
"7 222 OFFCURVE",
"-11 177 OFFCURVE",
"5 180 CURVE SMOOTH",
"65 193 LINE",
"38 106 OFFCURVE",
"32 30 OFFCURVE",
"83 9 CURVE SMOOTH",
"144 -17 OFFCURVE",
"168 5 OFFCURVE",
"232 12 CURVE SMOOTH",
"317 21 OFFCURVE",
"402 22 OFFCURVE",
"413 2 CURVE SMOOTH",
"415 -2 OFFCURVE",
"420 -2 OFFCURVE",
"419 5 CURVE SMOOTH",
"418 13 OFFCURVE",
"421 27 OFFCURVE",
"421 36 CURVE SMOOTH"
);
}
);
width = 421;
}
);
note = Lslash;
unicode = 0141;
},
{
color = 3;
glyphname = M;
lastChange = "2021-05-07 03:34:56 +0000";
layers = (
{
hints = (
{
horizontal = 1;
place = "{-7, 21}";
target = up;
type = BottomGhost;
},
{
horizontal = 1;
place = "{372, 128}";
type = Stem;
},
{
horizontal = 1;
place = "{506, 77}";
type = Stem;
},
{
horizontal = 1;
place = "{583, -20}";
target = down;
type = TopGhost;
},
{
place = "{33, 71}";
type = Stem;
},
{
place = "{160, 93}";
type = Stem;
},
{
place = "{408, 102}";
type = Stem;
},
{
place = "{626, 100}";
type = Stem;
}
);
layerId = "C623C401-2266-4A98-B253-3D45160C29C7";
paths = (
{
closed = 1;
nodes = (
"854 630 OFFCURVE",
"847 637 OFFCURVE",
"820 617 CURVE SMOOTH",
"807 607 OFFCURVE",
"646 421 OFFCURVE",
"578 336 CURVE",
"654 454 OFFCURVE",
"716 536 OFFCURVE",
"661 571 CURVE SMOOTH",
"614 601 OFFCURVE",
"575 576 OFFCURVE",
"564 568 CURVE SMOOTH",
"527 540 OFFCURVE",
"409 399 OFFCURVE",
"351 322 CURVE SMOOTH",
"346 315 OFFCURVE",
"344 327 OFFCURVE",
"352 340 CURVE SMOOTH",
"372 370 OFFCURVE",
"416 429 OFFCURVE",
"442 462 CURVE SMOOTH",
"458 484 OFFCURVE",
"517 551 OFFCURVE",
"511 568 CURVE SMOOTH",
"505 588 OFFCURVE",
"486 622 OFFCURVE",
"463 627 CURVE SMOOTH",
"394 640 OFFCURVE",
"219 514 OFFCURVE",
"140 500 CURVE SMOOTH",
"121 497 OFFCURVE",
"95 498 OFFCURVE",
"108 523 CURVE SMOOTH",
"119 542 OFFCURVE",
"95 545 OFFCURVE",
"80 523 CURVE SMOOTH",
"40 464 OFFCURVE",
"15 391 OFFCURVE",
"50 378 CURVE SMOOTH",
"153 338 OFFCURVE",
"283 530 OFFCURVE",
"346 553 CURVE SMOOTH",
"385 567 OFFCURVE",
"315 472 OFFCURVE",
"307 459 CURVE SMOOTH",
"226 326 OFFCURVE",
"169 155 OFFCURVE",
"161 89 CURVE SMOOTH",
"152 21 OFFCURVE",
"183 -7 OFFCURVE",
"257 -7 CURVE SMOOTH",
"267 -7 OFFCURVE",
"269 -5 OFFCURVE",
"265 0 CURVE SMOOTH",
"258 8 OFFCURVE",
"254 20 OFFCURVE",
"254 35 CURVE SMOOTH",
"254 192 OFFCURVE",
"454 418 OFFCURVE",
"561 515 CURVE",
"547 492 OFFCURVE",
"501 413 OFFCURVE",
"473 347 CURVE SMOOTH",
"410 201 OFFCURVE",
"359 10 OFFCURVE",
"492 10 CURVE SMOOTH",
"508 10 OFFCURVE",
"518 15 OFFCURVE",
"515 23 CURVE",
"494 59 OFFCURVE",
"535 187 OFFCURVE",
"549 220 CURVE SMOOTH",
"607 352 OFFCURVE",
"757 494 OFFCURVE",
"799 531 CURVE",
"730 417 OFFCURVE",
"520 -37 OFFCURVE",
"690 -90 CURVE SMOOTH",
"705 -95 OFFCURVE",
"725 -89 OFFCURVE",
"736 -79 CURVE",
"685 0 OFFCURVE",
"856 363 OFFCURVE",
"893 429 CURVE SMOOTH",
"922 482 OFFCURVE",
"967 573 OFFCURVE",
"894 610 CURVE SMOOTH"
);
}
);
width = 844;
}
);
note = M;
unicode = 004D;
},
{
color = 3;
glyphname = N;
lastChange = "2021-05-07 03:34:56 +0000";
layers = (
{
hints = (
{
horizontal = 1;
place = "{-7, 21}";
target = up;
type = BottomGhost;
},
{
horizontal = 1;
place = "{372, 128}";
type = Stem;
},
{
place = "{33, 71}";
type = Stem;
},
{
place = "{160, 93}";
type = Stem;
},
{
place = "{419, 104}";
type = Stem;
},
{
horizontal = 1;
place = "{-1, 21}";
target = up;
type = BottomGhost;
}
);
layerId = "C623C401-2266-4A98-B253-3D45160C29C7";
paths = (
{
closed = 1;
nodes = (
"710 524 OFFCURVE",
"718 581 OFFCURVE",
"667 609 CURVE SMOOTH",
"637 625 OFFCURVE",
"623 635 OFFCURVE",
"597 615 CURVE SMOOTH",
"560 587 OFFCURVE",
"423 426 OFFCURVE",
"352 323 CURVE SMOOTH",
"347 316 OFFCURVE",
"346 330 OFFCURVE",
"354 343 CURVE SMOOTH",
"374 373 OFFCURVE",
"416 429 OFFCURVE",
"442 462 CURVE SMOOTH",
"458 484 OFFCURVE",
"517 551 OFFCURVE",
"511 568 CURVE SMOOTH",
"505 588 OFFCURVE",
"486 622 OFFCURVE",
"463 627 CURVE SMOOTH",
"394 640 OFFCURVE",
"219 514 OFFCURVE",
"140 500 CURVE SMOOTH",
"121 497 OFFCURVE",
"95 498 OFFCURVE",
"108 523 CURVE SMOOTH",
"119 542 OFFCURVE",
"95 545 OFFCURVE",
"80 523 CURVE SMOOTH",
"40 464 OFFCURVE",
"15 391 OFFCURVE",
"50 378 CURVE SMOOTH",
"153 338 OFFCURVE",
"283 530 OFFCURVE",
"346 553 CURVE SMOOTH",
"385 567 OFFCURVE",
"315 472 OFFCURVE",
"307 459 CURVE SMOOTH",
"226 326 OFFCURVE",
"169 155 OFFCURVE",
"161 89 CURVE SMOOTH",
"152 21 OFFCURVE",
"183 -7 OFFCURVE",
"257 -7 CURVE SMOOTH",
"267 -7 OFFCURVE",
"269 -5 OFFCURVE",
"265 0 CURVE SMOOTH",
"258 8 OFFCURVE",
"254 20 OFFCURVE",
"254 35 CURVE SMOOTH",
"253 205 OFFCURVE",
"450 418 OFFCURVE",
"558 515 CURVE",
"553 499 OFFCURVE",
"538 464 OFFCURVE",
"520 424 CURVE SMOOTH",
"487 353 OFFCURVE",
"414 208 OFFCURVE",
"414 106 CURVE SMOOTH",
"414 54 OFFCURVE",
"442 -1 OFFCURVE",
"497 -1 CURVE SMOOTH",
"512 -1 OFFCURVE",
"528 3 OFFCURVE",
"532 11 CURVE",
"517 31 OFFCURVE",
"516 106 OFFCURVE",
"542 179 CURVE SMOOTH",
"572 264 OFFCURVE",
"625 356 OFFCURVE",
"688 480 CURVE SMOOTH"
);
}
);
width = 633;
}
);
note = N;
unicode = 004E;
},
{
color = 3;
glyphname = Nacute;
lastChange = "2021-05-07 03:34:56 +0000";
layers = (
{
hints = (
{
horizontal = 1;
place = "{-7, 21}";
target = up;
type = BottomGhost;
},
{
horizontal = 1;
place = "{372, 128}";
type = Stem;
},
{
place = "{33, 71}";
type = Stem;
},
{
place = "{160, 93}";
type = Stem;
},
{
place = "{419, 104}";
type = Stem;
},
{
horizontal = 1;
place = "{-1, 21}";
target = up;
type = BottomGhost;
}
);
layerId = "C623C401-2266-4A98-B253-3D45160C29C7";
paths = (
{
closed = 1;
nodes = (
"710 524 OFFCURVE",
"718 581 OFFCURVE",
"667 609 CURVE SMOOTH",
"637 625 OFFCURVE",
"623 635 OFFCURVE",
"597 615 CURVE SMOOTH",
"560 587 OFFCURVE",
"423 426 OFFCURVE",
"352 323 CURVE SMOOTH",
"347 316 OFFCURVE",
"346 330 OFFCURVE",
"354 343 CURVE SMOOTH",
"374 373 OFFCURVE",
"416 429 OFFCURVE",
"442 462 CURVE SMOOTH",
"458 484 OFFCURVE",
"517 551 OFFCURVE",
"511 568 CURVE SMOOTH",
"505 588 OFFCURVE",
"486 622 OFFCURVE",
"463 627 CURVE SMOOTH",
"394 640 OFFCURVE",
"219 514 OFFCURVE",
"140 500 CURVE SMOOTH",
"121 497 OFFCURVE",
"95 498 OFFCURVE",
"108 523 CURVE SMOOTH",
"119 542 OFFCURVE",
"95 545 OFFCURVE",
"80 523 CURVE SMOOTH",
"40 464 OFFCURVE",
"15 391 OFFCURVE",
"50 378 CURVE SMOOTH",
"153 338 OFFCURVE",
"283 530 OFFCURVE",
"346 553 CURVE SMOOTH",
"385 567 OFFCURVE",
"315 472 OFFCURVE",
"307 459 CURVE SMOOTH",
"226 326 OFFCURVE",
"169 155 OFFCURVE",
"161 89 CURVE SMOOTH",
"152 21 OFFCURVE",
"183 -7 OFFCURVE",
"257 -7 CURVE SMOOTH",
"267 -7 OFFCURVE",
"269 -5 OFFCURVE",
"265 0 CURVE SMOOTH",
"258 8 OFFCURVE",
"254 20 OFFCURVE",
"254 35 CURVE SMOOTH",
"253 205 OFFCURVE",
"450 418 OFFCURVE",
"558 515 CURVE",
"553 499 OFFCURVE",
"538 464 OFFCURVE",
"520 424 CURVE SMOOTH",
"487 353 OFFCURVE",
"414 208 OFFCURVE",
"414 106 CURVE SMOOTH",
"414 54 OFFCURVE",
"442 -1 OFFCURVE",
"497 -1 CURVE SMOOTH",
"512 -1 OFFCURVE",
"528 3 OFFCURVE",
"532 11 CURVE",
"517 31 OFFCURVE",
"516 106 OFFCURVE",
"542 179 CURVE SMOOTH",
"572 264 OFFCURVE",
"625 356 OFFCURVE",
"688 480 CURVE SMOOTH"
);
},
{
closed = 1;
nodes = (
"521 709 OFFCURVE",
"565 690 OFFCURVE",
"573 692 CURVE SMOOTH",
"594 698 OFFCURVE",
"700 726 OFFCURVE",
"736 734 CURVE SMOOTH",
"752 737 OFFCURVE",
"672 777 OFFCURVE",
"658 769 CURVE SMOOTH",
"633 756 OFFCURVE",
"559 724 OFFCURVE",
"532 713 CURVE SMOOTH"
);
}
);
width = 633;
}
);
note = Nacute;
unicode = 0143;
},
{
color = 3;
glyphname = Ncaron;
lastChange = "2021-05-07 03:34:56 +0000";
layers = (
{
hints = (
{
horizontal = 1;
place = "{-7, 21}";
target = up;
type = BottomGhost;
},
{
horizontal = 1;
place = "{372, 128}";
type = Stem;
},
{
place = "{33, 71}";
type = Stem;
},
{
place = "{160, 93}";
type = Stem;
},
{
place = "{419, 104}";
type = Stem;
},
{
horizontal = 1;
place = "{-1, 21}";
target = up;
type = BottomGhost;
}
);
layerId = "C623C401-2266-4A98-B253-3D45160C29C7";
paths = (
{
closed = 1;
nodes = (
"710 524 OFFCURVE",
"718 581 OFFCURVE",
"667 609 CURVE SMOOTH",
"637 625 OFFCURVE",
"623 635 OFFCURVE",
"597 615 CURVE SMOOTH",
"560 587 OFFCURVE",
"423 426 OFFCURVE",
"352 323 CURVE SMOOTH",
"347 316 OFFCURVE",
"346 330 OFFCURVE",
"354 343 CURVE SMOOTH",
"374 373 OFFCURVE",
"416 429 OFFCURVE",
"442 462 CURVE SMOOTH",
"458 484 OFFCURVE",
"517 551 OFFCURVE",
"511 568 CURVE SMOOTH",
"505 588 OFFCURVE",
"486 622 OFFCURVE",
"463 627 CURVE SMOOTH",
"394 640 OFFCURVE",
"219 514 OFFCURVE",
"140 500 CURVE SMOOTH",
"121 497 OFFCURVE",
"95 498 OFFCURVE",
"108 523 CURVE SMOOTH",
"119 542 OFFCURVE",
"95 545 OFFCURVE",
"80 523 CURVE SMOOTH",
"40 464 OFFCURVE",
"15 391 OFFCURVE",
"50 378 CURVE SMOOTH",
"153 338 OFFCURVE",
"283 530 OFFCURVE",
"346 553 CURVE SMOOTH",
"385 567 OFFCURVE",
"315 472 OFFCURVE",
"307 459 CURVE SMOOTH",
"226 326 OFFCURVE",
"169 155 OFFCURVE",
"161 89 CURVE SMOOTH",
"152 21 OFFCURVE",
"183 -7 OFFCURVE",
"257 -7 CURVE SMOOTH",
"267 -7 OFFCURVE",
"269 -5 OFFCURVE",
"265 0 CURVE SMOOTH",
"258 8 OFFCURVE",
"254 20 OFFCURVE",
"254 35 CURVE SMOOTH",
"253 205 OFFCURVE",
"450 418 OFFCURVE",
"558 515 CURVE",
"553 499 OFFCURVE",
"538 464 OFFCURVE",
"520 424 CURVE SMOOTH",
"487 353 OFFCURVE",
"414 208 OFFCURVE",
"414 106 CURVE SMOOTH",
"414 54 OFFCURVE",
"442 -1 OFFCURVE",
"497 -1 CURVE SMOOTH",
"512 -1 OFFCURVE",
"528 3 OFFCURVE",
"532 11 CURVE",
"517 31 OFFCURVE",
"516 106 OFFCURVE",
"542 179 CURVE SMOOTH",
"572 264 OFFCURVE",
"625 356 OFFCURVE",
"688 480 CURVE SMOOTH"
);
},
{
closed = 1;
nodes = (
"751 767 LINE SMOOTH",
"757 771 OFFCURVE",
"695 772 OFFCURVE",
"691 768 CURVE SMOOTH",
"628 697 LINE",
"599 771 LINE SMOOTH",
"598 775 OFFCURVE",
"537 773 OFFCURVE",
"541 767 CURVE SMOOTH",
"595 669 LINE",
"602 663 OFFCURVE",
"625 666 OFFCURVE",
"632 670 CURVE"
);
}
);
width = 633;
}
);
note = Ncaron;
unicode = 0147;
},
{
color = 3;
glyphname = Ncommaaccent;
lastChange = "2021-05-07 03:34:56 +0000";
layers = (
{
hints = (
{
horizontal = 1;
place = "{-7, 21}";
target = up;
type = BottomGhost;
},
{
horizontal = 1;
place = "{372, 128}";
type = Stem;
},
{
place = "{33, 71}";
type = Stem;
},
{
place = "{160, 93}";
type = Stem;
},
{
place = "{419, 104}";
type = Stem;
},
{
horizontal = 1;
place = "{-1, 21}";
target = up;
type = BottomGhost;
}
);
layerId = "C623C401-2266-4A98-B253-3D45160C29C7";
paths = (
{
closed = 1;
nodes = (
"366 -75 OFFCURVE",
"368 -26 OFFCURVE",
"325 -30 CURVE SMOOTH",
"297 -31 OFFCURVE",
"267 -59 OFFCURVE",
"259 -90 CURVE SMOOTH",
"251 -120 OFFCURVE",
"263 -143 OFFCURVE",
"287 -145 CURVE",
"272 -176 OFFCURVE",
"251 -204 OFFCURVE",
"218 -219 CURVE SMOOTH",
"207 -223 OFFCURVE",
"226 -236 OFFCURVE",
"236 -232 CURVE SMOOTH",
"296 -205 OFFCURVE",
"335 -167 OFFCURVE",
"358 -99 CURVE SMOOTH"
);
},
{
closed = 1;
nodes = (
"710 524 OFFCURVE",
"718 581 OFFCURVE",
"667 609 CURVE SMOOTH",
"637 625 OFFCURVE",
"623 635 OFFCURVE",
"597 615 CURVE SMOOTH",
"560 587 OFFCURVE",
"423 426 OFFCURVE",
"352 323 CURVE SMOOTH",
"347 316 OFFCURVE",
"346 330 OFFCURVE",
"354 343 CURVE SMOOTH",
"374 373 OFFCURVE",
"416 429 OFFCURVE",
"442 462 CURVE SMOOTH",
"458 484 OFFCURVE",
"517 551 OFFCURVE",
"511 568 CURVE SMOOTH",
"505 588 OFFCURVE",
"486 622 OFFCURVE",
"463 627 CURVE SMOOTH",
"394 640 OFFCURVE",
"219 514 OFFCURVE",
"140 500 CURVE SMOOTH",
"121 497 OFFCURVE",
"95 498 OFFCURVE",
"108 523 CURVE SMOOTH",
"119 542 OFFCURVE",
"95 545 OFFCURVE",
"80 523 CURVE SMOOTH",
"40 464 OFFCURVE",
"15 391 OFFCURVE",
"50 378 CURVE SMOOTH",
"153 338 OFFCURVE",
"283 530 OFFCURVE",
"346 553 CURVE SMOOTH",
"385 567 OFFCURVE",
"315 472 OFFCURVE",
"307 459 CURVE SMOOTH",
"226 326 OFFCURVE",
"169 155 OFFCURVE",
"161 89 CURVE SMOOTH",
"152 21 OFFCURVE",
"183 -7 OFFCURVE",
"257 -7 CURVE SMOOTH",
"267 -7 OFFCURVE",
"269 -5 OFFCURVE",
"265 0 CURVE SMOOTH",
"258 8 OFFCURVE",
"254 20 OFFCURVE",
"254 35 CURVE SMOOTH",
"253 205 OFFCURVE",
"450 418 OFFCURVE",
"558 515 CURVE",
"553 499 OFFCURVE",
"538 464 OFFCURVE",
"520 424 CURVE SMOOTH",
"487 353 OFFCURVE",
"414 208 OFFCURVE",
"414 106 CURVE SMOOTH",
"414 54 OFFCURVE",
"442 -1 OFFCURVE",
"497 -1 CURVE SMOOTH",
"512 -1 OFFCURVE",
"528 3 OFFCURVE",
"532 11 CURVE",
"517 31 OFFCURVE",
"516 106 OFFCURVE",
"542 179 CURVE SMOOTH",
"572 264 OFFCURVE",
"625 356 OFFCURVE",
"688 480 CURVE SMOOTH"
);
}
);
width = 633;
}
);
note = uni0145;
unicode = 0145;
},
{
color = 3;
glyphname = Eng;
lastChange = "2021-05-07 03:34:56 +0000";
layers = (
{
hints = (
{
horizontal = 1;
place = "{-7, 21}";
target = up;
type = BottomGhost;
},
{
horizontal = 1;
place = "{372, 128}";
type = Stem;
},
{
place = "{33, 71}";
type = Stem;
},
{
place = "{160, 93}";
type = Stem;
},
{
place = "{419, 104}";
type = Stem;
},
{
horizontal = 1;
place = "{-1, 21}";
target = up;
type = BottomGhost;
},
{
horizontal = 1;
place = "{-66, 50}";
type = Stem;
},
{
horizontal = 1;
place = "{562, 81}";
type = Stem;
},
{
place = "{1309, 8}";
type = Stem;
}
);
layerId = "C623C401-2266-4A98-B253-3D45160C29C7";
paths = (
{
closed = 1;
nodes = (
"637 625 OFFCURVE",
"623 635 OFFCURVE",
"597 615 CURVE SMOOTH",
"560 587 OFFCURVE",
"423 426 OFFCURVE",
"352 323 CURVE SMOOTH",
"347 316 OFFCURVE",
"346 330 OFFCURVE",
"354 343 CURVE SMOOTH",
"374 373 OFFCURVE",
"416 429 OFFCURVE",
"442 462 CURVE SMOOTH",
"458 484 OFFCURVE",
"517 551 OFFCURVE",
"511 568 CURVE SMOOTH",
"505 588 OFFCURVE",
"486 622 OFFCURVE",
"463 627 CURVE SMOOTH",
"394 640 OFFCURVE",
"219 514 OFFCURVE",
"140 500 CURVE SMOOTH",
"121 497 OFFCURVE",
"95 498 OFFCURVE",
"108 523 CURVE SMOOTH",
"119 542 OFFCURVE",
"95 545 OFFCURVE",
"80 523 CURVE SMOOTH",
"40 464 OFFCURVE",
"15 391 OFFCURVE",
"50 378 CURVE SMOOTH",
"153 338 OFFCURVE",
"283 530 OFFCURVE",
"346 553 CURVE SMOOTH",
"385 567 OFFCURVE",
"315 472 OFFCURVE",
"307 459 CURVE SMOOTH",
"226 326 OFFCURVE",
"169 155 OFFCURVE",
"161 89 CURVE SMOOTH",
"152 21 OFFCURVE",
"183 -7 OFFCURVE",
"257 -7 CURVE SMOOTH",
"267 -7 OFFCURVE",
"269 -5 OFFCURVE",
"265 0 CURVE SMOOTH",
"258 8 OFFCURVE",
"254 20 OFFCURVE",
"254 35 CURVE SMOOTH",
"253 205 OFFCURVE",
"450 418 OFFCURVE",
"558 515 CURVE",
"553 499 OFFCURVE",
"547 432 OFFCURVE",
"535 391 CURVE SMOOTH",
"486 219 OFFCURVE",
"370 -56 OFFCURVE",
"278 -226 CURVE SMOOTH",
"202 -366 OFFCURVE",
"157 -307 OFFCURVE",
"184 -216 CURVE SMOOTH",
"186 -177 OFFCURVE",
"223 -130 OFFCURVE",
"246 -122 CURVE SMOOTH",
"269 -112 OFFCURVE",
"260 -85 OFFCURVE",
"222 -94 CURVE SMOOTH",
"146 -111 OFFCURVE",
"96 -178 OFFCURVE",
"87 -238 CURVE SMOOTH",
"77 -302 OFFCURVE",
"111 -349 OFFCURVE",
"181 -349 CURVE SMOOTH",
"342 -349 OFFCURVE",
"431 -177 OFFCURVE",
"547 99 CURVE SMOOTH",
"623 280 OFFCURVE",
"654 378 OFFCURVE",
"688 480 CURVE SMOOTH",
"703 525 OFFCURVE",
"718 581 OFFCURVE",
"667 609 CURVE SMOOTH"
);
}
);
width = 633;
}
);
unicode = 014A;
},
{
color = 3;
glyphname = Ntilde;
lastChange = "2021-05-07 03:34:56 +0000";
layers = (
{
hints = (
{
horizontal = 1;
place = "{-7, 21}";
target = up;
type = BottomGhost;
},
{
horizontal = 1;
place = "{372, 128}";
type = Stem;
},
{
place = "{33, 71}";
type = Stem;
},
{
place = "{160, 93}";
type = Stem;
},
{
place = "{419, 104}";
type = Stem;
},
{
horizontal = 1;
place = "{-1, 21}";
target = up;
type = BottomGhost;
}
);
layerId = "C623C401-2266-4A98-B253-3D45160C29C7";
paths = (
{
closed = 1;
nodes = (
"710 524 OFFCURVE",
"718 581 OFFCURVE",
"667 609 CURVE SMOOTH",
"637 625 OFFCURVE",
"623 635 OFFCURVE",
"597 615 CURVE SMOOTH",
"560 587 OFFCURVE",
"423 426 OFFCURVE",
"352 323 CURVE SMOOTH",
"347 316 OFFCURVE",
"346 330 OFFCURVE",
"354 343 CURVE SMOOTH",
"374 373 OFFCURVE",
"416 429 OFFCURVE",
"442 462 CURVE SMOOTH",
"458 484 OFFCURVE",
"517 551 OFFCURVE",
"511 568 CURVE SMOOTH",
"505 588 OFFCURVE",
"486 622 OFFCURVE",
"463 627 CURVE SMOOTH",
"394 640 OFFCURVE",
"219 514 OFFCURVE",
"140 500 CURVE SMOOTH",
"121 497 OFFCURVE",
"95 498 OFFCURVE",
"108 523 CURVE SMOOTH",
"119 542 OFFCURVE",
"95 545 OFFCURVE",
"80 523 CURVE SMOOTH",
"40 464 OFFCURVE",
"15 391 OFFCURVE",
"50 378 CURVE SMOOTH",
"153 338 OFFCURVE",
"283 530 OFFCURVE",
"346 553 CURVE SMOOTH",
"385 567 OFFCURVE",
"315 472 OFFCURVE",
"307 459 CURVE SMOOTH",
"226 326 OFFCURVE",
"169 155 OFFCURVE",
"161 89 CURVE SMOOTH",
"152 21 OFFCURVE",
"183 -7 OFFCURVE",
"257 -7 CURVE SMOOTH",
"267 -7 OFFCURVE",
"269 -5 OFFCURVE",
"265 0 CURVE SMOOTH",
"258 8 OFFCURVE",
"254 20 OFFCURVE",
"254 35 CURVE SMOOTH",
"253 205 OFFCURVE",
"450 418 OFFCURVE",
"558 515 CURVE",
"553 499 OFFCURVE",
"538 464 OFFCURVE",
"520 424 CURVE SMOOTH",
"487 353 OFFCURVE",
"414 208 OFFCURVE",
"414 106 CURVE SMOOTH",
"414 54 OFFCURVE",
"442 -1 OFFCURVE",
"497 -1 CURVE SMOOTH",
"512 -1 OFFCURVE",
"528 3 OFFCURVE",
"532 11 CURVE",
"517 31 OFFCURVE",
"516 106 OFFCURVE",
"542 179 CURVE SMOOTH",
"572 264 OFFCURVE",
"625 356 OFFCURVE",
"688 480 CURVE SMOOTH"
);
},
{
closed = 1;
nodes = (
"770 744 OFFCURVE",
"759 760 OFFCURVE",
"755 754 CURVE SMOOTH",
"747 744 OFFCURVE",
"729 730 OFFCURVE",
"702 730 CURVE SMOOTH",
"658 730 OFFCURVE",
"627 756 OFFCURVE",
"583 756 CURVE SMOOTH",
"549 756 OFFCURVE",
"516 720 OFFCURVE",
"506 702 CURVE",
"504 696 OFFCURVE",
"520 683 OFFCURVE",
"523 689 CURVE SMOOTH",
"531 701 OFFCURVE",
"544 707 OFFCURVE",
"573 707 CURVE SMOOTH",
"614 707 OFFCURVE",
"648 681 OFFCURVE",
"691 681 CURVE SMOOTH",
"725 681 OFFCURVE",
"750 718 OFFCURVE",
"765 739 CURVE"
);
}
);
width = 633;
}
);
note = Ntilde;
unicode = 00D1;
},
{
color = 3;
glyphname = O;
lastChange = "2021-05-07 03:34:56 +0000";
layers = (
{
hints = (
{
horizontal = 1;
place = "{5, 32}";
type = Stem;
},
{
horizontal = 1;
place = "{588, 29}";
type = Stem;
},
{
place = "{22, 120}";
type = Stem;
},
{
place = "{403, 89}";
type = Stem;
}
);
layerId = "C623C401-2266-4A98-B253-3D45160C29C7";
paths = (
{
closed = 1;
nodes = (
"489 615 OFFCURVE",
"441 623 OFFCURVE",
"396 620 CURVE SMOOTH",
"324 615 OFFCURVE",
"269 590 OFFCURVE",
"215 542 CURVE SMOOTH",
"103 442 OFFCURVE",
"33 261 OFFCURVE",
"42 126 CURVE SMOOTH",
"51 -31 OFFCURVE",
"233 -40 OFFCURVE",
"332 38 CURVE SMOOTH",
"394 86 OFFCURVE",
"448 169 OFFCURVE",
"483 245 CURVE SMOOTH",
"521 327 OFFCURVE",
"564 499 OFFCURVE",
"454 547 CURVE SMOOTH",
"433 556 OFFCURVE",
"416 550 OFFCURVE",
"429 535 CURVE SMOOTH",
"460 500 OFFCURVE",
"458 386 OFFCURVE",
"404 272 CURVE SMOOTH",
"328 112 OFFCURVE",
"253 27 OFFCURVE",
"199 27 CURVE SMOOTH",
"121 27 OFFCURVE",
"195 227 OFFCURVE",
"237 320 CURVE SMOOTH",
"268 388 OFFCURVE",
"307 461 OFFCURVE",
"345 506 CURVE SMOOTH",
"388 555 OFFCURVE",
"446 608 OFFCURVE",
"491 569 CURVE SMOOTH",
"511 551 OFFCURVE",
"516 586 OFFCURVE",
"506 596 CURVE SMOOTH"
);
}
);
width = 470;
}
);
note = O;
unicode = 004F;
},
{
color = 3;
glyphname = Oacute;
lastChange = "2021-05-07 03:34:56 +0000";
layers = (
{
hints = (
{
horizontal = 1;
place = "{5, 32}";
type = Stem;
},
{
horizontal = 1;
place = "{588, 29}";
type = Stem;
},
{
place = "{22, 120}";
type = Stem;
},
{
place = "{403, 89}";
type = Stem;
}
);
layerId = "C623C401-2266-4A98-B253-3D45160C29C7";
paths = (
{
closed = 1;
nodes = (
"489 615 OFFCURVE",
"441 623 OFFCURVE",
"396 620 CURVE SMOOTH",
"324 615 OFFCURVE",
"269 590 OFFCURVE",
"215 542 CURVE SMOOTH",
"103 442 OFFCURVE",
"33 261 OFFCURVE",
"42 126 CURVE SMOOTH",
"51 -31 OFFCURVE",
"233 -40 OFFCURVE",
"332 38 CURVE SMOOTH",
"394 86 OFFCURVE",
"448 169 OFFCURVE",
"483 245 CURVE SMOOTH",
"521 327 OFFCURVE",
"564 499 OFFCURVE",
"454 547 CURVE SMOOTH",
"433 556 OFFCURVE",
"416 550 OFFCURVE",
"429 535 CURVE SMOOTH",
"460 500 OFFCURVE",
"458 386 OFFCURVE",
"404 272 CURVE SMOOTH",
"328 112 OFFCURVE",
"253 27 OFFCURVE",
"199 27 CURVE SMOOTH",
"121 27 OFFCURVE",
"195 227 OFFCURVE",
"237 320 CURVE SMOOTH",
"268 388 OFFCURVE",
"307 461 OFFCURVE",
"345 506 CURVE SMOOTH",
"388 555 OFFCURVE",
"446 608 OFFCURVE",
"491 569 CURVE SMOOTH",
"511 551 OFFCURVE",
"516 586 OFFCURVE",
"506 596 CURVE SMOOTH"
);
},
{
closed = 1;
nodes = (
"375 716 OFFCURVE",
"419 697 OFFCURVE",
"427 699 CURVE SMOOTH",
"448 705 OFFCURVE",
"554 733 OFFCURVE",
"590 741 CURVE SMOOTH",
"606 744 OFFCURVE",
"526 784 OFFCURVE",
"512 776 CURVE SMOOTH",
"487 763 OFFCURVE",
"413 731 OFFCURVE",
"386 720 CURVE SMOOTH"
);
}
);
width = 489;
}
);
note = Oacute;
unicode = 00D3;
},
{
color = 3;
glyphname = Ocircumflex;
lastChange = "2021-05-07 03:34:56 +0000";
layers = (
{
hints = (
{
horizontal = 1;
place = "{5, 32}";
type = Stem;
},
{
horizontal = 1;
place = "{588, 29}";
type = Stem;
},
{
place = "{22, 120}";
type = Stem;
},
{
place = "{403, 89}";
type = Stem;
}
);
layerId = "C623C401-2266-4A98-B253-3D45160C29C7";
paths = (
{
closed = 1;
nodes = (
"489 615 OFFCURVE",
"441 623 OFFCURVE",
"396 620 CURVE SMOOTH",
"324 615 OFFCURVE",
"269 590 OFFCURVE",
"215 542 CURVE SMOOTH",
"103 442 OFFCURVE",
"33 261 OFFCURVE",
"42 126 CURVE SMOOTH",
"51 -31 OFFCURVE",
"233 -40 OFFCURVE",
"332 38 CURVE SMOOTH",
"394 86 OFFCURVE",
"448 169 OFFCURVE",
"483 245 CURVE SMOOTH",
"521 327 OFFCURVE",
"564 499 OFFCURVE",
"454 547 CURVE SMOOTH",
"433 556 OFFCURVE",
"416 550 OFFCURVE",
"429 535 CURVE SMOOTH",
"460 500 OFFCURVE",
"458 386 OFFCURVE",
"404 272 CURVE SMOOTH",
"328 112 OFFCURVE",
"253 27 OFFCURVE",
"199 27 CURVE SMOOTH",
"121 27 OFFCURVE",
"195 227 OFFCURVE",
"237 320 CURVE SMOOTH",
"268 388 OFFCURVE",
"307 461 OFFCURVE",
"345 506 CURVE SMOOTH",
"388 555 OFFCURVE",
"446 608 OFFCURVE",
"491 569 CURVE SMOOTH",
"511 551 OFFCURVE",
"516 586 OFFCURVE",
"506 596 CURVE SMOOTH"
);
},
{
closed = 1;
nodes = (
"358 712 LINE SMOOTH",
"352 708 OFFCURVE",
"414 707 OFFCURVE",
"418 711 CURVE SMOOTH",
"481 782 LINE",
"510 708 LINE SMOOTH",
"511 704 OFFCURVE",
"572 706 OFFCURVE",
"568 712 CURVE SMOOTH",
"514 810 LINE",
"507 816 OFFCURVE",
"484 813 OFFCURVE",
"477 809 CURVE"
);
}
);
width = 489;
}
);
note = Ocircumflex;
unicode = 00D4;
},
{
color = 3;
glyphname = Odieresis;
lastChange = "2021-05-07 03:34:56 +0000";
layers = (
{
hints = (
{
horizontal = 1;
place = "{5, 32}";
type = Stem;
},
{
horizontal = 1;
place = "{588, 29}";
type = Stem;
},
{
place = "{22, 120}";
type = Stem;
},
{
place = "{403, 89}";
type = Stem;
}
);
layerId = "C623C401-2266-4A98-B253-3D45160C29C7";
paths = (
{
closed = 1;
nodes = (
"489 615 OFFCURVE",
"441 623 OFFCURVE",
"396 620 CURVE SMOOTH",
"324 615 OFFCURVE",
"269 590 OFFCURVE",
"215 542 CURVE SMOOTH",
"103 442 OFFCURVE",
"33 261 OFFCURVE",
"42 126 CURVE SMOOTH",
"51 -31 OFFCURVE",
"233 -40 OFFCURVE",
"332 38 CURVE SMOOTH",
"394 86 OFFCURVE",
"448 169 OFFCURVE",
"483 245 CURVE SMOOTH",
"521 327 OFFCURVE",
"564 499 OFFCURVE",
"454 547 CURVE SMOOTH",
"433 556 OFFCURVE",
"416 550 OFFCURVE",
"429 535 CURVE SMOOTH",
"460 500 OFFCURVE",
"458 386 OFFCURVE",
"404 272 CURVE SMOOTH",
"328 112 OFFCURVE",
"253 27 OFFCURVE",
"199 27 CURVE SMOOTH",
"121 27 OFFCURVE",
"195 227 OFFCURVE",
"237 320 CURVE SMOOTH",
"268 388 OFFCURVE",
"307 461 OFFCURVE",
"345 506 CURVE SMOOTH",
"388 555 OFFCURVE",
"446 608 OFFCURVE",
"491 569 CURVE SMOOTH",
"511 551 OFFCURVE",
"516 586 OFFCURVE",
"506 596 CURVE SMOOTH"
);
},
{
closed = 1;
nodes = (
"598 757 OFFCURVE",
"585 778 OFFCURVE",
"560 777 CURVE SMOOTH",
"536 775 OFFCURVE",
"510 752 OFFCURVE",
"503 724 CURVE SMOOTH",
"496 696 OFFCURVE",
"509 675 OFFCURVE",
"534 677 CURVE SMOOTH",
"558 678 OFFCURVE",
"584 702 OFFCURVE",
"591 729 CURVE SMOOTH"
);
},
{
closed = 1;
nodes = (
"444 757 OFFCURVE",
"430 778 OFFCURVE",
"406 777 CURVE SMOOTH",
"381 775 OFFCURVE",
"356 752 OFFCURVE",
"348 724 CURVE SMOOTH",
"341 696 OFFCURVE",
"355 675 OFFCURVE",
"379 677 CURVE SMOOTH",
"404 678 OFFCURVE",
"429 702 OFFCURVE",
"437 729 CURVE SMOOTH"
);
}
);
width = 489;
}
);
note = Odieresis;
unicode = 00D6;
},
{
color = 3;
glyphname = Ograve;
lastChange = "2021-05-07 03:34:56 +0000";
layers = (
{
hints = (
{
horizontal = 1;
place = "{5, 32}";
type = Stem;
},
{
horizontal = 1;
place = "{588, 29}";
type = Stem;
},
{
place = "{22, 120}";
type = Stem;
},
{
place = "{403, 89}";
type = Stem;
}
);
layerId = "C623C401-2266-4A98-B253-3D45160C29C7";
paths = (
{
closed = 1;
nodes = (
"489 615 OFFCURVE",
"441 623 OFFCURVE",
"396 620 CURVE SMOOTH",
"324 615 OFFCURVE",
"269 590 OFFCURVE",
"215 542 CURVE SMOOTH",
"103 442 OFFCURVE",
"33 261 OFFCURVE",
"42 126 CURVE SMOOTH",
"51 -31 OFFCURVE",
"233 -40 OFFCURVE",
"332 38 CURVE SMOOTH",
"394 86 OFFCURVE",
"448 169 OFFCURVE",
"483 245 CURVE SMOOTH",
"521 327 OFFCURVE",
"564 499 OFFCURVE",
"454 547 CURVE SMOOTH",
"433 556 OFFCURVE",
"416 550 OFFCURVE",
"429 535 CURVE SMOOTH",
"460 500 OFFCURVE",
"458 386 OFFCURVE",
"404 272 CURVE SMOOTH",
"328 112 OFFCURVE",
"253 27 OFFCURVE",
"199 27 CURVE SMOOTH",
"121 27 OFFCURVE",
"195 227 OFFCURVE",
"237 320 CURVE SMOOTH",
"268 388 OFFCURVE",
"307 461 OFFCURVE",
"345 506 CURVE SMOOTH",
"388 555 OFFCURVE",
"446 608 OFFCURVE",
"491 569 CURVE SMOOTH",
"511 551 OFFCURVE",
"516 586 OFFCURVE",
"506 596 CURVE SMOOTH"
);
},
{
closed = 1;
nodes = (
"531 713 OFFCURVE",
"457 745 OFFCURVE",
"432 758 CURVE SMOOTH",
"418 766 OFFCURVE",
"338 726 OFFCURVE",
"354 723 CURVE SMOOTH",
"390 715 OFFCURVE",
"496 687 OFFCURVE",
"517 681 CURVE SMOOTH",
"525 679 OFFCURVE",
"569 698 OFFCURVE",
"558 702 CURVE SMOOTH"
);
}
);
width = 489;
}
);
note = Ograve;
unicode = 00D2;
},
{
color = 3;
glyphname = Ohungarumlaut;
lastChange = "2021-05-07 03:34:56 +0000";
layers = (
{
hints = (
{
horizontal = 1;
place = "{5, 32}";
type = Stem;
},
{
horizontal = 1;
place = "{588, 29}";
type = Stem;
},
{
place = "{22, 120}";
type = Stem;
},
{
place = "{403, 89}";
type = Stem;
}
);
layerId = "C623C401-2266-4A98-B253-3D45160C29C7";
paths = (
{
closed = 1;
nodes = (
"489 615 OFFCURVE",
"441 623 OFFCURVE",
"396 620 CURVE SMOOTH",
"324 615 OFFCURVE",
"269 590 OFFCURVE",
"215 542 CURVE SMOOTH",
"103 442 OFFCURVE",
"33 261 OFFCURVE",
"42 126 CURVE SMOOTH",
"51 -31 OFFCURVE",
"233 -40 OFFCURVE",
"332 38 CURVE SMOOTH",
"394 86 OFFCURVE",
"448 169 OFFCURVE",
"483 245 CURVE SMOOTH",
"521 327 OFFCURVE",
"564 499 OFFCURVE",
"454 547 CURVE SMOOTH",
"433 556 OFFCURVE",
"416 550 OFFCURVE",
"429 535 CURVE SMOOTH",
"460 500 OFFCURVE",
"458 386 OFFCURVE",
"404 272 CURVE SMOOTH",
"328 112 OFFCURVE",
"253 27 OFFCURVE",
"199 27 CURVE SMOOTH",
"121 27 OFFCURVE",
"195 227 OFFCURVE",
"237 320 CURVE SMOOTH",
"268 388 OFFCURVE",
"307 461 OFFCURVE",
"345 506 CURVE SMOOTH",
"388 555 OFFCURVE",
"446 608 OFFCURVE",
"491 569 CURVE SMOOTH",
"511 551 OFFCURVE",
"516 586 OFFCURVE",
"506 596 CURVE SMOOTH"
);
},
{
closed = 1;
nodes = (
"552 805 OFFCURVE",
"499 808 OFFCURVE",
"495 796 CURVE SMOOTH",
"482 757 OFFCURVE",
"464 693 OFFCURVE",
"459 683 CURVE",
"459 681 OFFCURVE",
"491 681 OFFCURVE",
"493 683 CURVE",
"498 695 OFFCURVE",
"524 752 OFFCURVE",
"548 796 CURVE SMOOTH"
);
},
{
closed = 1;
nodes = (
"457 805 OFFCURVE",
"402 808 OFFCURVE",
"399 796 CURVE",
"385 757 OFFCURVE",
"367 693 OFFCURVE",
"363 683 CURVE",
"363 681 OFFCURVE",
"395 681 OFFCURVE",
"397 683 CURVE",
"400 695 OFFCURVE",
"428 752 OFFCURVE",
"451 796 CURVE"
);
}
);
width = 489;
}
);
note = Ohungarumlaut;
unicode = 0150;
},
{
color = 3;
glyphname = Omacron;
lastChange = "2021-05-07 03:34:56 +0000";
layers = (
{
hints = (
{
horizontal = 1;
place = "{5, 32}";
type = Stem;
},
{
horizontal = 1;
place = "{588, 29}";
type = Stem;
},
{
place = "{22, 120}";
type = Stem;
},
{
place = "{403, 89}";
type = Stem;
}
);
layerId = "C623C401-2266-4A98-B253-3D45160C29C7";
paths = (
{
closed = 1;
nodes = (
"489 615 OFFCURVE",
"441 623 OFFCURVE",
"396 620 CURVE SMOOTH",
"324 615 OFFCURVE",
"269 590 OFFCURVE",
"215 542 CURVE SMOOTH",
"103 442 OFFCURVE",
"33 261 OFFCURVE",
"42 126 CURVE SMOOTH",
"51 -31 OFFCURVE",
"233 -40 OFFCURVE",
"332 38 CURVE SMOOTH",
"394 86 OFFCURVE",
"448 169 OFFCURVE",
"483 245 CURVE SMOOTH",
"521 327 OFFCURVE",
"564 499 OFFCURVE",
"454 547 CURVE SMOOTH",
"433 556 OFFCURVE",
"416 550 OFFCURVE",
"429 535 CURVE SMOOTH",
"460 500 OFFCURVE",
"458 386 OFFCURVE",
"404 272 CURVE SMOOTH",
"328 112 OFFCURVE",
"253 27 OFFCURVE",
"199 27 CURVE SMOOTH",
"121 27 OFFCURVE",
"195 227 OFFCURVE",
"237 320 CURVE SMOOTH",
"268 388 OFFCURVE",
"307 461 OFFCURVE",
"345 506 CURVE SMOOTH",
"388 555 OFFCURVE",
"446 608 OFFCURVE",
"491 569 CURVE SMOOTH",
"511 551 OFFCURVE",
"516 586 OFFCURVE",
"506 596 CURVE SMOOTH"
);
},
{
closed = 1;
nodes = (
"379 730 LINE SMOOTH",
"368 730 OFFCURVE",
"332 688 OFFCURVE",
"347 688 CURVE SMOOTH",
"541 688 LINE SMOOTH",
"548 688 OFFCURVE",
"586 730 OFFCURVE",
"563 730 CURVE SMOOTH"
);
}
);
width = 489;
}
);
note = Omacron;
unicode = 014C;
},
{
color = 3;
glyphname = Oslash;
lastChange = "2021-05-07 03:34:56 +0000";
layers = (
{
hints = (
{
horizontal = 1;
place = "{-10, 38}";
type = Stem;
},
{
horizontal = 1;
place = "{574, 38}";
type = Stem;
},
{
place = "{473, 66}";
type = Stem;
},
{
horizontal = 1;
place = "{0, 21}";
target = up;
type = BottomGhost;
},
{
place = "{512, 41}";
type = Stem;
}
);
layerId = "C623C401-2266-4A98-B253-3D45160C29C7";
paths = (
{
closed = 1;
nodes = (
"501 663 OFFCURVE",
"515 656 OFFCURVE",
"512 655 CURVE",
"507 642 OFFCURVE",
"496 621 OFFCURVE",
"480 594 CURVE",
"459 608 OFFCURVE",
"433 612 OFFCURVE",
"405 612 CURVE SMOOTH",
"180 612 OFFCURVE",
"43 321 OFFCURVE",
"54 126 CURVE SMOOTH",
"57 80 OFFCURVE",
"75 47 OFFCURVE",
"101 24 CURVE",
"50 -48 LINE SMOOTH",
"16 -95 OFFCURVE",
"78 -79 OFFCURVE",
"86 -70 CURVE SMOOTH",
"99 -55 OFFCURVE",
"119 -30 OFFCURVE",
"143 0 CURVE",
"199 -20 OFFCURVE",
"271 -10 OFFCURVE",
"324 26 CURVE SMOOTH",
"392 73 OFFCURVE",
"452 163 OFFCURVE",
"490 246 CURVE SMOOTH",
"519 313 OFFCURVE",
"566 468 OFFCURVE",
"520 552 CURVE",
"554 611 OFFCURVE",
"573 663 OFFCURVE",
"521 663 CURVE SMOOTH"
);
},
{
closed = 1;
nodes = (
"194 28 OFFCURVE",
"185 36 OFFCURVE",
"180 50 CURVE",
"265 164 OFFCURVE",
"380 329 OFFCURVE",
"462 460 CURVE SMOOTH",
"473 477 LINE",
"465 415 OFFCURVE",
"440 336 OFFCURVE",
"411 274 CURVE SMOOTH",
"336 113 OFFCURVE",
"263 28 OFFCURVE",
"210 28 CURVE SMOOTH"
);
},
{
closed = 1;
nodes = (
"449 574 OFFCURVE",
"457 570 OFFCURVE",
"462 563 CURVE",
"398 457 OFFCURVE",
"284 289 OFFCURVE",
"185 144 CURVE",
"199 205 OFFCURVE",
"226 276 OFFCURVE",
"247 322 CURVE SMOOTH",
"270 375 OFFCURVE",
"369 574 OFFCURVE",
"440 574 CURVE SMOOTH"
);
}
);
width = 463;
}
);
note = Oslash;
unicode = 00D8;
},
{
color = 3;
glyphname = Otilde;
lastChange = "2021-05-07 03:34:56 +0000";
layers = (
{
hints = (
{
horizontal = 1;
place = "{5, 32}";
type = Stem;
},
{
horizontal = 1;
place = "{588, 29}";
type = Stem;
},
{
place = "{22, 120}";
type = Stem;
},
{
place = "{403, 89}";
type = Stem;
}
);
layerId = "C623C401-2266-4A98-B253-3D45160C29C7";
paths = (
{
closed = 1;
nodes = (
"489 615 OFFCURVE",
"441 623 OFFCURVE",
"396 620 CURVE SMOOTH",
"324 615 OFFCURVE",
"269 590 OFFCURVE",
"215 542 CURVE SMOOTH",
"103 442 OFFCURVE",
"33 261 OFFCURVE",
"42 126 CURVE SMOOTH",
"51 -31 OFFCURVE",
"233 -40 OFFCURVE",
"332 38 CURVE SMOOTH",
"394 86 OFFCURVE",
"448 169 OFFCURVE",
"483 245 CURVE SMOOTH",
"521 327 OFFCURVE",
"564 499 OFFCURVE",
"454 547 CURVE SMOOTH",
"433 556 OFFCURVE",
"416 550 OFFCURVE",
"429 535 CURVE SMOOTH",
"460 500 OFFCURVE",
"458 386 OFFCURVE",
"404 272 CURVE SMOOTH",
"328 112 OFFCURVE",
"253 27 OFFCURVE",
"199 27 CURVE SMOOTH",
"121 27 OFFCURVE",
"195 227 OFFCURVE",
"237 320 CURVE SMOOTH",
"268 388 OFFCURVE",
"307 461 OFFCURVE",
"345 506 CURVE SMOOTH",
"388 555 OFFCURVE",
"446 608 OFFCURVE",
"491 569 CURVE SMOOTH",
"511 551 OFFCURVE",
"516 586 OFFCURVE",
"506 596 CURVE SMOOTH"
);
},
{
closed = 1;
nodes = (
"605 740 OFFCURVE",
"594 756 OFFCURVE",
"590 750 CURVE SMOOTH",
"582 740 OFFCURVE",
"564 726 OFFCURVE",
"537 726 CURVE SMOOTH",
"493 726 OFFCURVE",
"462 752 OFFCURVE",
"418 752 CURVE SMOOTH",
"384 752 OFFCURVE",
"351 716 OFFCURVE",
"341 698 CURVE",
"339 692 OFFCURVE",
"355 679 OFFCURVE",
"358 685 CURVE SMOOTH",
"366 697 OFFCURVE",
"379 703 OFFCURVE",
"408 703 CURVE SMOOTH",
"449 703 OFFCURVE",
"483 677 OFFCURVE",
"526 677 CURVE SMOOTH",
"560 677 OFFCURVE",
"585 714 OFFCURVE",
"600 735 CURVE"
);
}
);
width = 489;
}
);
note = Otilde;
unicode = 00D5;
},
{
color = 3;
glyphname = OE;
lastChange = "2021-05-07 03:34:56 +0000";
layers = (
{
hints = (
{
horizontal = 1;
place = "{-10, 38}";
type = Stem;
},
{
horizontal = 1;
place = "{231, 56}";
type = Stem;
},
{
horizontal = 1;
place = "{574, 38}";
type = Stem;
},
{
place = "{54, 122}";
type = Stem;
},
{
horizontal = 1;
place = "{536, 83}";
type = Stem;
},
{
horizontal = 1;
place = "{23, 76}";
type = Stem;
}
);
layerId = "C623C401-2266-4A98-B253-3D45160C29C7";
paths = (
{
closed = 1;
nodes = (
"807 620 OFFCURVE",
"684 625 OFFCURVE",
"622 619 CURVE SMOOTH",
"574 614 OFFCURVE",
"543 626 OFFCURVE",
"520 572 CURVE",
"516 559 LINE",
"508 573 OFFCURVE",
"496 584 OFFCURVE",
"482 593 CURVE SMOOTH",
"461 608 OFFCURVE",
"434 612 OFFCURVE",
"405 612 CURVE SMOOTH",
"180 612 OFFCURVE",
"43 321 OFFCURVE",
"54 126 CURVE SMOOTH",
"63 -19 OFFCURVE",
"226 -41 OFFCURVE",
"324 26 CURVE SMOOTH",
"331 31 OFFCURVE",
"338 37 OFFCURVE",
"345 43 CURVE",
"361 9 OFFCURVE",
"398 -10 OFFCURVE",
"442 -1 CURVE SMOOTH",
"490 8 OFFCURVE",
"693 40 OFFCURVE",
"708 11 CURVE SMOOTH",
"710 6 OFFCURVE",
"715 7 OFFCURVE",
"715 14 CURVE SMOOTH",
"715 22 OFFCURVE",
"719 36 OFFCURVE",
"720 46 CURVE SMOOTH",
"727 112 OFFCURVE",
"545 103 OFFCURVE",
"448 90 CURVE",
"460 125 OFFCURVE",
"481 172 OFFCURVE",
"506 226 CURVE",
"525 227 LINE SMOOTH",
"616 233 OFFCURVE",
"707 233 OFFCURVE",
"718 221 CURVE SMOOTH",
"726 213 OFFCURVE",
"727 238 OFFCURVE",
"727 242 CURVE SMOOTH",
"727 274 OFFCURVE",
"625 285 OFFCURVE",
"534 287 CURVE",
"538 294 LINE SMOOTH",
"568 358 OFFCURVE",
"601 420 OFFCURVE",
"630 471 CURVE SMOOTH",
"644 496 OFFCURVE",
"657 518 OFFCURVE",
"668 536 CURVE",
"730 540 OFFCURVE",
"788 538 OFFCURVE",
"798 522 CURVE SMOOTH",
"801 518 OFFCURVE",
"806 519 OFFCURVE",
"805 526 CURVE SMOOTH",
"804 534 OFFCURVE",
"807 547 OFFCURVE",
"807 556 CURVE SMOOTH"
);
},
{
closed = 1;
nodes = (
"508 574 OFFCURVE",
"467 393 OFFCURVE",
"411 274 CURVE SMOOTH",
"336 113 OFFCURVE",
"263 28 OFFCURVE",
"210 28 CURVE SMOOTH",
"133 28 OFFCURVE",
"205 228 OFFCURVE",
"247 322 CURVE SMOOTH",
"270 375 OFFCURVE",
"369 574 OFFCURVE",
"440 574 CURVE SMOOTH"
);
}
);
width = 729;
}
);
note = OE;
unicode = 0152;
},
{
color = 3;
glyphname = P;
lastChange = "2021-05-07 03:34:56 +0000";
layers = (
{
hints = (
{
horizontal = 1;
place = "{195, 42}";
type = Stem;
},
{
horizontal = 1;
place = "{534, 75}";
type = Stem;
},
{
horizontal = 1;
place = "{596, -20}";
target = down;
type = TopGhost;
},
{
horizontal = 1;
place = "{609, -20}";
target = down;
type = TopGhost;
},
{
place = "{52, 94}";
type = Stem;
},
{
place = "{207, 46}";
type = Stem;
},
{
place = "{443, 110}";
type = Stem;
}
);
layerId = "C623C401-2266-4A98-B253-3D45160C29C7";
paths = (
{
closed = 1;
nodes = (
"275 241 OFFCURVE",
"248 243 OFFCURVE",
"244 247 CURVE",
"252 265 OFFCURVE",
"260 284 OFFCURVE",
"269 302 CURVE SMOOTH",
"297 361 OFFCURVE",
"340 456 OFFCURVE",
"383 505 CURVE SMOOTH",
"389 512 OFFCURVE",
"372 517 OFFCURVE",
"326 517 CURVE SMOOTH",
"284 517 OFFCURVE",
"250 504 OFFCURVE",
"225 465 CURVE SMOOTH",
"199 423 OFFCURVE",
"1 45 OFFCURVE",
"119 -12 CURVE SMOOTH",
"132 -18 OFFCURVE",
"155 -19 OFFCURVE",
"166 -24 CURVE SMOOTH",
"177 -29 OFFCURVE",
"180 -22 OFFCURVE",
"175 -15 CURVE SMOOTH",
"156 7 OFFCURVE",
"186 109 OFFCURVE",
"232 219 CURVE",
"246 204 OFFCURVE",
"321 214 OFFCURVE",
"350 223 CURVE SMOOTH",
"470 260 OFFCURVE",
"562 378 OFFCURVE",
"565 473 CURVE SMOOTH",
"568 553 OFFCURVE",
"505 614 OFFCURVE",
"368 614 CURVE SMOOTH",
"171 614 OFFCURVE",
"24 553 OFFCURVE",
"24 452 CURVE SMOOTH",
"24 417 OFFCURVE",
"81 405 OFFCURVE",
"89 404 CURVE",
"112 526 OFFCURVE",
"270 583 OFFCURVE",
"358 583 CURVE SMOOTH",
"561 583 OFFCURVE",
"378 241 OFFCURVE",
"286 241 CURVE SMOOTH"
);
}
);
width = 459;
}
);
note = P;
unicode = 0050;
},
{
color = 3;
glyphname = Thorn;
lastChange = "2021-05-07 03:34:56 +0000";
layers = (
{
hints = (
{
horizontal = 1;
place = "{151, 21}";
target = up;
type = BottomGhost;
},
{
horizontal = 1;
place = "{584, -20}";
target = down;
type = TopGhost;
},
{
horizontal = 1;
place = "{588, -20}";
target = down;
type = TopGhost;
},
{
place = "{-14, 97}";
type = Stem;
},
{
place = "{194, 100}";
type = Stem;
},
{
place = "{342, 128}";
type = Stem;
}
);
layerId = "C623C401-2266-4A98-B253-3D45160C29C7";
paths = (
{
closed = 1;
nodes = (
"430 550 OFFCURVE",
"406 557 OFFCURVE",
"388 543 CURVE SMOOTH",
"368 527 OFFCURVE",
"300 407 OFFCURVE",
"263 358 CURVE",
"282 395 OFFCURVE",
"362 567 OFFCURVE",
"368 585 CURVE SMOOTH",
"382 624 OFFCURVE",
"374 683 OFFCURVE",
"278 694 CURVE SMOOTH",
"268 695 OFFCURVE",
"266 692 OFFCURVE",
"270 687 CURVE SMOOTH",
"281 672 OFFCURVE",
"264 624 OFFCURVE",
"254 599 CURVE SMOOTH",
"231 540 OFFCURVE",
"15 112 OFFCURVE",
"16 52 CURVE SMOOTH",
"17 21 OFFCURVE",
"30 -5 OFFCURVE",
"70 -12 CURVE SMOOTH",
"84 -14 OFFCURVE",
"98 -18 OFFCURVE",
"109 -23 CURVE SMOOTH",
"119 -28 OFFCURVE",
"122 -22 OFFCURVE",
"117 -16 CURVE SMOOTH",
"102 0 OFFCURVE",
"125 96 OFFCURVE",
"179 191 CURVE SMOOTH",
"181 194 LINE",
"196 143 OFFCURVE",
"215 116 OFFCURVE",
"256 116 CURVE SMOOTH",
"304 116 OFFCURVE",
"339 147 OFFCURVE",
"366 186 CURVE SMOOTH",
"405 244 OFFCURVE",
"541 510 OFFCURVE",
"461 539 CURVE SMOOTH"
);
},
{
closed = 1;
nodes = (
"354 438 OFFCURVE",
"332 367 OFFCURVE",
"310 321 CURVE SMOOTH",
"286 272 OFFCURVE",
"239 148 OFFCURVE",
"222 156 CURVE SMOOTH",
"210 162 OFFCURVE",
"199 189 OFFCURVE",
"191 212 CURVE",
"233 284 OFFCURVE",
"317 415 OFFCURVE",
"357 467 CURVE"
);
}
);
width = 372;
}
);
note = Thorn;
unicode = 00DE;
},
{
color = 3;
glyphname = Q;
lastChange = "2021-05-07 03:34:56 +0000";
layers = (
{
hints = (
{
horizontal = 1;
place = "{-183, 21}";
target = up;
type = BottomGhost;
},
{
horizontal = 1;
place = "{5, 32}";
type = Stem;
},
{
horizontal = 1;
place = "{5, 108}";
type = Stem;
},
{
horizontal = 1;
place = "{588, 29}";
type = Stem;
},
{
place = "{62, 120}";
type = Stem;
},
{
place = "{443, 89}";
type = Stem;
}
);
layerId = "C623C401-2266-4A98-B253-3D45160C29C7";
paths = (
{
closed = 1;
nodes = (
"494 617 OFFCURVE",
"447 625 OFFCURVE",
"404 622 CURVE SMOOTH",
"333 618 OFFCURVE",
"280 592 OFFCURVE",
"227 545 CURVE SMOOTH",
"118 447 OFFCURVE",
"51 268 OFFCURVE",
"59 135 CURVE SMOOTH",
"68 -18 OFFCURVE",
"244 -29 OFFCURVE",
"340 48 CURVE SMOOTH",
"401 96 OFFCURVE",
"455 177 OFFCURVE",
"489 252 CURVE SMOOTH",
"525 333 OFFCURVE",
"567 503 OFFCURVE",
"460 550 CURVE SMOOTH",
"439 559 OFFCURVE",
"423 553 OFFCURVE",
"436 538 CURVE SMOOTH",
"466 504 OFFCURVE",
"464 392 OFFCURVE",
"411 279 CURVE SMOOTH",
"338 122 OFFCURVE",
"265 38 OFFCURVE",
"212 38 CURVE SMOOTH",
"136 38 OFFCURVE",
"208 235 OFFCURVE",
"249 327 CURVE SMOOTH",
"279 394 OFFCURVE",
"317 465 OFFCURVE",
"354 509 CURVE SMOOTH",
"396 558 OFFCURVE",
"453 610 OFFCURVE",
"497 572 CURVE SMOOTH",
"516 554 OFFCURVE",
"520 589 OFFCURVE",
"511 599 CURVE SMOOTH"
);
},
{
closed = 1;
nodes = (
"395 -112 OFFCURVE",
"368 -119 OFFCURVE",
"346 -108 CURVE SMOOTH",
"282 -75 OFFCURVE",
"226 -20 OFFCURVE",
"155 -7 CURVE SMOOTH",
"101 2 OFFCURVE",
"62 -17 OFFCURVE",
"57 -53 CURVE SMOOTH",
"57 -56 OFFCURVE",
"58 -60 OFFCURVE",
"63 -56 CURVE SMOOTH",
"88 -35 OFFCURVE",
"135 -61 OFFCURVE",
"149 -71 CURVE SMOOTH",
"173 -89 OFFCURVE",
"228 -157 OFFCURVE",
"281 -189 CURVE SMOOTH",
"388 -254 OFFCURVE",
"446 -140 OFFCURVE",
"412 -87 CURVE"
);
}
);
width = 469;
}
);
note = Q;
unicode = 0051;
},
{
color = 3;
glyphname = R;
lastChange = "2021-05-07 03:34:56 +0000";
layers = (
{
hints = (
{
horizontal = 1;
place = "{-15, 21}";
target = up;
type = BottomGhost;
},
{
horizontal = 1;
place = "{294, 10}";
type = Stem;
},
{
horizontal = 1;
place = "{425, -20}";
target = down;
type = TopGhost;
},
{
horizontal = 1;
place = "{608, -20}";
target = down;
type = TopGhost;
},
{
place = "{49, 94}";
type = Stem;
},
{
place = "{244, 11}";
type = Stem;
},
{
place = "{324, 10}";
type = Stem;
},
{
place = "{414, 132}";
type = Stem;
}
);
layerId = "C623C401-2266-4A98-B253-3D45160C29C7";
paths = (
{
closed = 1;
nodes = (
"487 -26 OFFCURVE",
"374 174 OFFCURVE",
"350 223 CURVE",
"470 260 OFFCURVE",
"562 378 OFFCURVE",
"565 473 CURVE SMOOTH",
"568 553 OFFCURVE",
"505 614 OFFCURVE",
"368 614 CURVE SMOOTH",
"171 614 OFFCURVE",
"24 553 OFFCURVE",
"24 452 CURVE SMOOTH",
"24 417 OFFCURVE",
"81 405 OFFCURVE",
"89 404 CURVE",
"112 526 OFFCURVE",
"270 583 OFFCURVE",
"358 583 CURVE SMOOTH",
"561 583 OFFCURVE",
"378 241 OFFCURVE",
"286 241 CURVE SMOOTH",
"275 241 OFFCURVE",
"268 243 OFFCURVE",
"264 247 CURVE",
"299 344 OFFCURVE",
"351 453 OFFCURVE",
"409 526 CURVE SMOOTH",
"415 533 OFFCURVE",
"398 538 OFFCURVE",
"352 538 CURVE SMOOTH",
"310 538 OFFCURVE",
"273 523 OFFCURVE",
"248 484 CURVE SMOOTH",
"222 442 OFFCURVE",
"21 45 OFFCURVE",
"139 -12 CURVE SMOOTH",
"152 -18 OFFCURVE",
"175 -19 OFFCURVE",
"186 -24 CURVE SMOOTH",
"197 -29 OFFCURVE",
"200 -22 OFFCURVE",
"195 -15 CURVE SMOOTH",
"176 7 OFFCURVE",
"206 109 OFFCURVE",
"252 219 CURVE",
"255 215 OFFCURVE",
"259 212 OFFCURVE",
"264 209 CURVE",
"274 144 OFFCURVE",
"325 -88 OFFCURVE",
"440 -87 CURVE SMOOTH",
"512 -86 OFFCURVE",
"548 -10 OFFCURVE",
"536 -13 CURVE SMOOTH"
);
}
);
width = 496;
}
);
note = R;
unicode = 0052;
},
{
color = 3;
glyphname = Racute;
lastChange = "2021-05-07 03:34:56 +0000";
layers = (
{
hints = (
{
horizontal = 1;
place = "{-15, 21}";
target = up;
type = BottomGhost;
},
{
horizontal = 1;
place = "{294, 10}";
type = Stem;
},
{
horizontal = 1;
place = "{425, -20}";
target = down;
type = TopGhost;
},
{
horizontal = 1;
place = "{608, -20}";
target = down;
type = TopGhost;
},
{
place = "{49, 94}";
type = Stem;
},
{
place = "{244, 11}";
type = Stem;
},
{
place = "{324, 10}";
type = Stem;
},
{
place = "{414, 132}";
type = Stem;
}
);
layerId = "C623C401-2266-4A98-B253-3D45160C29C7";
paths = (
{
closed = 1;
nodes = (
"487 -26 OFFCURVE",
"374 174 OFFCURVE",
"350 223 CURVE",
"470 260 OFFCURVE",
"562 378 OFFCURVE",
"565 473 CURVE SMOOTH",
"568 553 OFFCURVE",
"505 614 OFFCURVE",
"368 614 CURVE SMOOTH",
"171 614 OFFCURVE",
"24 553 OFFCURVE",
"24 452 CURVE SMOOTH",
"24 417 OFFCURVE",
"81 405 OFFCURVE",
"89 404 CURVE",
"112 526 OFFCURVE",
"270 583 OFFCURVE",
"358 583 CURVE SMOOTH",
"561 583 OFFCURVE",
"378 241 OFFCURVE",
"286 241 CURVE SMOOTH",
"275 241 OFFCURVE",
"268 243 OFFCURVE",
"264 247 CURVE",
"299 344 OFFCURVE",
"351 453 OFFCURVE",
"409 526 CURVE SMOOTH",
"415 533 OFFCURVE",
"398 538 OFFCURVE",
"352 538 CURVE SMOOTH",
"310 538 OFFCURVE",
"273 523 OFFCURVE",
"248 484 CURVE SMOOTH",
"222 442 OFFCURVE",
"21 45 OFFCURVE",
"139 -12 CURVE SMOOTH",
"152 -18 OFFCURVE",
"175 -19 OFFCURVE",
"186 -24 CURVE SMOOTH",
"197 -29 OFFCURVE",
"200 -22 OFFCURVE",
"195 -15 CURVE SMOOTH",
"176 7 OFFCURVE",
"206 109 OFFCURVE",
"252 219 CURVE",
"255 215 OFFCURVE",
"259 212 OFFCURVE",
"264 209 CURVE",
"274 144 OFFCURVE",
"325 -88 OFFCURVE",
"440 -87 CURVE SMOOTH",
"512 -86 OFFCURVE",
"548 -10 OFFCURVE",
"536 -13 CURVE SMOOTH"
);
},
{
closed = 1;
nodes = (
"400 697 OFFCURVE",
"444 678 OFFCURVE",
"452 680 CURVE SMOOTH",
"473 686 OFFCURVE",
"579 714 OFFCURVE",
"615 722 CURVE SMOOTH",
"631 725 OFFCURVE",
"551 765 OFFCURVE",
"537 757 CURVE SMOOTH",
"512 744 OFFCURVE",
"438 712 OFFCURVE",
"411 701 CURVE SMOOTH"
);
}
);
width = 496;
}
);
note = Racute;
unicode = 0154;
},
{
color = 3;
glyphname = Rcaron;
lastChange = "2021-05-07 03:34:56 +0000";
layers = (
{
hints = (
{
horizontal = 1;
place = "{-15, 21}";
target = up;
type = BottomGhost;
},
{
horizontal = 1;
place = "{294, 10}";
type = Stem;
},
{
horizontal = 1;
place = "{425, -20}";
target = down;
type = TopGhost;
},
{
horizontal = 1;
place = "{608, -20}";
target = down;
type = TopGhost;
},
{
place = "{49, 94}";
type = Stem;
},
{
place = "{244, 11}";
type = Stem;
},
{
place = "{324, 10}";
type = Stem;
},
{
place = "{414, 132}";
type = Stem;
}
);
layerId = "C623C401-2266-4A98-B253-3D45160C29C7";
paths = (
{
closed = 1;
nodes = (
"487 -26 OFFCURVE",
"374 174 OFFCURVE",
"350 223 CURVE",
"470 260 OFFCURVE",
"562 378 OFFCURVE",
"565 473 CURVE SMOOTH",
"568 553 OFFCURVE",
"505 614 OFFCURVE",
"368 614 CURVE SMOOTH",
"171 614 OFFCURVE",
"24 553 OFFCURVE",
"24 452 CURVE SMOOTH",
"24 417 OFFCURVE",
"81 405 OFFCURVE",
"89 404 CURVE",
"112 526 OFFCURVE",
"270 583 OFFCURVE",
"358 583 CURVE SMOOTH",
"561 583 OFFCURVE",
"378 241 OFFCURVE",
"286 241 CURVE SMOOTH",
"275 241 OFFCURVE",
"268 243 OFFCURVE",
"264 247 CURVE",
"299 344 OFFCURVE",
"351 453 OFFCURVE",
"409 526 CURVE SMOOTH",
"415 533 OFFCURVE",
"398 538 OFFCURVE",
"352 538 CURVE SMOOTH",
"310 538 OFFCURVE",
"273 523 OFFCURVE",
"248 484 CURVE SMOOTH",
"222 442 OFFCURVE",
"21 45 OFFCURVE",
"139 -12 CURVE SMOOTH",
"152 -18 OFFCURVE",
"175 -19 OFFCURVE",
"186 -24 CURVE SMOOTH",
"197 -29 OFFCURVE",
"200 -22 OFFCURVE",
"195 -15 CURVE SMOOTH",
"176 7 OFFCURVE",
"206 109 OFFCURVE",
"252 219 CURVE",
"255 215 OFFCURVE",
"259 212 OFFCURVE",
"264 209 CURVE",
"274 144 OFFCURVE",
"325 -88 OFFCURVE",
"440 -87 CURVE SMOOTH",
"512 -86 OFFCURVE",
"548 -10 OFFCURVE",
"536 -13 CURVE SMOOTH"
);
},
{
closed = 1;
nodes = (
"603 757 LINE SMOOTH",
"609 761 OFFCURVE",
"547 762 OFFCURVE",
"543 758 CURVE SMOOTH",
"480 687 LINE",
"451 761 LINE SMOOTH",
"450 765 OFFCURVE",
"389 763 OFFCURVE",
"393 757 CURVE SMOOTH",
"447 659 LINE",
"454 653 OFFCURVE",
"477 656 OFFCURVE",
"484 660 CURVE"
);
}
);
width = 496;
}
);
note = Rcaron;
unicode = 0158;
},
{
color = 3;
glyphname = S;
lastChange = "2021-05-07 03:34:56 +0000";
layers = (
{
hints = (
{
horizontal = 1;
place = "{-24, 30}";
type = Stem;
},
{
horizontal = 1;
place = "{545, 75}";
type = Stem;
},
{
place = "{20, 78}";
type = Stem;
},
{
place = "{142, 151}";
type = Stem;
},
{
place = "{399, 29}";
type = Stem;
},
{
horizontal = 1;
place = "{545, 45}";
type = Stem;
},
{
place = "{315, 109}";
type = Stem;
}
);
layerId = "C623C401-2266-4A98-B253-3D45160C29C7";
paths = (
{
closed = 1;
nodes = (
"395 461 OFFCURVE",
"387 336 OFFCURVE",
"428 356 CURVE",
"432 412 OFFCURVE",
"463 470 OFFCURVE",
"492 513 CURVE SMOOTH",
"507 535 OFFCURVE",
"526 557 OFFCURVE",
"553 583 CURVE SMOOTH",
"594 621 OFFCURVE",
"497 650 OFFCURVE",
"440 568 CURVE",
"425 574 LINE SMOOTH",
"387 587 OFFCURVE",
"342 591 OFFCURVE",
"312 590 CURVE SMOOTH",
"215 585 OFFCURVE",
"141 525 OFFCURVE",
"142 420 CURVE SMOOTH",
"142 375 OFFCURVE",
"163 332 OFFCURVE",
"190 292 CURVE SMOOTH",
"243 212 OFFCURVE",
"323 134 OFFCURVE",
"315 52 CURVE SMOOTH",
"307 -38 OFFCURVE",
"166 11 OFFCURVE",
"124 134 CURVE SMOOTH",
"103 196 OFFCURVE",
"91 274 OFFCURVE",
"103 304 CURVE",
"6 287 OFFCURVE",
"7 142 OFFCURVE",
"39 75 CURVE SMOOTH",
"74 4 OFFCURVE",
"154 -24 OFFCURVE",
"232 -24 CURVE SMOOTH",
"392 -24 OFFCURVE",
"477 78 OFFCURVE",
"389 225 CURVE SMOOTH",
"339 307 OFFCURVE",
"262 393 OFFCURVE",
"306 481 CURVE SMOOTH",
"350 567 OFFCURVE",
"401 548 OFFCURVE",
"421 530 CURVE"
);
}
);
width = 442;
}
);
note = S;
unicode = 0053;
},
{
color = 3;
glyphname = Sacute;
lastChange = "2021-05-07 03:34:56 +0000";
layers = (
{
hints = (
{
horizontal = 1;
place = "{-24, 30}";
type = Stem;
},
{
horizontal = 1;
place = "{545, 75}";
type = Stem;
},
{
place = "{20, 78}";
type = Stem;
},
{
place = "{142, 151}";
type = Stem;
},
{
place = "{399, 29}";
type = Stem;
},
{
horizontal = 1;
place = "{545, 45}";
type = Stem;
},
{
place = "{315, 109}";
type = Stem;
}
);
layerId = "C623C401-2266-4A98-B253-3D45160C29C7";
paths = (
{
closed = 1;
nodes = (
"395 461 OFFCURVE",
"387 336 OFFCURVE",
"428 356 CURVE",
"432 412 OFFCURVE",
"463 470 OFFCURVE",
"492 513 CURVE SMOOTH",
"507 535 OFFCURVE",
"526 557 OFFCURVE",
"553 583 CURVE SMOOTH",
"594 621 OFFCURVE",
"497 650 OFFCURVE",
"440 568 CURVE",
"425 574 LINE SMOOTH",
"387 587 OFFCURVE",
"342 591 OFFCURVE",
"312 590 CURVE SMOOTH",
"215 585 OFFCURVE",
"141 525 OFFCURVE",
"142 420 CURVE SMOOTH",
"142 375 OFFCURVE",
"163 332 OFFCURVE",
"190 292 CURVE SMOOTH",
"243 212 OFFCURVE",
"323 134 OFFCURVE",
"315 52 CURVE SMOOTH",
"307 -38 OFFCURVE",
"166 11 OFFCURVE",
"124 134 CURVE SMOOTH",
"103 196 OFFCURVE",
"91 274 OFFCURVE",
"103 304 CURVE",
"6 287 OFFCURVE",
"7 142 OFFCURVE",
"39 75 CURVE SMOOTH",
"74 4 OFFCURVE",
"154 -24 OFFCURVE",
"232 -24 CURVE SMOOTH",
"392 -24 OFFCURVE",
"477 78 OFFCURVE",
"389 225 CURVE SMOOTH",
"339 307 OFFCURVE",
"262 393 OFFCURVE",
"306 481 CURVE SMOOTH",
"350 567 OFFCURVE",
"401 548 OFFCURVE",
"421 530 CURVE"
);
},
{
closed = 1;
nodes = (
"342 703 OFFCURVE",
"386 684 OFFCURVE",
"394 686 CURVE SMOOTH",
"415 692 OFFCURVE",
"521 720 OFFCURVE",
"557 728 CURVE SMOOTH",
"573 731 OFFCURVE",
"493 771 OFFCURVE",
"479 763 CURVE SMOOTH",
"454 750 OFFCURVE",
"380 718 OFFCURVE",
"353 707 CURVE SMOOTH"
);
}
);
width = 442;
}
);
note = Sacute;
unicode = 015A;
},
{
color = 3;
glyphname = Scaron;
lastChange = "2021-05-07 03:34:56 +0000";
layers = (
{
hints = (
{
horizontal = 1;
place = "{-24, 30}";
type = Stem;
},
{
horizontal = 1;
place = "{545, 75}";
type = Stem;
},
{
horizontal = 1;
place = "{653, 31}";
type = Stem;
},
{
place = "{20, 78}";
type = Stem;
},
{
place = "{142, 151}";
type = Stem;
},
{
place = "{399, 29}";
type = Stem;
},
{
horizontal = 1;
place = "{545, 45}";
type = Stem;
},
{
place = "{315, 109}";
type = Stem;
}
);
layerId = "C623C401-2266-4A98-B253-3D45160C29C7";
paths = (
{
closed = 1;
nodes = (
"395 461 OFFCURVE",
"387 336 OFFCURVE",
"428 356 CURVE",
"432 412 OFFCURVE",
"463 470 OFFCURVE",
"492 513 CURVE SMOOTH",
"507 535 OFFCURVE",
"526 557 OFFCURVE",
"553 583 CURVE SMOOTH",
"594 621 OFFCURVE",
"497 650 OFFCURVE",
"440 568 CURVE",
"425 574 LINE SMOOTH",
"387 587 OFFCURVE",
"342 591 OFFCURVE",
"312 590 CURVE SMOOTH",
"215 585 OFFCURVE",
"141 525 OFFCURVE",
"142 420 CURVE SMOOTH",
"142 375 OFFCURVE",
"163 332 OFFCURVE",
"190 292 CURVE SMOOTH",
"243 212 OFFCURVE",
"323 134 OFFCURVE",
"315 52 CURVE SMOOTH",
"307 -38 OFFCURVE",
"166 11 OFFCURVE",
"124 134 CURVE SMOOTH",
"103 196 OFFCURVE",
"91 274 OFFCURVE",
"103 304 CURVE",
"6 287 OFFCURVE",
"7 142 OFFCURVE",
"39 75 CURVE SMOOTH",
"74 4 OFFCURVE",
"154 -24 OFFCURVE",
"232 -24 CURVE SMOOTH",
"392 -24 OFFCURVE",
"477 78 OFFCURVE",
"389 225 CURVE SMOOTH",
"339 307 OFFCURVE",
"262 393 OFFCURVE",
"306 481 CURVE SMOOTH",
"350 567 OFFCURVE",
"401 548 OFFCURVE",
"421 530 CURVE"
);
},
{
closed = 1;
nodes = (
"541 754 LINE SMOOTH",
"547 758 OFFCURVE",
"485 759 OFFCURVE",
"481 755 CURVE SMOOTH",
"418 684 LINE",
"389 758 LINE SMOOTH",
"388 762 OFFCURVE",
"327 760 OFFCURVE",
"331 754 CURVE SMOOTH",
"385 656 LINE",
"392 650 OFFCURVE",
"415 653 OFFCURVE",
"422 657 CURVE"
);
}
);
width = 442;
}
);
note = Scaron;
unicode = 0160;
},
{
color = 3;
glyphname = Schwa;
lastChange = "2021-05-07 03:34:56 +0000";
layers = (
{
hints = (
{
horizontal = 1;
place = "{612.751, -51.187}";
type = Stem;
},
{
horizontal = 1;
place = "{44.165, -47.036}";
type = Stem;
},
{
place = "{567.876, -168.777}";
type = Stem;
}
);
layerId = "C623C401-2266-4A98-B253-3D45160C29C7";
paths = (
{
closed = 1;
nodes = (
"286 613 OFFCURVE",
"222 580 OFFCURVE",
"161 509 CURVE SMOOTH",
"105 448 OFFCURVE",
"61 357 OFFCURVE",
"35 308 CURVE SMOOTH",
"23 288 OFFCURVE",
"43.766 266.896 OFFCURVE",
"55.191 290.414 CURVE SMOOTH",
"142 459 OFFCURVE",
"237 559 OFFCURVE",
"354 559 CURVE SMOOTH",
"469 559 OFFCURVE",
"470 473 OFFCURVE",
"425 354 CURVE",
"298 344 OFFCURVE",
"145.161 275.197 OFFCURVE",
"90.893 175.59 CURVE SMOOTH",
"15.204 42.782 OFFCURVE",
"93.75 -5.638 OFFCURVE",
"188 -6 CURVE SMOOTH",
"370.8 -5.638 OFFCURVE",
"492.187 174.207 OFFCURVE",
"542.171 322.233 CURVE SMOOTH",
"597.866 485.477 OFFCURVE",
"561 612 OFFCURVE",
"369.371 612.751 CURVE SMOOTH"
);
},
{
closed = 1;
nodes = (
"395 288 LINE SMOOTH",
"375 244 OFFCURVE",
"318 116 OFFCURVE",
"271 64 CURVE SMOOTH",
"222 4 OFFCURVE",
"148 27 OFFCURVE",
"165 103 CURVE SMOOTH",
"188 202 OFFCURVE",
"329 298 OFFCURVE",
"414 329 CURVE"
);
}
);
width = 566;
}
);
unicode = 018F;
},
{
color = 3;
glyphname = T;
lastChange = "2021-05-07 03:34:56 +0000";
layers = (
{
hints = (
{
horizontal = 1;
place = "{525, 71}";
type = Stem;
},
{
horizontal = 1;
place = "{525, 89}";
type = Stem;
},
{
place = "{104, 93}";
type = Stem;
}
);
layerId = "C623C401-2266-4A98-B253-3D45160C29C7";
paths = (
{
closed = 1;
nodes = (
"502 531 OFFCURVE",
"575 524 OFFCURVE",
"585 508 CURVE SMOOTH",
"588 503 OFFCURVE",
"594 504 OFFCURVE",
"593 512 CURVE SMOOTH",
"592 520 OFFCURVE",
"595 535 OFFCURVE",
"595 545 CURVE SMOOTH",
"595 642 OFFCURVE",
"241 613 OFFCURVE",
"184 602 CURVE SMOOTH",
"-21 561 OFFCURVE",
"58 360 OFFCURVE",
"134 376 CURVE",
"140 378 OFFCURVE",
"151 387 OFFCURVE",
"135 400 CURVE SMOOTH",
"54 467 OFFCURVE",
"189 502 OFFCURVE",
"274 516 CURVE",
"225 431 OFFCURVE",
"16 33 OFFCURVE",
"147 -12 CURVE SMOOTH",
"161 -16 OFFCURVE",
"183 -19 OFFCURVE",
"194 -24 CURVE SMOOTH",
"205 -29 OFFCURVE",
"208 -22 OFFCURVE",
"203 -15 CURVE SMOOTH",
"177 16 OFFCURVE",
"235 178 OFFCURVE",
"302 317 CURVE SMOOTH",
"344 403 OFFCURVE",
"389 479 OFFCURVE",
"421 529 CURVE"
);
}
);
width = 387;
}
);
note = T;
unicode = 0054;
},
{
color = 3;
glyphname = Tcaron;
lastChange = "2021-05-07 03:34:56 +0000";
layers = (
{
hints = (
{
horizontal = 1;
place = "{525, 71}";
type = Stem;
},
{
horizontal = 1;
place = "{525, 89}";
type = Stem;
},
{
place = "{104, 93}";
type = Stem;
}
);
layerId = "C623C401-2266-4A98-B253-3D45160C29C7";
paths = (
{
closed = 1;
nodes = (
"502 531 OFFCURVE",
"575 524 OFFCURVE",
"585 508 CURVE SMOOTH",
"588 503 OFFCURVE",
"594 504 OFFCURVE",
"593 512 CURVE SMOOTH",
"592 520 OFFCURVE",
"595 535 OFFCURVE",
"595 545 CURVE SMOOTH",
"595 642 OFFCURVE",
"241 613 OFFCURVE",
"184 602 CURVE SMOOTH",
"-21 561 OFFCURVE",
"58 360 OFFCURVE",
"134 376 CURVE",
"140 378 OFFCURVE",
"151 387 OFFCURVE",
"135 400 CURVE SMOOTH",
"54 467 OFFCURVE",
"189 502 OFFCURVE",
"274 516 CURVE",
"225 431 OFFCURVE",
"16 33 OFFCURVE",
"147 -12 CURVE SMOOTH",
"161 -16 OFFCURVE",
"183 -19 OFFCURVE",
"194 -24 CURVE SMOOTH",
"205 -29 OFFCURVE",
"208 -22 OFFCURVE",
"203 -15 CURVE SMOOTH",
"177 16 OFFCURVE",
"235 178 OFFCURVE",
"302 317 CURVE SMOOTH",
"344 403 OFFCURVE",
"389 479 OFFCURVE",
"421 529 CURVE"
);
},
{
closed = 1;
nodes = (
"543 766 LINE SMOOTH",
"549 770 OFFCURVE",
"487 771 OFFCURVE",
"483 767 CURVE SMOOTH",
"420 696 LINE",
"391 770 LINE SMOOTH",
"390 774 OFFCURVE",
"329 772 OFFCURVE",
"333 766 CURVE SMOOTH",
"387 668 LINE",
"394 662 OFFCURVE",
"417 665 OFFCURVE",
"424 669 CURVE"
);
}
);
width = 387;
}
);
note = Tcaron;
unicode = 0164;
},
{
color = 3;
glyphname = U;
lastChange = "2021-05-07 03:34:56 +0000";
layers = (
{
hints = (
{
horizontal = 1;
place = "{-14, 21}";
target = up;
type = BottomGhost;
},
{
horizontal = 1;
place = "{601, -20}";
target = down;
type = TopGhost;
},
{
place = "{63, 124}";
type = Stem;
},
{
place = "{317, 118}";
type = Stem;
},
{
horizontal = 1;
place = "{596, -20}";
target = down;
type = TopGhost;
}
);
layerId = "C623C401-2266-4A98-B253-3D45160C29C7";
paths = (
{
closed = 1;
nodes = (
"428 201 OFFCURVE",
"419 170 OFFCURVE",
"412 140 CURVE SMOOTH",
"386 28 OFFCURVE",
"415 -53 OFFCURVE",
"528 -13 CURVE",
"504 15 OFFCURVE",
"542 176 OFFCURVE",
"607 314 CURVE SMOOTH",
"646 396 OFFCURVE",
"697 505 OFFCURVE",
"750 578 CURVE SMOOTH",
"758 589 OFFCURVE",
"738 598 OFFCURVE",
"692 597 CURVE SMOOTH",
"627 594 OFFCURVE",
"612 586 OFFCURVE",
"575 523 CURVE SMOOTH",
"567 510 OFFCURVE",
"552 479 OFFCURVE",
"530 440 CURVE SMOOTH",
"482 355 OFFCURVE",
"391 202 OFFCURVE",
"362 161 CURVE SMOOTH",
"324 110 OFFCURVE",
"249 37 OFFCURVE",
"268 122 CURVE SMOOTH",
"298 254 OFFCURVE",
"389 384 OFFCURVE",
"472 491 CURVE SMOOTH",
"497 522 OFFCURVE",
"514 554 OFFCURVE",
"507 576 CURVE SMOOTH",
"501 596 OFFCURVE",
"485 622 OFFCURVE",
"462 627 CURVE SMOOTH",
"390 641 OFFCURVE",
"193 499 OFFCURVE",
"128 499 CURVE SMOOTH",
"110 499 OFFCURVE",
"98 506 OFFCURVE",
"107 523 CURVE SMOOTH",
"120 546 OFFCURVE",
"92 542 OFFCURVE",
"79 523 CURVE SMOOTH",
"40 464 OFFCURVE",
"14 391 OFFCURVE",
"49 378 CURVE SMOOTH",
"152 338 OFFCURVE",
"282 530 OFFCURVE",
"345 553 CURVE SMOOTH",
"373 562 OFFCURVE",
"324 473 OFFCURVE",
"316 460 CURVE SMOOTH",
"232 327 OFFCURVE",
"160 199 OFFCURVE",
"143 125 CURVE SMOOTH",
"126 51 OFFCURVE",
"153 8 OFFCURVE",
"204 -9 CURVE SMOOTH",
"255 -27 OFFCURVE",
"303 11 OFFCURVE",
"337 64 CURVE SMOOTH",
"354 91 OFFCURVE",
"397 161 OFFCURVE",
"439 232 CURVE"
);
}
);
width = 587;
}
);
note = U;
unicode = 0055;
},
{
color = 3;
glyphname = Uacute;
lastChange = "2021-05-07 03:34:56 +0000";
layers = (
{
hints = (
{
horizontal = 1;
place = "{-14, 21}";
target = up;
type = BottomGhost;
},
{
horizontal = 1;
place = "{601, -20}";
target = down;
type = TopGhost;
},
{
place = "{63, 124}";
type = Stem;
},
{
place = "{317, 118}";
type = Stem;
},
{
horizontal = 1;
place = "{596, -20}";
target = down;
type = TopGhost;
}
);
layerId = "C623C401-2266-4A98-B253-3D45160C29C7";
paths = (
{
closed = 1;
nodes = (
"428 201 OFFCURVE",
"419 170 OFFCURVE",
"412 140 CURVE SMOOTH",
"386 28 OFFCURVE",
"415 -53 OFFCURVE",
"528 -13 CURVE",
"504 15 OFFCURVE",
"542 176 OFFCURVE",
"607 314 CURVE SMOOTH",
"646 396 OFFCURVE",
"697 505 OFFCURVE",
"750 578 CURVE SMOOTH",
"758 589 OFFCURVE",
"738 598 OFFCURVE",
"692 597 CURVE SMOOTH",
"627 594 OFFCURVE",
"612 586 OFFCURVE",
"575 523 CURVE SMOOTH",
"567 510 OFFCURVE",
"552 479 OFFCURVE",
"530 440 CURVE SMOOTH",
"482 355 OFFCURVE",
"391 202 OFFCURVE",
"362 161 CURVE SMOOTH",
"324 110 OFFCURVE",
"249 37 OFFCURVE",
"268 122 CURVE SMOOTH",
"298 254 OFFCURVE",
"389 384 OFFCURVE",
"472 491 CURVE SMOOTH",
"497 522 OFFCURVE",
"514 554 OFFCURVE",
"507 576 CURVE SMOOTH",
"501 596 OFFCURVE",
"485 622 OFFCURVE",
"462 627 CURVE SMOOTH",
"390 641 OFFCURVE",
"193 499 OFFCURVE",
"128 499 CURVE SMOOTH",
"110 499 OFFCURVE",
"98 506 OFFCURVE",
"107 523 CURVE SMOOTH",
"120 546 OFFCURVE",
"92 542 OFFCURVE",
"79 523 CURVE SMOOTH",
"40 464 OFFCURVE",
"14 391 OFFCURVE",
"49 378 CURVE SMOOTH",
"152 338 OFFCURVE",
"282 530 OFFCURVE",
"345 553 CURVE SMOOTH",
"373 562 OFFCURVE",
"324 473 OFFCURVE",
"316 460 CURVE SMOOTH",
"232 327 OFFCURVE",
"160 199 OFFCURVE",
"143 125 CURVE SMOOTH",
"126 51 OFFCURVE",
"153 8 OFFCURVE",
"204 -9 CURVE SMOOTH",
"255 -27 OFFCURVE",
"303 11 OFFCURVE",
"337 64 CURVE SMOOTH",
"354 91 OFFCURVE",
"397 161 OFFCURVE",
"439 232 CURVE"
);
},
{
closed = 1;
nodes = (
"539 709 OFFCURVE",
"583 690 OFFCURVE",
"591 692 CURVE SMOOTH",
"612 698 OFFCURVE",
"718 726 OFFCURVE",
"754 734 CURVE SMOOTH",
"770 737 OFFCURVE",
"690 777 OFFCURVE",
"676 769 CURVE SMOOTH",
"651 756 OFFCURVE",
"577 724 OFFCURVE",
"550 713 CURVE SMOOTH"
);
}
);
width = 587;
}
);
note = Uacute;
unicode = 00DA;
},
{
color = 3;
glyphname = Ucircumflex;
lastChange = "2021-05-07 03:34:56 +0000";
layers = (
{
hints = (
{
horizontal = 1;
place = "{-14, 21}";
target = up;
type = BottomGhost;
},
{
horizontal = 1;
place = "{601, -20}";
target = down;
type = TopGhost;
},
{
place = "{63, 124}";
type = Stem;
},
{
place = "{317, 118}";
type = Stem;
},
{
horizontal = 1;
place = "{596, -20}";
target = down;
type = TopGhost;
}
);
layerId = "C623C401-2266-4A98-B253-3D45160C29C7";
paths = (
{
closed = 1;
nodes = (
"428 201 OFFCURVE",
"419 170 OFFCURVE",
"412 140 CURVE SMOOTH",
"386 28 OFFCURVE",
"415 -53 OFFCURVE",
"528 -13 CURVE",
"504 15 OFFCURVE",
"542 176 OFFCURVE",
"607 314 CURVE SMOOTH",
"646 396 OFFCURVE",
"697 505 OFFCURVE",
"750 578 CURVE SMOOTH",
"758 589 OFFCURVE",
"738 598 OFFCURVE",
"692 597 CURVE SMOOTH",
"627 594 OFFCURVE",
"612 586 OFFCURVE",
"575 523 CURVE SMOOTH",
"567 510 OFFCURVE",
"552 479 OFFCURVE",
"530 440 CURVE SMOOTH",
"482 355 OFFCURVE",
"391 202 OFFCURVE",
"362 161 CURVE SMOOTH",
"324 110 OFFCURVE",
"249 37 OFFCURVE",
"268 122 CURVE SMOOTH",
"298 254 OFFCURVE",
"389 384 OFFCURVE",
"472 491 CURVE SMOOTH",
"497 522 OFFCURVE",
"514 554 OFFCURVE",
"507 576 CURVE SMOOTH",
"501 596 OFFCURVE",
"485 622 OFFCURVE",
"462 627 CURVE SMOOTH",
"390 641 OFFCURVE",
"193 499 OFFCURVE",
"128 499 CURVE SMOOTH",
"110 499 OFFCURVE",
"98 506 OFFCURVE",
"107 523 CURVE SMOOTH",
"120 546 OFFCURVE",
"92 542 OFFCURVE",
"79 523 CURVE SMOOTH",
"40 464 OFFCURVE",
"14 391 OFFCURVE",
"49 378 CURVE SMOOTH",
"152 338 OFFCURVE",
"282 530 OFFCURVE",
"345 553 CURVE SMOOTH",
"373 562 OFFCURVE",
"324 473 OFFCURVE",
"316 460 CURVE SMOOTH",
"232 327 OFFCURVE",
"160 199 OFFCURVE",
"143 125 CURVE SMOOTH",
"126 51 OFFCURVE",
"153 8 OFFCURVE",
"204 -9 CURVE SMOOTH",
"255 -27 OFFCURVE",
"303 11 OFFCURVE",
"337 64 CURVE SMOOTH",
"354 91 OFFCURVE",
"397 161 OFFCURVE",
"439 232 CURVE"
);
},
{
closed = 1;
nodes = (
"537 690 LINE SMOOTH",
"531 686 OFFCURVE",
"593 685 OFFCURVE",
"597 689 CURVE SMOOTH",
"660 760 LINE",
"689 686 LINE SMOOTH",
"690 682 OFFCURVE",
"751 684 OFFCURVE",
"747 690 CURVE SMOOTH",
"693 788 LINE",
"686 794 OFFCURVE",
"663 791 OFFCURVE",
"656 787 CURVE"
);
}
);
width = 587;
}
);
note = Ucircumflex;
unicode = 00DB;
},
{
color = 3;
glyphname = Udieresis;
lastChange = "2021-05-07 03:34:56 +0000";
layers = (
{
hints = (
{
horizontal = 1;
place = "{-14, 21}";
target = up;
type = BottomGhost;
},
{
horizontal = 1;
place = "{601, -20}";
target = down;
type = TopGhost;
},
{
place = "{63, 124}";
type = Stem;
},
{
place = "{317, 118}";
type = Stem;
},
{
horizontal = 1;
place = "{596, -20}";
target = down;
type = TopGhost;
}
);
layerId = "C623C401-2266-4A98-B253-3D45160C29C7";
paths = (
{
closed = 1;
nodes = (
"428 201 OFFCURVE",
"419 170 OFFCURVE",
"412 140 CURVE SMOOTH",
"386 28 OFFCURVE",
"415 -53 OFFCURVE",
"528 -13 CURVE",
"504 15 OFFCURVE",
"542 176 OFFCURVE",
"607 314 CURVE SMOOTH",
"646 396 OFFCURVE",
"697 505 OFFCURVE",
"750 578 CURVE SMOOTH",
"758 589 OFFCURVE",
"738 598 OFFCURVE",
"692 597 CURVE SMOOTH",
"627 594 OFFCURVE",
"612 586 OFFCURVE",
"575 523 CURVE SMOOTH",
"567 510 OFFCURVE",
"552 479 OFFCURVE",
"530 440 CURVE SMOOTH",
"482 355 OFFCURVE",
"391 202 OFFCURVE",
"362 161 CURVE SMOOTH",
"324 110 OFFCURVE",
"249 37 OFFCURVE",
"268 122 CURVE SMOOTH",
"298 254 OFFCURVE",
"389 384 OFFCURVE",
"472 491 CURVE SMOOTH",
"497 522 OFFCURVE",
"514 554 OFFCURVE",
"507 576 CURVE SMOOTH",
"501 596 OFFCURVE",
"485 622 OFFCURVE",
"462 627 CURVE SMOOTH",
"390 641 OFFCURVE",
"193 499 OFFCURVE",
"128 499 CURVE SMOOTH",
"110 499 OFFCURVE",
"98 506 OFFCURVE",
"107 523 CURVE SMOOTH",
"120 546 OFFCURVE",
"92 542 OFFCURVE",
"79 523 CURVE SMOOTH",
"40 464 OFFCURVE",
"14 391 OFFCURVE",
"49 378 CURVE SMOOTH",
"152 338 OFFCURVE",
"282 530 OFFCURVE",
"345 553 CURVE SMOOTH",
"373 562 OFFCURVE",
"324 473 OFFCURVE",
"316 460 CURVE SMOOTH",
"232 327 OFFCURVE",
"160 199 OFFCURVE",
"143 125 CURVE SMOOTH",
"126 51 OFFCURVE",
"153 8 OFFCURVE",
"204 -9 CURVE SMOOTH",
"255 -27 OFFCURVE",
"303 11 OFFCURVE",
"337 64 CURVE SMOOTH",
"354 91 OFFCURVE",
"397 161 OFFCURVE",
"439 232 CURVE"
);
},
{
closed = 1;
nodes = (
"758 749 OFFCURVE",
"745 770 OFFCURVE",
"720 769 CURVE SMOOTH",
"696 767 OFFCURVE",
"670 744 OFFCURVE",
"663 716 CURVE SMOOTH",
"656 688 OFFCURVE",
"669 667 OFFCURVE",
"694 669 CURVE SMOOTH",
"718 670 OFFCURVE",
"744 694 OFFCURVE",
"751 721 CURVE SMOOTH"
);
},
{
closed = 1;
nodes = (
"604 749 OFFCURVE",
"590 770 OFFCURVE",
"566 769 CURVE SMOOTH",
"541 767 OFFCURVE",
"516 744 OFFCURVE",
"508 716 CURVE SMOOTH",
"501 688 OFFCURVE",
"515 667 OFFCURVE",
"539 669 CURVE SMOOTH",
"564 670 OFFCURVE",
"589 694 OFFCURVE",
"597 721 CURVE SMOOTH"
);
}
);
width = 587;
}
);
note = Udieresis;
unicode = 00DC;
},
{
color = 3;
glyphname = Ugrave;
lastChange = "2021-05-07 03:34:56 +0000";
layers = (
{
hints = (
{
horizontal = 1;
place = "{-14, 21}";
target = up;
type = BottomGhost;
},
{
horizontal = 1;
place = "{601, -20}";
target = down;
type = TopGhost;
},
{
place = "{63, 124}";
type = Stem;
},
{
place = "{317, 118}";
type = Stem;
},
{
horizontal = 1;
place = "{596, -20}";
target = down;
type = TopGhost;
}
);
layerId = "C623C401-2266-4A98-B253-3D45160C29C7";
paths = (
{
closed = 1;
nodes = (
"428 201 OFFCURVE",
"419 170 OFFCURVE",
"412 140 CURVE SMOOTH",
"386 28 OFFCURVE",
"415 -53 OFFCURVE",
"528 -13 CURVE",
"504 15 OFFCURVE",
"542 176 OFFCURVE",
"607 314 CURVE SMOOTH",
"646 396 OFFCURVE",
"697 505 OFFCURVE",
"750 578 CURVE SMOOTH",
"758 589 OFFCURVE",
"738 598 OFFCURVE",
"692 597 CURVE SMOOTH",
"627 594 OFFCURVE",
"612 586 OFFCURVE",
"575 523 CURVE SMOOTH",
"567 510 OFFCURVE",
"552 479 OFFCURVE",
"530 440 CURVE SMOOTH",
"482 355 OFFCURVE",
"391 202 OFFCURVE",
"362 161 CURVE SMOOTH",
"324 110 OFFCURVE",
"249 37 OFFCURVE",
"268 122 CURVE SMOOTH",
"298 254 OFFCURVE",
"389 384 OFFCURVE",
"472 491 CURVE SMOOTH",
"497 522 OFFCURVE",
"514 554 OFFCURVE",
"507 576 CURVE SMOOTH",
"501 596 OFFCURVE",
"485 622 OFFCURVE",
"462 627 CURVE SMOOTH",
"390 641 OFFCURVE",
"193 499 OFFCURVE",
"128 499 CURVE SMOOTH",
"110 499 OFFCURVE",
"98 506 OFFCURVE",
"107 523 CURVE SMOOTH",
"120 546 OFFCURVE",
"92 542 OFFCURVE",
"79 523 CURVE SMOOTH",
"40 464 OFFCURVE",
"14 391 OFFCURVE",
"49 378 CURVE SMOOTH",
"152 338 OFFCURVE",
"282 530 OFFCURVE",
"345 553 CURVE SMOOTH",
"373 562 OFFCURVE",
"324 473 OFFCURVE",
"316 460 CURVE SMOOTH",
"232 327 OFFCURVE",
"160 199 OFFCURVE",
"143 125 CURVE SMOOTH",
"126 51 OFFCURVE",
"153 8 OFFCURVE",
"204 -9 CURVE SMOOTH",
"255 -27 OFFCURVE",
"303 11 OFFCURVE",
"337 64 CURVE SMOOTH",
"354 91 OFFCURVE",
"397 161 OFFCURVE",
"439 232 CURVE"
);
},
{
closed = 1;
nodes = (
"689 710 OFFCURVE",
"615 742 OFFCURVE",
"590 755 CURVE SMOOTH",
"576 763 OFFCURVE",
"496 723 OFFCURVE",
"512 720 CURVE SMOOTH",
"548 712 OFFCURVE",
"654 684 OFFCURVE",
"675 678 CURVE SMOOTH",
"683 676 OFFCURVE",
"727 695 OFFCURVE",
"716 699 CURVE SMOOTH"
);
}
);
width = 587;
}
);
note = Ugrave;
unicode = 00D9;
},
{
color = 3;
glyphname = Uhungarumlaut;
lastChange = "2021-05-07 03:34:56 +0000";
layers = (
{
hints = (
{
horizontal = 1;
place = "{-14, 21}";
target = up;
type = BottomGhost;
},
{
horizontal = 1;
place = "{601, -20}";
target = down;
type = TopGhost;
},
{
place = "{63, 124}";
type = Stem;
},
{
place = "{317, 118}";
type = Stem;
},
{
horizontal = 1;
place = "{596, -20}";
target = down;
type = TopGhost;
}
);
layerId = "C623C401-2266-4A98-B253-3D45160C29C7";
paths = (
{
closed = 1;
nodes = (
"428 201 OFFCURVE",
"419 170 OFFCURVE",
"412 140 CURVE SMOOTH",
"386 28 OFFCURVE",
"415 -53 OFFCURVE",
"528 -13 CURVE",
"504 15 OFFCURVE",
"542 176 OFFCURVE",
"607 314 CURVE SMOOTH",
"646 396 OFFCURVE",
"697 505 OFFCURVE",
"750 578 CURVE SMOOTH",
"758 589 OFFCURVE",
"738 598 OFFCURVE",
"692 597 CURVE SMOOTH",
"627 594 OFFCURVE",
"612 586 OFFCURVE",
"575 523 CURVE SMOOTH",
"567 510 OFFCURVE",
"552 479 OFFCURVE",
"530 440 CURVE SMOOTH",
"482 355 OFFCURVE",
"391 202 OFFCURVE",
"362 161 CURVE SMOOTH",
"324 110 OFFCURVE",
"249 37 OFFCURVE",
"268 122 CURVE SMOOTH",
"298 254 OFFCURVE",
"389 384 OFFCURVE",
"472 491 CURVE SMOOTH",
"497 522 OFFCURVE",
"514 554 OFFCURVE",
"507 576 CURVE SMOOTH",
"501 596 OFFCURVE",
"485 622 OFFCURVE",
"462 627 CURVE SMOOTH",
"390 641 OFFCURVE",
"193 499 OFFCURVE",
"128 499 CURVE SMOOTH",
"110 499 OFFCURVE",
"98 506 OFFCURVE",
"107 523 CURVE SMOOTH",
"120 546 OFFCURVE",
"92 542 OFFCURVE",
"79 523 CURVE SMOOTH",
"40 464 OFFCURVE",
"14 391 OFFCURVE",
"49 378 CURVE SMOOTH",
"152 338 OFFCURVE",
"282 530 OFFCURVE",
"345 553 CURVE SMOOTH",
"373 562 OFFCURVE",
"324 473 OFFCURVE",
"316 460 CURVE SMOOTH",
"232 327 OFFCURVE",
"160 199 OFFCURVE",
"143 125 CURVE SMOOTH",
"126 51 OFFCURVE",
"153 8 OFFCURVE",
"204 -9 CURVE SMOOTH",
"255 -27 OFFCURVE",
"303 11 OFFCURVE",
"337 64 CURVE SMOOTH",
"354 91 OFFCURVE",
"397 161 OFFCURVE",
"439 232 CURVE"
);
},
{
closed = 1;
nodes = (
"715 807 OFFCURVE",
"662 810 OFFCURVE",
"658 798 CURVE SMOOTH",
"645 759 OFFCURVE",
"627 695 OFFCURVE",
"622 685 CURVE",
"622 683 OFFCURVE",
"654 683 OFFCURVE",
"656 685 CURVE",
"661 697 OFFCURVE",
"687 754 OFFCURVE",
"711 798 CURVE SMOOTH"
);
},
{
closed = 1;
nodes = (
"620 807 OFFCURVE",
"565 810 OFFCURVE",
"562 798 CURVE",
"548 759 OFFCURVE",
"530 695 OFFCURVE",
"526 685 CURVE",
"526 683 OFFCURVE",
"558 683 OFFCURVE",
"560 685 CURVE",
"563 697 OFFCURVE",
"591 754 OFFCURVE",
"614 798 CURVE"
);
}
);
width = 587;
}
);
note = Uhungarumlaut;
unicode = 0170;
},
{
color = 3;
glyphname = Umacron;
lastChange = "2021-05-07 03:34:56 +0000";
layers = (
{
hints = (
{
horizontal = 1;
place = "{-14, 21}";
target = up;
type = BottomGhost;
},
{
horizontal = 1;
place = "{601, -20}";
target = down;
type = TopGhost;
},
{
place = "{63, 124}";
type = Stem;
},
{
place = "{317, 118}";
type = Stem;
},
{
horizontal = 1;
place = "{596, -20}";
target = down;
type = TopGhost;
}
);
layerId = "C623C401-2266-4A98-B253-3D45160C29C7";
paths = (
{
closed = 1;
nodes = (
"428 201 OFFCURVE",
"419 170 OFFCURVE",
"412 140 CURVE SMOOTH",
"386 28 OFFCURVE",
"415 -53 OFFCURVE",
"528 -13 CURVE",
"504 15 OFFCURVE",
"542 176 OFFCURVE",
"607 314 CURVE SMOOTH",
"646 396 OFFCURVE",
"697 505 OFFCURVE",
"750 578 CURVE SMOOTH",
"758 589 OFFCURVE",
"738 598 OFFCURVE",
"692 597 CURVE SMOOTH",
"627 594 OFFCURVE",
"612 586 OFFCURVE",
"575 523 CURVE SMOOTH",
"567 510 OFFCURVE",
"552 479 OFFCURVE",
"530 440 CURVE SMOOTH",
"482 355 OFFCURVE",
"391 202 OFFCURVE",
"362 161 CURVE SMOOTH",
"324 110 OFFCURVE",
"249 37 OFFCURVE",
"268 122 CURVE SMOOTH",
"298 254 OFFCURVE",
"389 384 OFFCURVE",
"472 491 CURVE SMOOTH",
"497 522 OFFCURVE",
"514 554 OFFCURVE",
"507 576 CURVE SMOOTH",
"501 596 OFFCURVE",
"485 622 OFFCURVE",
"462 627 CURVE SMOOTH",
"390 641 OFFCURVE",
"193 499 OFFCURVE",
"128 499 CURVE SMOOTH",
"110 499 OFFCURVE",
"98 506 OFFCURVE",
"107 523 CURVE SMOOTH",
"120 546 OFFCURVE",
"92 542 OFFCURVE",
"79 523 CURVE SMOOTH",
"40 464 OFFCURVE",
"14 391 OFFCURVE",
"49 378 CURVE SMOOTH",
"152 338 OFFCURVE",
"282 530 OFFCURVE",
"345 553 CURVE SMOOTH",
"373 562 OFFCURVE",
"324 473 OFFCURVE",
"316 460 CURVE SMOOTH",
"232 327 OFFCURVE",
"160 199 OFFCURVE",
"143 125 CURVE SMOOTH",
"126 51 OFFCURVE",
"153 8 OFFCURVE",
"204 -9 CURVE SMOOTH",
"255 -27 OFFCURVE",
"303 11 OFFCURVE",
"337 64 CURVE SMOOTH",
"354 91 OFFCURVE",
"397 161 OFFCURVE",
"439 232 CURVE"
);
},
{
closed = 1;
nodes = (
"539 731 LINE SMOOTH",
"528 731 OFFCURVE",
"492 689 OFFCURVE",
"507 689 CURVE SMOOTH",
"701 689 LINE SMOOTH",
"708 689 OFFCURVE",
"746 731 OFFCURVE",
"723 731 CURVE SMOOTH"
);
}
);
width = 587;
}
);
note = Umacron;
unicode = 016A;
},
{
color = 3;
glyphname = Uogonek;
lastChange = "2021-05-07 03:34:56 +0000";
layers = (
{
hints = (
{
horizontal = 1;
place = "{-14, 21}";
target = up;
type = BottomGhost;
},
{
horizontal = 1;
place = "{601, -20}";
target = down;
type = TopGhost;
},
{
place = "{63, 124}";
type = Stem;
},
{
place = "{317, 118}";
type = Stem;
},
{
horizontal = 1;
place = "{596, -20}";
target = down;
type = TopGhost;
}
);
layerId = "C623C401-2266-4A98-B253-3D45160C29C7";
paths = (
{
closed = 1;
nodes = (
"272 -136 OFFCURVE",
"275 -115 OFFCURVE",
"251 -140 CURVE SMOOTH",
"223 -170 OFFCURVE",
"192 -195 OFFCURVE",
"171 -195 CURVE SMOOTH",
"155 -195 OFFCURVE",
"142 -181 OFFCURVE",
"142 -154 CURVE SMOOTH",
"142 -110 OFFCURVE",
"172 -44 OFFCURVE",
"228 -13 CURVE",
"270 -14 OFFCURVE",
"308 19 OFFCURVE",
"337 64 CURVE SMOOTH",
"354 91 OFFCURVE",
"397 161 OFFCURVE",
"439 232 CURVE",
"428 201 OFFCURVE",
"419 170 OFFCURVE",
"412 140 CURVE SMOOTH",
"386 28 OFFCURVE",
"415 -53 OFFCURVE",
"528 -13 CURVE",
"504 15 OFFCURVE",
"542 176 OFFCURVE",
"607 314 CURVE SMOOTH",
"646 396 OFFCURVE",
"697 505 OFFCURVE",
"750 578 CURVE SMOOTH",
"758 589 OFFCURVE",
"738 598 OFFCURVE",
"692 597 CURVE SMOOTH",
"627 594 OFFCURVE",
"612 586 OFFCURVE",
"575 523 CURVE SMOOTH",
"567 510 OFFCURVE",
"552 479 OFFCURVE",
"530 440 CURVE SMOOTH",
"482 355 OFFCURVE",
"391 202 OFFCURVE",
"362 161 CURVE SMOOTH",
"324 110 OFFCURVE",
"249 37 OFFCURVE",
"268 122 CURVE SMOOTH",
"298 254 OFFCURVE",
"389 384 OFFCURVE",
"472 491 CURVE SMOOTH",
"497 522 OFFCURVE",
"514 554 OFFCURVE",
"507 576 CURVE SMOOTH",
"501 596 OFFCURVE",
"485 622 OFFCURVE",
"462 627 CURVE SMOOTH",
"390 641 OFFCURVE",
"193 499 OFFCURVE",
"128 499 CURVE SMOOTH",
"110 499 OFFCURVE",
"98 506 OFFCURVE",
"107 523 CURVE SMOOTH",
"120 546 OFFCURVE",
"92 542 OFFCURVE",
"79 523 CURVE SMOOTH",
"40 464 OFFCURVE",
"14 391 OFFCURVE",
"49 378 CURVE SMOOTH",
"152 338 OFFCURVE",
"282 530 OFFCURVE",
"345 553 CURVE SMOOTH",
"373 562 OFFCURVE",
"324 473 OFFCURVE",
"316 460 CURVE SMOOTH",
"232 327 OFFCURVE",
"160 199 OFFCURVE",
"143 125 CURVE SMOOTH",
"127 58 OFFCURVE",
"148 16 OFFCURVE",
"190 -3 CURVE",
"116 -35 OFFCURVE",
"68 -114 OFFCURVE",
"68 -181 CURVE SMOOTH",
"68 -218 OFFCURVE",
"94 -238 OFFCURVE",
"126 -239 CURVE SMOOTH",
"153 -239 OFFCURVE",
"180 -227 OFFCURVE",
"209 -203 CURVE SMOOTH",
"228 -187 OFFCURVE",
"245 -168 OFFCURVE",
"262 -147 CURVE SMOOTH"
);
}
);
width = 587;
}
);
note = Uogonek;
unicode = 0172;
},
{
color = 3;
glyphname = Uring;
lastChange = "2021-05-07 03:34:56 +0000";
layers = (
{
hints = (
{
horizontal = 1;
place = "{-14, 21}";
target = up;
type = BottomGhost;
},
{
horizontal = 1;
place = "{601, -20}";
target = down;
type = TopGhost;
},
{
place = "{63, 124}";
type = Stem;
},
{
place = "{317, 118}";
type = Stem;
},
{
horizontal = 1;
place = "{596, -20}";
target = down;
type = TopGhost;
}
);
layerId = "C623C401-2266-4A98-B253-3D45160C29C7";
paths = (
{
closed = 1;
nodes = (
"428 201 OFFCURVE",
"419 170 OFFCURVE",
"412 140 CURVE SMOOTH",
"386 28 OFFCURVE",
"415 -53 OFFCURVE",
"528 -13 CURVE",
"504 15 OFFCURVE",
"542 176 OFFCURVE",
"607 314 CURVE SMOOTH",
"646 396 OFFCURVE",
"697 505 OFFCURVE",
"750 578 CURVE SMOOTH",
"758 589 OFFCURVE",
"738 598 OFFCURVE",
"692 597 CURVE SMOOTH",
"627 594 OFFCURVE",
"612 586 OFFCURVE",
"575 523 CURVE SMOOTH",
"567 510 OFFCURVE",
"552 479 OFFCURVE",
"530 440 CURVE SMOOTH",
"482 355 OFFCURVE",
"391 202 OFFCURVE",
"362 161 CURVE SMOOTH",
"324 110 OFFCURVE",
"249 37 OFFCURVE",
"268 122 CURVE SMOOTH",
"298 254 OFFCURVE",
"389 384 OFFCURVE",
"472 491 CURVE SMOOTH",
"497 522 OFFCURVE",
"514 554 OFFCURVE",
"507 576 CURVE SMOOTH",
"501 596 OFFCURVE",
"485 622 OFFCURVE",
"462 627 CURVE SMOOTH",
"390 641 OFFCURVE",
"193 499 OFFCURVE",
"128 499 CURVE SMOOTH",
"110 499 OFFCURVE",
"98 506 OFFCURVE",
"107 523 CURVE SMOOTH",
"120 546 OFFCURVE",
"92 542 OFFCURVE",
"79 523 CURVE SMOOTH",
"40 464 OFFCURVE",
"14 391 OFFCURVE",
"49 378 CURVE SMOOTH",
"152 338 OFFCURVE",
"282 530 OFFCURVE",
"345 553 CURVE SMOOTH",
"373 562 OFFCURVE",
"324 473 OFFCURVE",
"316 460 CURVE SMOOTH",
"232 327 OFFCURVE",
"160 199 OFFCURVE",
"143 125 CURVE SMOOTH",
"126 51 OFFCURVE",
"153 8 OFFCURVE",
"204 -9 CURVE SMOOTH",
"255 -27 OFFCURVE",
"303 11 OFFCURVE",
"337 64 CURVE SMOOTH",
"354 91 OFFCURVE",
"397 161 OFFCURVE",
"439 232 CURVE"
);
},
{
closed = 1;
nodes = (
"747 758 OFFCURVE",
"729 806 OFFCURVE",
"665 807 CURVE SMOOTH",
"597 808 OFFCURVE",
"551 764 OFFCURVE",
"537 718 CURVE SMOOTH",
"523 672 OFFCURVE",
"542 624 OFFCURVE",
"603 624 CURVE SMOOTH",
"670 623 OFFCURVE",
"717 667 OFFCURVE",
"732 713 CURVE SMOOTH"
);
},
{
closed = 1;
nodes = (
"708 763 OFFCURVE",
"663 653 OFFCURVE",
"611 664 CURVE SMOOTH",
"567 673 OFFCURVE",
"610 783 OFFCURVE",
"662 773 CURVE SMOOTH"
);
}
);
width = 587;
}
);
note = Uring;
unicode = 016E;
},
{
color = 3;
glyphname = V;
lastChange = "2021-05-07 03:34:56 +0000";
layers = (
{
hints = (
{
horizontal = 1;
place = "{-14, 45}";
type = Stem;
},
{
horizontal = 1;
place = "{570, 41}";
type = Stem;
},
{
place = "{16, 55}";
type = Stem;
},
{
place = "{259, 114}";
type = Stem;
},
{
place = "{464, 115}";
type = Stem;
},
{
place = "{97, 115}";
type = Stem;
},
{
horizontal = 1;
place = "{558, 11}";
type = Stem;
}
);
layerId = "C623C401-2266-4A98-B253-3D45160C29C7";
paths = (
{
closed = 1;
nodes = (
"217 30 OFFCURVE",
"212 44 OFFCURVE",
"212 66 CURVE SMOOTH",
"212 180 OFFCURVE",
"328 381 OFFCURVE",
"368 498 CURVE SMOOTH",
"389 558 OFFCURVE",
"340 611 OFFCURVE",
"244 611 CURVE SMOOTH",
"211 611 OFFCURVE",
"152 583 OFFCURVE",
"110 541 CURVE SMOOTH",
"30 459 OFFCURVE",
"-20 312 OFFCURVE",
"47 261 CURVE SMOOTH",
"71 242 OFFCURVE",
"84 252 OFFCURVE",
"76 268 CURVE SMOOTH",
"56 309 OFFCURVE",
"89 403 OFFCURVE",
"163 507 CURVE SMOOTH",
"191 547 OFFCURVE",
"225 570 OFFCURVE",
"241 570 CURVE SMOOTH",
"262 570 OFFCURVE",
"264 545 OFFCURVE",
"250 512 CURVE SMOOTH",
"208 412 OFFCURVE",
"97 247 OFFCURVE",
"97 90 CURVE SMOOTH",
"97 21 OFFCURVE",
"135 -17 OFFCURVE",
"207 -14 CURVE SMOOTH",
"351 -7 OFFCURVE",
"515 248 OFFCURVE",
"555 363 CURVE SMOOTH",
"576 422 OFFCURVE",
"604 495 OFFCURVE",
"533 539 CURVE SMOOTH",
"502 558 OFFCURVE",
"463 568 OFFCURVE",
"444 569 CURVE SMOOTH",
"429 570 OFFCURVE",
"423 558 OFFCURVE",
"438 558 CURVE SMOOTH",
"452 557 OFFCURVE",
"464 514 OFFCURVE",
"464 482 CURVE SMOOTH",
"465 401 OFFCURVE",
"315 35 OFFCURVE",
"233 31 CURVE SMOOTH"
);
}
);
width = 499;
}
);
note = V;
unicode = 0056;
},
{
color = 3;
glyphname = W;
lastChange = "2021-05-07 03:34:56 +0000";
layers = (
{
hints = (
{
horizontal = 1;
place = "{-9, 87}";
type = Stem;
},
{
horizontal = 1;
place = "{590, 12}";
type = Stem;
},
{
place = "{85, 123}";
type = Stem;
},
{
place = "{352, 98}";
type = Stem;
},
{
place = "{709, 132}";
type = Stem;
},
{
horizontal = 1;
place = "{-14, 41}";
type = Stem;
}
);
layerId = "C623C401-2266-4A98-B253-3D45160C29C7";
paths = (
{
closed = 1;
nodes = (
"363 33 OFFCURVE",
"406 -13 OFFCURVE",
"482 -13 CURVE SMOOTH",
"618 -13 OFFCURVE",
"760 211 OFFCURVE",
"822 373 CURVE SMOOTH",
"860 473 OFFCURVE",
"887 632 OFFCURVE",
"734 602 CURVE SMOOTH",
"719 600 OFFCURVE",
"713 584 OFFCURVE",
"727 584 CURVE SMOOTH",
"785 584 OFFCURVE",
"682 300 OFFCURVE",
"652 236 CURVE SMOOTH",
"600 127 OFFCURVE",
"537 28 OFFCURVE",
"489 28 CURVE SMOOTH",
"425 28 OFFCURVE",
"524 359 OFFCURVE",
"644 517 CURVE SMOOTH",
"651 525 OFFCURVE",
"626 532 OFFCURVE",
"590 530 CURVE SMOOTH",
"538 529 OFFCURVE",
"522 538 OFFCURVE",
"487 486 CURVE SMOOTH",
"469 459 OFFCURVE",
"436 383 OFFCURVE",
"401 286 CURVE",
"336 148 OFFCURVE",
"275 33 OFFCURVE",
"233 31 CURVE SMOOTH",
"217 30 OFFCURVE",
"212 44 OFFCURVE",
"212 66 CURVE SMOOTH",
"212 180 OFFCURVE",
"328 381 OFFCURVE",
"368 498 CURVE SMOOTH",
"389 558 OFFCURVE",
"341 611 OFFCURVE",
"244 611 CURVE SMOOTH",
"211 611 OFFCURVE",
"152 583 OFFCURVE",
"110 541 CURVE SMOOTH",
"30 459 OFFCURVE",
"-20 312 OFFCURVE",
"47 261 CURVE SMOOTH",
"71 242 OFFCURVE",
"84 252 OFFCURVE",
"76 268 CURVE SMOOTH",
"56 309 OFFCURVE",
"89 403 OFFCURVE",
"163 507 CURVE SMOOTH",
"191 547 OFFCURVE",
"226 570 OFFCURVE",
"242 570 CURVE SMOOTH",
"262 570 OFFCURVE",
"264 545 OFFCURVE",
"250 512 CURVE SMOOTH",
"208 412 OFFCURVE",
"97 247 OFFCURVE",
"97 90 CURVE SMOOTH",
"97 21 OFFCURVE",
"135 -17 OFFCURVE",
"207 -14 CURVE SMOOTH",
"267 -11 OFFCURVE",
"319 44 OFFCURVE",
"362 115 CURVE"
);
}
);
width = 736;
}
);
note = W;
unicode = 0057;
},
{
color = 3;
glyphname = X;
lastChange = "2021-05-07 03:34:56 +0000";
layers = (
{
hints = (
{
horizontal = 1;
place = "{-11, 21}";
target = up;
type = BottomGhost;
},
{
horizontal = 1;
place = "{237, 39}";
type = Stem;
},
{
place = "{209, 126}";
type = Stem;
},
{
horizontal = 1;
place = "{-3, 95}";
type = Stem;
}
);
layerId = "C623C401-2266-4A98-B253-3D45160C29C7";
paths = (
{
closed = 1;
nodes = (
"209 321 OFFCURVE",
"208 283 OFFCURVE",
"209 247 CURVE",
"134 149 OFFCURVE",
"19 43 OFFCURVE",
"-18 20 CURVE SMOOTH",
"-54 -3 OFFCURVE",
"6 -16 OFFCURVE",
"35 -8 CURVE SMOOTH",
"62 0 OFFCURVE",
"156 113 OFFCURVE",
"213 192 CURVE",
"224 80 OFFCURVE",
"256 -3 OFFCURVE",
"325 -3 CURVE SMOOTH",
"373 -3 OFFCURVE",
"413 41 OFFCURVE",
"445 85 CURVE SMOOTH",
"488 147 OFFCURVE",
"463 150 OFFCURVE",
"446 127 CURVE SMOOTH",
"404 71 OFFCURVE",
"373 90 OFFCURVE",
"356 132 CURVE SMOOTH",
"343 164 OFFCURVE",
"337 220 OFFCURVE",
"336 280 CURVE",
"443 393 OFFCURVE",
"537 501 OFFCURVE",
"559 560 CURVE SMOOTH",
"575 605 OFFCURVE",
"525 638 OFFCURVE",
"516 616 CURVE SMOOTH",
"480 526 OFFCURVE",
"401 411 OFFCURVE",
"336 333 CURVE",
"337 400 OFFCURVE",
"342 463 OFFCURVE",
"346 494 CURVE SMOOTH",
"349 518 OFFCURVE",
"363 576 OFFCURVE",
"324 576 CURVE SMOOTH",
"304 576 OFFCURVE",
"272 558 OFFCURVE",
"223 514 CURVE",
"202 454 OFFCURVE",
"166 339 OFFCURVE",
"64 264 CURVE SMOOTH",
"46 251 OFFCURVE",
"67 230 OFFCURVE",
"85 243 CURVE SMOOTH",
"141 280 OFFCURVE",
"181 319 OFFCURVE",
"210 360 CURVE"
);
}
);
width = 453;
}
);
note = X;
unicode = 0058;
},
{
color = 3;
glyphname = Y;
lastChange = "2021-05-07 03:34:56 +0000";
layers = (
{
hints = (
{
horizontal = 1;
place = "{601, -20}";
target = down;
type = TopGhost;
},
{
place = "{44, 124}";
type = Stem;
},
{
place = "{225, 89}";
type = Stem;
},
{
horizontal = 1;
place = "{596, -20}";
target = down;
type = TopGhost;
}
);
layerId = "C623C401-2266-4A98-B253-3D45160C29C7";
paths = (
{
closed = 1;
nodes = (
"478 229 OFFCURVE",
"463 196 OFFCURVE",
"447 163 CURVE SMOOTH",
"405 71 OFFCURVE",
"324 -218 OFFCURVE",
"187 -160 CURVE SMOOTH",
"168 -152 OFFCURVE",
"158 -170 OFFCURVE",
"173 -182 CURVE SMOOTH",
"199 -203 OFFCURVE",
"227 -206 OFFCURVE",
"253 -206 CURVE SMOOTH",
"407 -206 OFFCURVE",
"484 -50 OFFCURVE",
"536 68 CURVE SMOOTH",
"563 130 OFFCURVE",
"727 559 OFFCURVE",
"770 581 CURVE SMOOTH",
"782 587 OFFCURVE",
"781 596 OFFCURVE",
"771 596 CURVE SMOOTH",
"662 596 LINE SMOOTH",
"623 596 OFFCURVE",
"614 560 OFFCURVE",
"593 506 CURVE SMOOTH",
"560 418 OFFCURVE",
"384 127 OFFCURVE",
"338 93 CURVE SMOOTH",
"310 72 OFFCURVE",
"275 62 OFFCURVE",
"302 141 CURVE SMOOTH",
"317 184 OFFCURVE",
"344 243 OFFCURVE",
"371 302 CURVE SMOOTH",
"390 346 OFFCURVE",
"450 450 OFFCURVE",
"483 504 CURVE SMOOTH",
"507 545 OFFCURVE",
"518 566 OFFCURVE",
"497 599 CURVE SMOOTH",
"488 612 OFFCURVE",
"476 624 OFFCURVE",
"463 627 CURVE SMOOTH",
"394 640 OFFCURVE",
"219 514 OFFCURVE",
"140 500 CURVE SMOOTH",
"121 497 OFFCURVE",
"95 498 OFFCURVE",
"108 523 CURVE SMOOTH",
"119 542 OFFCURVE",
"95 545 OFFCURVE",
"80 523 CURVE SMOOTH",
"40 464 OFFCURVE",
"15 391 OFFCURVE",
"50 378 CURVE SMOOTH",
"153 338 OFFCURVE",
"283 530 OFFCURVE",
"346 553 CURVE SMOOTH",
"385 567 OFFCURVE",
"250 317 OFFCURVE",
"198 201 CURVE SMOOTH",
"145 80 OFFCURVE",
"161 4 OFFCURVE",
"246 -12 CURVE SMOOTH",
"303 -23 OFFCURVE",
"355 42 OFFCURVE",
"399 119 CURVE SMOOTH",
"412 143 OFFCURVE",
"453 203 OFFCURVE",
"493 262 CURVE"
);
}
);
width = 606;
}
);
note = Y;
unicode = 0059;
},
{
color = 3;
glyphname = Yacute;
lastChange = "2021-05-07 03:34:56 +0000";
layers = (
{
hints = (
{
horizontal = 1;
place = "{601, -20}";
target = down;
type = TopGhost;
},
{
place = "{44, 124}";
type = Stem;
},
{
place = "{225, 89}";
type = Stem;
},
{
horizontal = 1;
place = "{596, -20}";
target = down;
type = TopGhost;
}
);
layerId = "C623C401-2266-4A98-B253-3D45160C29C7";
paths = (
{
closed = 1;
nodes = (
"478 229 OFFCURVE",
"463 196 OFFCURVE",
"447 163 CURVE SMOOTH",
"405 71 OFFCURVE",
"324 -218 OFFCURVE",
"187 -160 CURVE SMOOTH",
"168 -152 OFFCURVE",
"158 -170 OFFCURVE",
"173 -182 CURVE SMOOTH",
"199 -203 OFFCURVE",
"227 -206 OFFCURVE",
"253 -206 CURVE SMOOTH",
"407 -206 OFFCURVE",
"484 -50 OFFCURVE",
"536 68 CURVE SMOOTH",
"563 130 OFFCURVE",
"727 559 OFFCURVE",
"770 581 CURVE SMOOTH",
"782 587 OFFCURVE",
"781 596 OFFCURVE",
"771 596 CURVE SMOOTH",
"662 596 LINE SMOOTH",
"623 596 OFFCURVE",
"614 560 OFFCURVE",
"593 506 CURVE SMOOTH",
"560 418 OFFCURVE",
"384 127 OFFCURVE",
"338 93 CURVE SMOOTH",
"310 72 OFFCURVE",
"275 62 OFFCURVE",
"302 141 CURVE SMOOTH",
"317 184 OFFCURVE",
"344 243 OFFCURVE",
"371 302 CURVE SMOOTH",
"390 346 OFFCURVE",
"450 450 OFFCURVE",
"483 504 CURVE SMOOTH",
"507 545 OFFCURVE",
"518 566 OFFCURVE",
"497 599 CURVE SMOOTH",
"488 612 OFFCURVE",
"476 624 OFFCURVE",
"463 627 CURVE SMOOTH",
"394 640 OFFCURVE",
"219 514 OFFCURVE",
"140 500 CURVE SMOOTH",
"121 497 OFFCURVE",
"95 498 OFFCURVE",
"108 523 CURVE SMOOTH",
"119 542 OFFCURVE",
"95 545 OFFCURVE",
"80 523 CURVE SMOOTH",
"40 464 OFFCURVE",
"15 391 OFFCURVE",
"50 378 CURVE SMOOTH",
"153 338 OFFCURVE",
"283 530 OFFCURVE",
"346 553 CURVE SMOOTH",
"385 567 OFFCURVE",
"250 317 OFFCURVE",
"198 201 CURVE SMOOTH",
"145 80 OFFCURVE",
"161 4 OFFCURVE",
"246 -12 CURVE SMOOTH",
"303 -23 OFFCURVE",
"355 42 OFFCURVE",
"399 119 CURVE SMOOTH",
"412 143 OFFCURVE",
"453 203 OFFCURVE",
"493 262 CURVE"
);
},
{
closed = 1;
nodes = (
"534 687 OFFCURVE",
"578 668 OFFCURVE",
"586 670 CURVE SMOOTH",
"607 676 OFFCURVE",
"713 704 OFFCURVE",
"749 712 CURVE SMOOTH",
"765 715 OFFCURVE",
"685 755 OFFCURVE",
"671 747 CURVE SMOOTH",
"646 734 OFFCURVE",
"572 702 OFFCURVE",
"545 691 CURVE SMOOTH"
);
}
);
width = 606;
}
);
note = Yacute;
unicode = 00DD;
},
{
color = 3;
glyphname = Ydieresis;
lastChange = "2021-05-07 03:34:56 +0000";
layers = (
{
hints = (
{
horizontal = 1;
place = "{601, -20}";
target = down;
type = TopGhost;
},
{
place = "{44, 124}";
type = Stem;
},
{
place = "{225, 89}";
type = Stem;
},
{
horizontal = 1;
place = "{596, -20}";
target = down;
type = TopGhost;
}
);
layerId = "C623C401-2266-4A98-B253-3D45160C29C7";
paths = (
{
closed = 1;
nodes = (
"478 229 OFFCURVE",
"463 196 OFFCURVE",
"447 163 CURVE SMOOTH",
"405 71 OFFCURVE",
"324 -218 OFFCURVE",
"187 -160 CURVE SMOOTH",
"168 -152 OFFCURVE",
"158 -170 OFFCURVE",
"173 -182 CURVE SMOOTH",
"199 -203 OFFCURVE",
"227 -206 OFFCURVE",
"253 -206 CURVE SMOOTH",
"407 -206 OFFCURVE",
"484 -50 OFFCURVE",
"536 68 CURVE SMOOTH",
"563 130 OFFCURVE",
"727 559 OFFCURVE",
"770 581 CURVE SMOOTH",
"782 587 OFFCURVE",
"781 596 OFFCURVE",
"771 596 CURVE SMOOTH",
"662 596 LINE SMOOTH",
"623 596 OFFCURVE",
"614 560 OFFCURVE",
"593 506 CURVE SMOOTH",
"560 418 OFFCURVE",
"384 127 OFFCURVE",
"338 93 CURVE SMOOTH",
"310 72 OFFCURVE",
"275 62 OFFCURVE",
"302 141 CURVE SMOOTH",
"317 184 OFFCURVE",
"344 243 OFFCURVE",
"371 302 CURVE SMOOTH",
"390 346 OFFCURVE",
"450 450 OFFCURVE",
"483 504 CURVE SMOOTH",
"507 545 OFFCURVE",
"518 566 OFFCURVE",
"497 599 CURVE SMOOTH",
"488 612 OFFCURVE",
"476 624 OFFCURVE",
"463 627 CURVE SMOOTH",
"394 640 OFFCURVE",
"219 514 OFFCURVE",
"140 500 CURVE SMOOTH",
"121 497 OFFCURVE",
"95 498 OFFCURVE",
"108 523 CURVE SMOOTH",
"119 542 OFFCURVE",
"95 545 OFFCURVE",
"80 523 CURVE SMOOTH",
"40 464 OFFCURVE",
"15 391 OFFCURVE",
"50 378 CURVE SMOOTH",
"153 338 OFFCURVE",
"283 530 OFFCURVE",
"346 553 CURVE SMOOTH",
"385 567 OFFCURVE",
"250 317 OFFCURVE",
"198 201 CURVE SMOOTH",
"145 80 OFFCURVE",
"161 4 OFFCURVE",
"246 -12 CURVE SMOOTH",
"303 -23 OFFCURVE",
"355 42 OFFCURVE",
"399 119 CURVE SMOOTH",
"412 143 OFFCURVE",
"453 203 OFFCURVE",
"493 262 CURVE"
);
},
{
closed = 1;
nodes = (
"585 761 OFFCURVE",
"571 782 OFFCURVE",
"547 781 CURVE SMOOTH",
"522 779 OFFCURVE",
"497 756 OFFCURVE",
"489 728 CURVE SMOOTH",
"482 700 OFFCURVE",
"496 679 OFFCURVE",
"520 681 CURVE SMOOTH",
"545 682 OFFCURVE",
"570 706 OFFCURVE",
"578 733 CURVE SMOOTH"
);
},
{
closed = 1;
nodes = (
"739 761 OFFCURVE",
"726 782 OFFCURVE",
"701 781 CURVE SMOOTH",
"677 779 OFFCURVE",
"651 756 OFFCURVE",
"644 728 CURVE SMOOTH",
"637 700 OFFCURVE",
"650 679 OFFCURVE",
"675 681 CURVE SMOOTH",
"699 682 OFFCURVE",
"725 706 OFFCURVE",
"732 733 CURVE SMOOTH"
);
}
);
width = 606;
}
);
note = Ydieresis;
unicode = 0178;
},
{
color = 3;
glyphname = Z;
lastChange = "2021-05-07 03:34:56 +0000";
layers = (
{
hints = (
{
horizontal = 1;
place = "{-19, 102}";
type = Stem;
},
{
horizontal = 1;
place = "{-12, 21}";
target = up;
type = BottomGhost;
},
{
horizontal = 1;
place = "{247, 92}";
type = Stem;
},
{
horizontal = 1;
place = "{485, 95}";
type = Stem;
},
{
horizontal = 1;
place = "{601, -20}";
target = down;
type = TopGhost;
},
{
place = "{494, 23}";
type = Stem;
}
);
layerId = "C623C401-2266-4A98-B253-3D45160C29C7";
paths = (
{
closed = 1;
nodes = (
"524 606 OFFCURVE",
"504 604 OFFCURVE",
"501 591 CURVE SMOOTH",
"498 578 OFFCURVE",
"479 565 OFFCURVE",
"459 559 CURVE SMOOTH",
"448 555 OFFCURVE",
"433 553 OFFCURVE",
"412 553 CURVE SMOOTH",
"364 554 OFFCURVE",
"304 576 OFFCURVE",
"278 581 CURVE SMOOTH",
"241 587 OFFCURVE",
"204 549 OFFCURVE",
"181 517 CURVE SMOOTH",
"164 493 OFFCURVE",
"138 458 OFFCURVE",
"129 432 CURVE SMOOTH",
"119 403 OFFCURVE",
"139 405 OFFCURVE",
"145 414 CURVE SMOOTH",
"172 463 OFFCURVE",
"233 472 OFFCURVE",
"263 469 CURVE SMOOTH",
"297 465 OFFCURVE",
"333 455 OFFCURVE",
"356 444 CURVE",
"312 384 OFFCURVE",
"171 236 OFFCURVE",
"170 221 CURVE SMOOTH",
"169 205 OFFCURVE",
"204 184 OFFCURVE",
"217 193 CURVE SMOOTH",
"239 207 OFFCURVE",
"292 268 OFFCURVE",
"286 184 CURVE SMOOTH",
"280 98 OFFCURVE",
"149 -105 OFFCURVE",
"46 -107 CURVE SMOOTH",
"-38 -109 OFFCURVE",
"74 34 OFFCURVE",
"156 74 CURVE SMOOTH",
"180 85 OFFCURVE",
"192 109 OFFCURVE",
"158 101 CURVE SMOOTH",
"117 91 OFFCURVE",
"53 51 OFFCURVE",
"22 23 CURVE SMOOTH",
"-28 -22 OFFCURVE",
"-49 -72 OFFCURVE",
"-13 -111 CURVE SMOOTH",
"10 -136 OFFCURVE",
"47 -154 OFFCURVE",
"94 -153 CURVE SMOOTH",
"275 -149 OFFCURVE",
"400 19 OFFCURVE",
"409 142 CURVE SMOOTH",
"417 263 OFFCURVE",
"326 275 OFFCURVE",
"243 254 CURVE",
"294 319 OFFCURVE",
"470 446 OFFCURVE",
"504 507 CURVE SMOOTH",
"516 528 OFFCURVE",
"524 555 OFFCURVE",
"524 590 CURVE SMOOTH"
);
}
);
width = 398;
}
);
note = Z;
unicode = 005A;
},
{
color = 3;
glyphname = Zacute;
lastChange = "2021-05-07 03:34:56 +0000";
layers = (
{
hints = (
{
horizontal = 1;
place = "{-19, 102}";
type = Stem;
},
{
horizontal = 1;
place = "{-12, 21}";
target = up;
type = BottomGhost;
},
{
horizontal = 1;
place = "{247, 92}";
type = Stem;
},
{
horizontal = 1;
place = "{485, 95}";
type = Stem;
},
{
horizontal = 1;
place = "{601, -20}";
target = down;
type = TopGhost;
},
{
place = "{494, 23}";
type = Stem;
}
);
layerId = "C623C401-2266-4A98-B253-3D45160C29C7";
paths = (
{
closed = 1;
nodes = (
"524 606 OFFCURVE",
"504 604 OFFCURVE",
"501 591 CURVE SMOOTH",
"498 578 OFFCURVE",
"479 565 OFFCURVE",
"459 559 CURVE SMOOTH",
"448 555 OFFCURVE",
"433 553 OFFCURVE",
"412 553 CURVE SMOOTH",
"364 554 OFFCURVE",
"304 576 OFFCURVE",
"278 581 CURVE SMOOTH",
"241 587 OFFCURVE",
"204 549 OFFCURVE",
"181 517 CURVE SMOOTH",
"164 493 OFFCURVE",
"138 458 OFFCURVE",
"129 432 CURVE SMOOTH",
"119 403 OFFCURVE",
"139 405 OFFCURVE",
"145 414 CURVE SMOOTH",
"172 463 OFFCURVE",
"233 472 OFFCURVE",
"263 469 CURVE SMOOTH",
"297 465 OFFCURVE",
"333 455 OFFCURVE",
"356 444 CURVE",
"312 384 OFFCURVE",
"171 236 OFFCURVE",
"170 221 CURVE SMOOTH",
"169 205 OFFCURVE",
"204 184 OFFCURVE",
"217 193 CURVE SMOOTH",
"239 207 OFFCURVE",
"292 268 OFFCURVE",
"286 184 CURVE SMOOTH",
"280 98 OFFCURVE",
"149 -105 OFFCURVE",
"46 -107 CURVE SMOOTH",
"-38 -109 OFFCURVE",
"74 34 OFFCURVE",
"156 74 CURVE SMOOTH",
"180 85 OFFCURVE",
"192 109 OFFCURVE",
"158 101 CURVE SMOOTH",
"117 91 OFFCURVE",
"53 51 OFFCURVE",
"22 23 CURVE SMOOTH",
"-28 -22 OFFCURVE",
"-49 -72 OFFCURVE",
"-13 -111 CURVE SMOOTH",
"10 -136 OFFCURVE",
"47 -154 OFFCURVE",
"94 -153 CURVE SMOOTH",
"275 -149 OFFCURVE",
"400 19 OFFCURVE",
"409 142 CURVE SMOOTH",
"417 263 OFFCURVE",
"326 275 OFFCURVE",
"243 254 CURVE",
"294 319 OFFCURVE",
"470 446 OFFCURVE",
"504 507 CURVE SMOOTH",
"516 528 OFFCURVE",
"524 555 OFFCURVE",
"524 590 CURVE SMOOTH"
);
},
{
closed = 1;
nodes = (
"314 678 OFFCURVE",
"358 659 OFFCURVE",
"366 661 CURVE SMOOTH",
"387 667 OFFCURVE",
"493 695 OFFCURVE",
"529 703 CURVE SMOOTH",
"545 706 OFFCURVE",
"465 746 OFFCURVE",
"451 738 CURVE SMOOTH",
"426 725 OFFCURVE",
"352 693 OFFCURVE",
"325 682 CURVE SMOOTH"
);
}
);
width = 398;
}
);
note = Zacute;
unicode = 0179;
},
{
color = 3;
glyphname = Zcaron;
lastChange = "2021-05-07 03:34:56 +0000";
layers = (
{
hints = (
{
horizontal = 1;
place = "{-19, 102}";
type = Stem;
},
{
horizontal = 1;
place = "{-12, 21}";
target = up;
type = BottomGhost;
},
{
horizontal = 1;
place = "{247, 92}";
type = Stem;
},
{
horizontal = 1;
place = "{485, 95}";
type = Stem;
},
{
horizontal = 1;
place = "{601, -20}";
target = down;
type = TopGhost;
},
{
place = "{494, 23}";
type = Stem;
}
);
layerId = "C623C401-2266-4A98-B253-3D45160C29C7";
paths = (
{
closed = 1;
nodes = (
"524 606 OFFCURVE",
"504 604 OFFCURVE",
"501 591 CURVE SMOOTH",
"498 578 OFFCURVE",
"479 565 OFFCURVE",
"459 559 CURVE SMOOTH",
"448 555 OFFCURVE",
"433 553 OFFCURVE",
"412 553 CURVE SMOOTH",
"364 554 OFFCURVE",
"304 576 OFFCURVE",
"278 581 CURVE SMOOTH",
"241 587 OFFCURVE",
"204 549 OFFCURVE",
"181 517 CURVE SMOOTH",
"164 493 OFFCURVE",
"138 458 OFFCURVE",
"129 432 CURVE SMOOTH",
"119 403 OFFCURVE",
"139 405 OFFCURVE",
"145 414 CURVE SMOOTH",
"172 463 OFFCURVE",
"233 472 OFFCURVE",
"263 469 CURVE SMOOTH",
"297 465 OFFCURVE",
"333 455 OFFCURVE",
"356 444 CURVE",
"312 384 OFFCURVE",
"171 236 OFFCURVE",
"170 221 CURVE SMOOTH",
"169 205 OFFCURVE",
"204 184 OFFCURVE",
"217 193 CURVE SMOOTH",
"239 207 OFFCURVE",
"292 268 OFFCURVE",
"286 184 CURVE SMOOTH",
"280 98 OFFCURVE",
"149 -105 OFFCURVE",
"46 -107 CURVE SMOOTH",
"-38 -109 OFFCURVE",
"74 34 OFFCURVE",
"156 74 CURVE SMOOTH",
"180 85 OFFCURVE",
"192 109 OFFCURVE",
"158 101 CURVE SMOOTH",
"117 91 OFFCURVE",
"53 51 OFFCURVE",
"22 23 CURVE SMOOTH",
"-28 -22 OFFCURVE",
"-49 -72 OFFCURVE",
"-13 -111 CURVE SMOOTH",
"10 -136 OFFCURVE",
"47 -154 OFFCURVE",
"94 -153 CURVE SMOOTH",
"275 -149 OFFCURVE",
"400 19 OFFCURVE",
"409 142 CURVE SMOOTH",
"417 263 OFFCURVE",
"326 275 OFFCURVE",
"243 254 CURVE",
"294 319 OFFCURVE",
"470 446 OFFCURVE",
"504 507 CURVE SMOOTH",
"516 528 OFFCURVE",
"524 555 OFFCURVE",
"524 590 CURVE SMOOTH"
);
},
{
closed = 1;
nodes = (
"545 752 LINE SMOOTH",
"551 756 OFFCURVE",
"489 757 OFFCURVE",
"485 753 CURVE SMOOTH",
"422 682 LINE",
"393 756 LINE SMOOTH",
"392 760 OFFCURVE",
"331 758 OFFCURVE",
"335 752 CURVE SMOOTH",
"389 654 LINE",
"396 648 OFFCURVE",
"419 651 OFFCURVE",
"426 655 CURVE"
);
}
);
width = 398;
}
);
note = Zcaron;
unicode = 017D;
},
{
color = 3;
glyphname = Zdotaccent;
lastChange = "2021-05-07 03:34:56 +0000";
layers = (
{
hints = (
{
horizontal = 1;
place = "{-19, 102}";
type = Stem;
},
{
horizontal = 1;
place = "{-12, 21}";
target = up;
type = BottomGhost;
},
{
horizontal = 1;
place = "{247, 92}";
type = Stem;
},
{
horizontal = 1;
place = "{485, 95}";
type = Stem;
},
{
horizontal = 1;
place = "{601, -20}";
target = down;
type = TopGhost;
},
{
place = "{494, 23}";
type = Stem;
}
);
layerId = "C623C401-2266-4A98-B253-3D45160C29C7";
paths = (
{
closed = 1;
nodes = (
"524 606 OFFCURVE",
"504 604 OFFCURVE",
"501 591 CURVE SMOOTH",
"498 578 OFFCURVE",
"479 565 OFFCURVE",
"459 559 CURVE SMOOTH",
"448 555 OFFCURVE",
"433 553 OFFCURVE",
"412 553 CURVE SMOOTH",
"364 554 OFFCURVE",
"304 576 OFFCURVE",
"278 581 CURVE SMOOTH",
"241 587 OFFCURVE",
"204 549 OFFCURVE",
"181 517 CURVE SMOOTH",
"164 493 OFFCURVE",
"138 458 OFFCURVE",
"129 432 CURVE SMOOTH",
"119 403 OFFCURVE",
"139 405 OFFCURVE",
"145 414 CURVE SMOOTH",
"172 463 OFFCURVE",
"233 472 OFFCURVE",
"263 469 CURVE SMOOTH",
"297 465 OFFCURVE",
"333 455 OFFCURVE",
"356 444 CURVE",
"312 384 OFFCURVE",
"171 236 OFFCURVE",
"170 221 CURVE SMOOTH",
"169 205 OFFCURVE",
"204 184 OFFCURVE",
"217 193 CURVE SMOOTH",
"239 207 OFFCURVE",
"292 268 OFFCURVE",
"286 184 CURVE SMOOTH",
"280 98 OFFCURVE",
"149 -105 OFFCURVE",
"46 -107 CURVE SMOOTH",
"-38 -109 OFFCURVE",
"74 34 OFFCURVE",
"156 74 CURVE SMOOTH",
"180 85 OFFCURVE",
"192 109 OFFCURVE",
"158 101 CURVE SMOOTH",
"117 91 OFFCURVE",
"53 51 OFFCURVE",
"22 23 CURVE SMOOTH",
"-28 -22 OFFCURVE",
"-49 -72 OFFCURVE",
"-13 -111 CURVE SMOOTH",
"10 -136 OFFCURVE",
"47 -154 OFFCURVE",
"94 -153 CURVE SMOOTH",
"275 -149 OFFCURVE",
"400 19 OFFCURVE",
"409 142 CURVE SMOOTH",
"417 263 OFFCURVE",
"326 275 OFFCURVE",
"243 254 CURVE",
"294 319 OFFCURVE",
"470 446 OFFCURVE",
"504 507 CURVE SMOOTH",
"516 528 OFFCURVE",
"524 555 OFFCURVE",
"524 590 CURVE SMOOTH"
);
},
{
closed = 1;
nodes = (
"478 728 OFFCURVE",
"463 750 OFFCURVE",
"437 750 CURVE SMOOTH",
"411 748 OFFCURVE",
"383 722 OFFCURVE",
"375 693 CURVE SMOOTH",
"368 663 OFFCURVE",
"383 640 OFFCURVE",
"409 642 CURVE SMOOTH",
"435 643 OFFCURVE",
"462 669 OFFCURVE",
"470 698 CURVE SMOOTH"
);
}
);
width = 398;
}
);
note = Zdotaccent;
unicode = 017B;
},
{
color = 3;
glyphname = A.001;
lastChange = "2021-05-07 03:34:56 +0000";
layers = (
{
hints = (
{
horizontal = 1;
place = "{71, 154}";
type = Stem;
},
{
horizontal = 1;
place = "{314, 14}";
type = Stem;
},
{
horizontal = 1;
place = "{381, 64}";
type = Stem;
},
{
place = "{54, 35}";
type = Stem;
},
{
place = "{119, 41}";
type = Stem;
},
{
place = "{206, 63}";
type = Stem;
},
{
horizontal = 1;
place = "{-8, 326}";
type = Stem;
},
{
horizontal = 1;
place = "{-4, 320}";
type = Stem;
}
);
layerId = "C623C401-2266-4A98-B253-3D45160C29C7";
paths = (
{
closed = 1;
nodes = (
"841 320 LINE",
"823 268 OFFCURVE",
"810 219 OFFCURVE",
"802 181 CURVE SMOOTH",
"792 141 OFFCURVE",
"778 106 OFFCURVE",
"759 81 CURVE SMOOTH",
"732 49 OFFCURVE",
"695 38 OFFCURVE",
"660 40 CURVE SMOOTH",
"639 40 OFFCURVE",
"633 -1 OFFCURVE",
"660 -1 CURVE",
"700 24 OFFCURVE",
"764 14 OFFCURVE",
"805 1 CURVE SMOOTH",
"919 -35 OFFCURVE",
"971 0 OFFCURVE",
"1015 68 CURVE SMOOTH",
"1043 111 OFFCURVE",
"1066 152 OFFCURVE",
"1087 194 CURVE SMOOTH",
"1099 219 OFFCURVE",
"1071 225 OFFCURVE",
"1060 200 CURVE SMOOTH",
"1053 184 OFFCURVE",
"1041 164 OFFCURVE",
"1023 134 CURVE SMOOTH",
"990 76 OFFCURVE",
"945 65 OFFCURVE",
"896 63 CURVE SMOOTH",
"877 62 OFFCURVE",
"773 59 OFFCURVE",
"773 59 CURVE",
"851 77 OFFCURVE",
"891 146 OFFCURVE",
"926 216 CURVE SMOOTH",
"942 250 OFFCURVE",
"956 284 OFFCURVE",
"970 318 CURVE",
"1007 319 OFFCURVE",
"1049 322 OFFCURVE",
"1077 330 CURVE SMOOTH",
"1092 334 OFFCURVE",
"1090 354 OFFCURVE",
"1076 351 CURVE SMOOTH",
"1043 344 OFFCURVE",
"1011 341 OFFCURVE",
"979 341 CURVE",
"1010 418 OFFCURVE",
"1040 493 OFFCURVE",
"1084 562 CURVE",
"1093 579 OFFCURVE",
"1143 636 OFFCURVE",
"1187 624 CURVE SMOOTH",
"1198 620 OFFCURVE",
"1241 650 OFFCURVE",
"1193 653 CURVE SMOOTH",
"970 667 OFFCURVE",
"846 511 OFFCURVE",
"727 352 CURVE",
"659 356 OFFCURVE",
"591 358 OFFCURVE",
"527 354 CURVE",
"522 426 OFFCURVE",
"459 500 OFFCURVE",
"340 500 CURVE SMOOTH",
"161 500 OFFCURVE",
"-31 360 OFFCURVE",
"-31 155 CURVE SMOOTH",
"-31 -4 OFFCURVE",
"96 -76 OFFCURVE",
"227 -76 CURVE SMOOTH",
"401 -76 OFFCURVE",
"526 17 OFFCURVE",
"654 195 CURVE SMOOTH",
"677 226 OFFCURVE",
"711 275 OFFCURVE",
"749 326 CURVE"
);
},
{
closed = 1;
nodes = (
"167 39 OFFCURVE",
"113 118 OFFCURVE",
"113 209 CURVE SMOOTH",
"113 337 OFFCURVE",
"225 465 OFFCURVE",
"356 465 CURVE SMOOTH",
"453 465 OFFCURVE",
"483 408 OFFCURVE",
"477 349 CURVE",
"446 344 OFFCURVE",
"416 338 OFFCURVE",
"388 329 CURVE SMOOTH",
"328 309 OFFCURVE",
"272 269 OFFCURVE",
"272 215 CURVE SMOOTH",
"272 181 OFFCURVE",
"292 149 OFFCURVE",
"354 149 CURVE SMOOTH",
"440 150 OFFCURVE",
"511 227 OFFCURVE",
"525 324 CURVE",
"585 331 OFFCURVE",
"648 331 OFFCURVE",
"709 328 CURVE",
"598 181 OFFCURVE",
"489 39 OFFCURVE",
"306 39 CURVE SMOOTH"
);
},
{
closed = 1;
nodes = (
"842 449 OFFCURVE",
"927 553 OFFCURVE",
"974 568 CURVE",
"919 509 OFFCURVE",
"878 425 OFFCURVE",
"849 345 CURVE",
"822 346 OFFCURVE",
"795 348 OFFCURVE",
"767 350 CURVE"
);
},
{
closed = 1;
nodes = (
"355 217 OFFCURVE",
"347 225 OFFCURVE",
"347 237 CURVE SMOOTH",
"347 260 OFFCURVE",
"379 289 OFFCURVE",
"415 301 CURVE SMOOTH",
"432 307 OFFCURVE",
"451 312 OFFCURVE",
"470 316 CURVE",
"454 263 OFFCURVE",
"415 217 OFFCURVE",
"375 217 CURVE SMOOTH"
);
}
);
width = 1004;
}
);
note = A.001;
unicode = E0A1;
},
{
color = 3;
glyphname = Aacute.001;
lastChange = "2021-05-07 03:34:56 +0000";
layers = (
{
hints = (
{
horizontal = 1;
place = "{71, 154}";
type = Stem;
},
{
horizontal = 1;
place = "{314, 14}";
type = Stem;
},
{
horizontal = 1;
place = "{381, 64}";
type = Stem;
},
{
place = "{54, 35}";
type = Stem;
},
{
place = "{119, 41}";
type = Stem;
},
{
place = "{206, 63}";
type = Stem;
},
{
horizontal = 1;
place = "{-8, 326}";
type = Stem;
},
{
horizontal = 1;
place = "{-4, 320}";
type = Stem;
}
);
layerId = "C623C401-2266-4A98-B253-3D45160C29C7";
paths = (
{
closed = 1;
nodes = (
"1061 712 OFFCURVE",
"1105 693 OFFCURVE",
"1113 695 CURVE SMOOTH",
"1134 701 OFFCURVE",
"1240 729 OFFCURVE",
"1276 737 CURVE SMOOTH",
"1292 740 OFFCURVE",
"1212 780 OFFCURVE",
"1198 772 CURVE SMOOTH",
"1173 759 OFFCURVE",
"1099 727 OFFCURVE",
"1072 716 CURVE SMOOTH"
);
},
{
closed = 1;
nodes = (
"841 320 LINE",
"823 268 OFFCURVE",
"810 219 OFFCURVE",
"802 181 CURVE SMOOTH",
"792 141 OFFCURVE",
"778 106 OFFCURVE",
"759 81 CURVE SMOOTH",
"732 49 OFFCURVE",
"695 38 OFFCURVE",
"660 40 CURVE SMOOTH",
"639 40 OFFCURVE",
"633 -1 OFFCURVE",
"660 -1 CURVE",
"700 24 OFFCURVE",
"764 14 OFFCURVE",
"805 1 CURVE SMOOTH",
"919 -35 OFFCURVE",
"971 0 OFFCURVE",
"1015 68 CURVE SMOOTH",
"1043 111 OFFCURVE",
"1066 152 OFFCURVE",
"1087 194 CURVE SMOOTH",
"1099 219 OFFCURVE",
"1071 225 OFFCURVE",
"1060 200 CURVE SMOOTH",
"1053 184 OFFCURVE",
"1041 164 OFFCURVE",
"1023 134 CURVE SMOOTH",
"990 76 OFFCURVE",
"945 65 OFFCURVE",
"896 63 CURVE SMOOTH",
"877 62 OFFCURVE",
"773 59 OFFCURVE",
"773 59 CURVE",
"851 77 OFFCURVE",
"891 146 OFFCURVE",
"926 216 CURVE SMOOTH",
"942 250 OFFCURVE",
"956 284 OFFCURVE",
"970 318 CURVE",
"1007 319 OFFCURVE",
"1049 322 OFFCURVE",
"1077 330 CURVE SMOOTH",
"1092 334 OFFCURVE",
"1090 354 OFFCURVE",
"1076 351 CURVE SMOOTH",
"1043 344 OFFCURVE",
"1011 341 OFFCURVE",
"979 341 CURVE",
"1010 418 OFFCURVE",
"1040 493 OFFCURVE",
"1084 562 CURVE",
"1093 579 OFFCURVE",
"1143 636 OFFCURVE",
"1187 624 CURVE SMOOTH",
"1198 620 OFFCURVE",
"1241 650 OFFCURVE",
"1193 653 CURVE SMOOTH",
"970 667 OFFCURVE",
"846 511 OFFCURVE",
"727 352 CURVE",
"659 356 OFFCURVE",
"591 358 OFFCURVE",
"527 354 CURVE",
"522 426 OFFCURVE",
"459 500 OFFCURVE",
"340 500 CURVE SMOOTH",
"161 500 OFFCURVE",
"-31 360 OFFCURVE",
"-31 155 CURVE SMOOTH",
"-31 -4 OFFCURVE",
"96 -76 OFFCURVE",
"227 -76 CURVE SMOOTH",
"401 -76 OFFCURVE",
"526 17 OFFCURVE",
"654 195 CURVE SMOOTH",
"677 226 OFFCURVE",
"711 275 OFFCURVE",
"749 326 CURVE"
);
},
{
closed = 1;
nodes = (
"167 39 OFFCURVE",
"113 118 OFFCURVE",
"113 209 CURVE SMOOTH",
"113 337 OFFCURVE",
"225 465 OFFCURVE",
"356 465 CURVE SMOOTH",
"453 465 OFFCURVE",
"483 408 OFFCURVE",
"477 349 CURVE",
"446 344 OFFCURVE",
"416 338 OFFCURVE",
"388 329 CURVE SMOOTH",
"328 309 OFFCURVE",
"272 269 OFFCURVE",
"272 215 CURVE SMOOTH",
"272 181 OFFCURVE",
"292 149 OFFCURVE",
"354 149 CURVE SMOOTH",
"440 150 OFFCURVE",
"511 227 OFFCURVE",
"525 324 CURVE",
"585 331 OFFCURVE",
"648 331 OFFCURVE",
"709 328 CURVE",
"598 181 OFFCURVE",
"489 39 OFFCURVE",
"306 39 CURVE SMOOTH"
);
},
{
closed = 1;
nodes = (
"842 449 OFFCURVE",
"927 553 OFFCURVE",
"974 568 CURVE",
"919 509 OFFCURVE",
"878 425 OFFCURVE",
"849 345 CURVE",
"822 346 OFFCURVE",
"795 348 OFFCURVE",
"767 350 CURVE"
);
},
{
closed = 1;
nodes = (
"355 217 OFFCURVE",
"347 225 OFFCURVE",
"347 237 CURVE SMOOTH",
"347 260 OFFCURVE",
"379 289 OFFCURVE",
"415 301 CURVE SMOOTH",
"432 307 OFFCURVE",
"451 312 OFFCURVE",
"470 316 CURVE",
"454 263 OFFCURVE",
"415 217 OFFCURVE",
"375 217 CURVE SMOOTH"
);
}
);
width = 1004;
}
);
note = Aacute.001;
unicode = E0BD;
},
{
color = 3;
glyphname = Acircumflex.001;
lastChange = "2021-05-07 03:34:56 +0000";
layers = (
{
hints = (
{
horizontal = 1;
place = "{71, 154}";
type = Stem;
},
{
horizontal = 1;
place = "{314, 14}";
type = Stem;
},
{
horizontal = 1;
place = "{381, 64}";
type = Stem;
},
{
place = "{54, 35}";
type = Stem;
},
{
place = "{119, 41}";
type = Stem;
},
{
place = "{206, 63}";
type = Stem;
},
{
horizontal = 1;
place = "{-8, 326}";
type = Stem;
},
{
horizontal = 1;
place = "{-4, 320}";
type = Stem;
}
);
layerId = "C623C401-2266-4A98-B253-3D45160C29C7";
paths = (
{
closed = 1;
nodes = (
"1009 700 LINE SMOOTH",
"1003 696 OFFCURVE",
"1065 695 OFFCURVE",
"1069 699 CURVE SMOOTH",
"1132 770 LINE",
"1161 696 LINE SMOOTH",
"1162 692 OFFCURVE",
"1223 694 OFFCURVE",
"1219 700 CURVE SMOOTH",
"1165 798 LINE",
"1158 804 OFFCURVE",
"1135 801 OFFCURVE",
"1128 797 CURVE"
);
},
{
closed = 1;
nodes = (
"841 320 LINE",
"823 268 OFFCURVE",
"810 219 OFFCURVE",
"802 181 CURVE SMOOTH",
"792 141 OFFCURVE",
"778 106 OFFCURVE",
"759 81 CURVE SMOOTH",
"732 49 OFFCURVE",
"695 38 OFFCURVE",
"660 40 CURVE SMOOTH",
"639 40 OFFCURVE",
"633 -1 OFFCURVE",
"660 -1 CURVE",
"700 24 OFFCURVE",
"764 14 OFFCURVE",
"805 1 CURVE SMOOTH",
"919 -35 OFFCURVE",
"971 0 OFFCURVE",
"1015 68 CURVE SMOOTH",
"1043 111 OFFCURVE",
"1066 152 OFFCURVE",
"1087 194 CURVE SMOOTH",
"1099 219 OFFCURVE",
"1071 225 OFFCURVE",
"1060 200 CURVE SMOOTH",
"1053 184 OFFCURVE",
"1041 164 OFFCURVE",
"1023 134 CURVE SMOOTH",
"990 76 OFFCURVE",
"945 65 OFFCURVE",
"896 63 CURVE SMOOTH",
"877 62 OFFCURVE",
"773 59 OFFCURVE",
"773 59 CURVE",
"851 77 OFFCURVE",
"891 146 OFFCURVE",
"926 216 CURVE SMOOTH",
"942 250 OFFCURVE",
"956 284 OFFCURVE",
"970 318 CURVE",
"1007 319 OFFCURVE",
"1049 322 OFFCURVE",
"1077 330 CURVE SMOOTH",
"1092 334 OFFCURVE",
"1090 354 OFFCURVE",
"1076 351 CURVE SMOOTH",
"1043 344 OFFCURVE",
"1011 341 OFFCURVE",
"979 341 CURVE",
"1010 418 OFFCURVE",
"1040 493 OFFCURVE",
"1084 562 CURVE",
"1093 579 OFFCURVE",
"1143 636 OFFCURVE",
"1187 624 CURVE SMOOTH",
"1198 620 OFFCURVE",
"1241 650 OFFCURVE",
"1193 653 CURVE SMOOTH",
"970 667 OFFCURVE",
"846 511 OFFCURVE",
"727 352 CURVE",
"659 356 OFFCURVE",
"591 358 OFFCURVE",
"527 354 CURVE",
"522 426 OFFCURVE",
"459 500 OFFCURVE",
"340 500 CURVE SMOOTH",
"161 500 OFFCURVE",
"-31 360 OFFCURVE",
"-31 155 CURVE SMOOTH",
"-31 -4 OFFCURVE",
"96 -76 OFFCURVE",
"227 -76 CURVE SMOOTH",
"401 -76 OFFCURVE",
"526 17 OFFCURVE",
"654 195 CURVE SMOOTH",
"677 226 OFFCURVE",
"711 275 OFFCURVE",
"749 326 CURVE"
);
},
{
closed = 1;
nodes = (
"167 39 OFFCURVE",
"113 118 OFFCURVE",
"113 209 CURVE SMOOTH",
"113 337 OFFCURVE",
"225 465 OFFCURVE",
"356 465 CURVE SMOOTH",
"453 465 OFFCURVE",
"483 408 OFFCURVE",
"477 349 CURVE",
"446 344 OFFCURVE",
"416 338 OFFCURVE",
"388 329 CURVE SMOOTH",
"328 309 OFFCURVE",
"272 269 OFFCURVE",
"272 215 CURVE SMOOTH",
"272 181 OFFCURVE",
"292 149 OFFCURVE",
"354 149 CURVE SMOOTH",
"440 150 OFFCURVE",
"511 227 OFFCURVE",
"525 324 CURVE",
"585 331 OFFCURVE",
"648 331 OFFCURVE",
"709 328 CURVE",
"598 181 OFFCURVE",
"489 39 OFFCURVE",
"306 39 CURVE SMOOTH"
);
},
{
closed = 1;
nodes = (
"842 449 OFFCURVE",
"927 553 OFFCURVE",
"974 568 CURVE",
"919 509 OFFCURVE",
"878 425 OFFCURVE",
"849 345 CURVE",
"822 346 OFFCURVE",
"795 348 OFFCURVE",
"767 350 CURVE"
);
},
{
closed = 1;
nodes = (
"355 217 OFFCURVE",
"347 225 OFFCURVE",
"347 237 CURVE SMOOTH",
"347 260 OFFCURVE",
"379 289 OFFCURVE",
"415 301 CURVE SMOOTH",
"432 307 OFFCURVE",
"451 312 OFFCURVE",
"470 316 CURVE",
"454 263 OFFCURVE",
"415 217 OFFCURVE",
"375 217 CURVE SMOOTH"
);
}
);
width = 1004;
}
);
note = Acircumflex.001;
unicode = E0BE;
},
{
color = 3;
glyphname = Adieresis.001;
lastChange = "2021-05-07 03:34:56 +0000";
layers = (
{
hints = (
{
horizontal = 1;
place = "{71, 154}";
type = Stem;
},
{
horizontal = 1;
place = "{314, 14}";
type = Stem;
},
{
horizontal = 1;
place = "{381, 64}";
type = Stem;
},
{
place = "{54, 35}";
type = Stem;
},
{
place = "{119, 41}";
type = Stem;
},
{
place = "{206, 63}";
type = Stem;
},
{
horizontal = 1;
place = "{-8, 326}";
type = Stem;
},
{
horizontal = 1;
place = "{-4, 320}";
type = Stem;
}
);
layerId = "C623C401-2266-4A98-B253-3D45160C29C7";
paths = (
{
closed = 1;
nodes = (
"1292 781 OFFCURVE",
"1279 802 OFFCURVE",
"1254 801 CURVE SMOOTH",
"1230 799 OFFCURVE",
"1204 776 OFFCURVE",
"1197 748 CURVE SMOOTH",
"1190 720 OFFCURVE",
"1203 699 OFFCURVE",
"1228 701 CURVE SMOOTH",
"1252 702 OFFCURVE",
"1278 726 OFFCURVE",
"1285 753 CURVE SMOOTH"
);
},
{
closed = 1;
nodes = (
"1138 781 OFFCURVE",
"1124 802 OFFCURVE",
"1100 801 CURVE SMOOTH",
"1075 799 OFFCURVE",
"1050 776 OFFCURVE",
"1042 748 CURVE SMOOTH",
"1035 720 OFFCURVE",
"1049 699 OFFCURVE",
"1073 701 CURVE SMOOTH",
"1098 702 OFFCURVE",
"1123 726 OFFCURVE",
"1131 753 CURVE SMOOTH"
);
},
{
closed = 1;
nodes = (
"841 320 LINE",
"823 268 OFFCURVE",
"810 219 OFFCURVE",
"802 181 CURVE SMOOTH",
"792 141 OFFCURVE",
"778 106 OFFCURVE",
"759 81 CURVE SMOOTH",
"732 49 OFFCURVE",
"695 38 OFFCURVE",
"660 40 CURVE SMOOTH",
"639 40 OFFCURVE",
"633 -1 OFFCURVE",
"660 -1 CURVE",
"700 24 OFFCURVE",
"764 14 OFFCURVE",
"805 1 CURVE SMOOTH",
"919 -35 OFFCURVE",
"971 0 OFFCURVE",
"1015 68 CURVE SMOOTH",
"1043 111 OFFCURVE",
"1066 152 OFFCURVE",
"1087 194 CURVE SMOOTH",
"1099 219 OFFCURVE",
"1071 225 OFFCURVE",
"1060 200 CURVE SMOOTH",
"1053 184 OFFCURVE",
"1041 164 OFFCURVE",
"1023 134 CURVE SMOOTH",
"990 76 OFFCURVE",
"945 65 OFFCURVE",
"896 63 CURVE SMOOTH",
"877 62 OFFCURVE",
"773 59 OFFCURVE",
"773 59 CURVE",
"851 77 OFFCURVE",
"891 146 OFFCURVE",
"926 216 CURVE SMOOTH",
"942 250 OFFCURVE",
"956 284 OFFCURVE",
"970 318 CURVE",
"1007 319 OFFCURVE",
"1049 322 OFFCURVE",
"1077 330 CURVE SMOOTH",
"1092 334 OFFCURVE",
"1090 354 OFFCURVE",
"1076 351 CURVE SMOOTH",
"1043 344 OFFCURVE",
"1011 341 OFFCURVE",
"979 341 CURVE",
"1010 418 OFFCURVE",
"1040 493 OFFCURVE",
"1084 562 CURVE",
"1093 579 OFFCURVE",
"1143 636 OFFCURVE",
"1187 624 CURVE SMOOTH",
"1198 620 OFFCURVE",
"1241 650 OFFCURVE",
"1193 653 CURVE SMOOTH",
"970 667 OFFCURVE",
"846 511 OFFCURVE",
"727 352 CURVE",
"659 356 OFFCURVE",
"591 358 OFFCURVE",
"527 354 CURVE",
"522 426 OFFCURVE",
"459 500 OFFCURVE",
"340 500 CURVE SMOOTH",
"161 500 OFFCURVE",
"-31 360 OFFCURVE",
"-31 155 CURVE SMOOTH",
"-31 -4 OFFCURVE",
"96 -76 OFFCURVE",
"227 -76 CURVE SMOOTH",
"401 -76 OFFCURVE",
"526 17 OFFCURVE",
"654 195 CURVE SMOOTH",
"677 226 OFFCURVE",
"711 275 OFFCURVE",
"749 326 CURVE"
);
},
{
closed = 1;
nodes = (
"167 39 OFFCURVE",
"113 118 OFFCURVE",
"113 209 CURVE SMOOTH",
"113 337 OFFCURVE",
"225 465 OFFCURVE",
"356 465 CURVE SMOOTH",
"453 465 OFFCURVE",
"483 408 OFFCURVE",
"477 349 CURVE",
"446 344 OFFCURVE",
"416 338 OFFCURVE",
"388 329 CURVE SMOOTH",
"328 309 OFFCURVE",
"272 269 OFFCURVE",
"272 215 CURVE SMOOTH",
"272 181 OFFCURVE",
"292 149 OFFCURVE",
"354 149 CURVE SMOOTH",
"440 150 OFFCURVE",
"511 227 OFFCURVE",
"525 324 CURVE",
"585 331 OFFCURVE",
"648 331 OFFCURVE",
"709 328 CURVE",
"598 181 OFFCURVE",
"489 39 OFFCURVE",
"306 39 CURVE SMOOTH"
);
},
{
closed = 1;
nodes = (
"842 449 OFFCURVE",
"927 553 OFFCURVE",
"974 568 CURVE",
"919 509 OFFCURVE",
"878 425 OFFCURVE",
"849 345 CURVE",
"822 346 OFFCURVE",
"795 348 OFFCURVE",
"767 350 CURVE"
);
},
{
closed = 1;
nodes = (
"355 217 OFFCURVE",
"347 225 OFFCURVE",
"347 237 CURVE SMOOTH",
"347 260 OFFCURVE",
"379 289 OFFCURVE",
"415 301 CURVE SMOOTH",
"432 307 OFFCURVE",
"451 312 OFFCURVE",
"470 316 CURVE",
"454 263 OFFCURVE",
"415 217 OFFCURVE",
"375 217 CURVE SMOOTH"
);
}
);
width = 1004;
}
);
note = Adieresis.001;
unicode = E0C0;
},
{
color = 3;
glyphname = Agrave.001;
lastChange = "2021-05-07 03:34:56 +0000";
layers = (
{
hints = (
{
horizontal = 1;
place = "{71, 154}";
type = Stem;
},
{
horizontal = 1;
place = "{314, 14}";
type = Stem;
},
{
horizontal = 1;
place = "{381, 64}";
type = Stem;
},
{
place = "{54, 35}";
type = Stem;
},
{
place = "{119, 41}";
type = Stem;
},
{
place = "{206, 63}";
type = Stem;
},
{
horizontal = 1;
place = "{-8, 326}";
type = Stem;
},
{
horizontal = 1;
place = "{-4, 320}";
type = Stem;
}
);
layerId = "C623C401-2266-4A98-B253-3D45160C29C7";
paths = (
{
closed = 1;
nodes = (
"1206 726 OFFCURVE",
"1132 758 OFFCURVE",
"1107 771 CURVE SMOOTH",
"1093 779 OFFCURVE",
"1013 739 OFFCURVE",
"1029 736 CURVE SMOOTH",
"1065 728 OFFCURVE",
"1171 700 OFFCURVE",
"1192 694 CURVE SMOOTH",
"1200 692 OFFCURVE",
"1244 711 OFFCURVE",
"1233 715 CURVE SMOOTH"
);
},
{
closed = 1;
nodes = (
"841 320 LINE",
"823 268 OFFCURVE",
"810 219 OFFCURVE",
"802 181 CURVE SMOOTH",
"792 141 OFFCURVE",
"778 106 OFFCURVE",
"759 81 CURVE SMOOTH",
"732 49 OFFCURVE",
"695 38 OFFCURVE",
"660 40 CURVE SMOOTH",
"639 40 OFFCURVE",
"633 -1 OFFCURVE",
"660 -1 CURVE",
"700 24 OFFCURVE",
"764 14 OFFCURVE",
"805 1 CURVE SMOOTH",
"919 -35 OFFCURVE",
"971 0 OFFCURVE",
"1015 68 CURVE SMOOTH",
"1043 111 OFFCURVE",
"1066 152 OFFCURVE",
"1087 194 CURVE SMOOTH",
"1099 219 OFFCURVE",
"1071 225 OFFCURVE",
"1060 200 CURVE SMOOTH",
"1053 184 OFFCURVE",
"1041 164 OFFCURVE",
"1023 134 CURVE SMOOTH",
"990 76 OFFCURVE",
"945 65 OFFCURVE",
"896 63 CURVE SMOOTH",
"877 62 OFFCURVE",
"773 59 OFFCURVE",
"773 59 CURVE",
"851 77 OFFCURVE",
"891 146 OFFCURVE",
"926 216 CURVE SMOOTH",
"942 250 OFFCURVE",
"956 284 OFFCURVE",
"970 318 CURVE",
"1007 319 OFFCURVE",
"1049 322 OFFCURVE",
"1077 330 CURVE SMOOTH",
"1092 334 OFFCURVE",
"1090 354 OFFCURVE",
"1076 351 CURVE SMOOTH",
"1043 344 OFFCURVE",
"1011 341 OFFCURVE",
"979 341 CURVE",
"1010 418 OFFCURVE",
"1040 493 OFFCURVE",
"1084 562 CURVE",
"1093 579 OFFCURVE",
"1143 636 OFFCURVE",
"1187 624 CURVE SMOOTH",
"1198 620 OFFCURVE",
"1241 650 OFFCURVE",
"1193 653 CURVE SMOOTH",
"970 667 OFFCURVE",
"846 511 OFFCURVE",
"727 352 CURVE",
"659 356 OFFCURVE",
"591 358 OFFCURVE",
"527 354 CURVE",
"522 426 OFFCURVE",
"459 500 OFFCURVE",
"340 500 CURVE SMOOTH",
"161 500 OFFCURVE",
"-31 360 OFFCURVE",
"-31 155 CURVE SMOOTH",
"-31 -4 OFFCURVE",
"96 -76 OFFCURVE",
"227 -76 CURVE SMOOTH",
"401 -76 OFFCURVE",
"526 17 OFFCURVE",
"654 195 CURVE SMOOTH",
"677 226 OFFCURVE",
"711 275 OFFCURVE",
"749 326 CURVE"
);
},
{
closed = 1;
nodes = (
"167 39 OFFCURVE",
"113 118 OFFCURVE",
"113 209 CURVE SMOOTH",
"113 337 OFFCURVE",
"225 465 OFFCURVE",
"356 465 CURVE SMOOTH",
"453 465 OFFCURVE",
"483 408 OFFCURVE",
"477 349 CURVE",
"446 344 OFFCURVE",
"416 338 OFFCURVE",
"388 329 CURVE SMOOTH",
"328 309 OFFCURVE",
"272 269 OFFCURVE",
"272 215 CURVE SMOOTH",
"272 181 OFFCURVE",
"292 149 OFFCURVE",
"354 149 CURVE SMOOTH",
"440 150 OFFCURVE",
"511 227 OFFCURVE",
"525 324 CURVE",
"585 331 OFFCURVE",
"648 331 OFFCURVE",
"709 328 CURVE",
"598 181 OFFCURVE",
"489 39 OFFCURVE",
"306 39 CURVE SMOOTH"
);
},
{
closed = 1;
nodes = (
"842 449 OFFCURVE",
"927 553 OFFCURVE",
"974 568 CURVE",
"919 509 OFFCURVE",
"878 425 OFFCURVE",
"849 345 CURVE",
"822 346 OFFCURVE",
"795 348 OFFCURVE",
"767 350 CURVE"
);
},
{
closed = 1;
nodes = (
"355 217 OFFCURVE",
"347 225 OFFCURVE",
"347 237 CURVE SMOOTH",
"347 260 OFFCURVE",
"379 289 OFFCURVE",
"415 301 CURVE SMOOTH",
"432 307 OFFCURVE",
"451 312 OFFCURVE",
"470 316 CURVE",
"454 263 OFFCURVE",
"415 217 OFFCURVE",
"375 217 CURVE SMOOTH"
);
}
);
width = 1004;
}
);
note = Agrave.001;
unicode = E0BC;
},
{
color = 3;
glyphname = Amacron.001;
lastChange = "2021-05-07 03:34:56 +0000";
layers = (
{
hints = (
{
horizontal = 1;
place = "{71, 154}";
type = Stem;
},
{
horizontal = 1;
place = "{314, 14}";
type = Stem;
},
{
horizontal = 1;
place = "{381, 64}";
type = Stem;
},
{
place = "{54, 35}";
type = Stem;
},
{
place = "{119, 41}";
type = Stem;
},
{
place = "{206, 63}";
type = Stem;
},
{
horizontal = 1;
place = "{-8, 326}";
type = Stem;
},
{
horizontal = 1;
place = "{-4, 320}";
type = Stem;
}
);
layerId = "C623C401-2266-4A98-B253-3D45160C29C7";
paths = (
{
closed = 1;
nodes = (
"1068 764 LINE SMOOTH",
"1057 764 OFFCURVE",
"1021 722 OFFCURVE",
"1036 722 CURVE SMOOTH",
"1230 722 LINE SMOOTH",
"1237 722 OFFCURVE",
"1275 764 OFFCURVE",
"1252 764 CURVE SMOOTH"
);
},
{
closed = 1;
nodes = (
"841 320 LINE",
"823 268 OFFCURVE",
"810 219 OFFCURVE",
"802 181 CURVE SMOOTH",
"792 141 OFFCURVE",
"778 106 OFFCURVE",
"759 81 CURVE SMOOTH",
"732 49 OFFCURVE",
"695 38 OFFCURVE",
"660 40 CURVE SMOOTH",
"639 40 OFFCURVE",
"633 -1 OFFCURVE",
"660 -1 CURVE",
"700 24 OFFCURVE",
"764 14 OFFCURVE",
"805 1 CURVE SMOOTH",
"919 -35 OFFCURVE",
"971 0 OFFCURVE",
"1015 68 CURVE SMOOTH",
"1043 111 OFFCURVE",
"1066 152 OFFCURVE",
"1087 194 CURVE SMOOTH",
"1099 219 OFFCURVE",
"1071 225 OFFCURVE",
"1060 200 CURVE SMOOTH",
"1053 184 OFFCURVE",
"1041 164 OFFCURVE",
"1023 134 CURVE SMOOTH",
"990 76 OFFCURVE",
"945 65 OFFCURVE",
"896 63 CURVE SMOOTH",
"877 62 OFFCURVE",
"773 59 OFFCURVE",
"773 59 CURVE",
"851 77 OFFCURVE",
"891 146 OFFCURVE",
"926 216 CURVE SMOOTH",
"942 250 OFFCURVE",
"956 284 OFFCURVE",
"970 318 CURVE",
"1007 319 OFFCURVE",
"1049 322 OFFCURVE",
"1077 330 CURVE SMOOTH",
"1092 334 OFFCURVE",
"1090 354 OFFCURVE",
"1076 351 CURVE SMOOTH",
"1043 344 OFFCURVE",
"1011 341 OFFCURVE",
"979 341 CURVE",
"1010 418 OFFCURVE",
"1040 493 OFFCURVE",
"1084 562 CURVE",
"1093 579 OFFCURVE",
"1143 636 OFFCURVE",
"1187 624 CURVE SMOOTH",
"1198 620 OFFCURVE",
"1241 650 OFFCURVE",
"1193 653 CURVE SMOOTH",
"970 667 OFFCURVE",
"846 511 OFFCURVE",
"727 352 CURVE",
"659 356 OFFCURVE",
"591 358 OFFCURVE",
"527 354 CURVE",
"522 426 OFFCURVE",
"459 500 OFFCURVE",
"340 500 CURVE SMOOTH",
"161 500 OFFCURVE",
"-31 360 OFFCURVE",
"-31 155 CURVE SMOOTH",
"-31 -4 OFFCURVE",
"96 -76 OFFCURVE",
"227 -76 CURVE SMOOTH",
"401 -76 OFFCURVE",
"526 17 OFFCURVE",
"654 195 CURVE SMOOTH",
"677 226 OFFCURVE",
"711 275 OFFCURVE",
"749 326 CURVE"
);
},
{
closed = 1;
nodes = (
"167 39 OFFCURVE",
"113 118 OFFCURVE",
"113 209 CURVE SMOOTH",
"113 337 OFFCURVE",
"225 465 OFFCURVE",
"356 465 CURVE SMOOTH",
"453 465 OFFCURVE",
"483 408 OFFCURVE",
"477 349 CURVE",
"446 344 OFFCURVE",
"416 338 OFFCURVE",
"388 329 CURVE SMOOTH",
"328 309 OFFCURVE",
"272 269 OFFCURVE",
"272 215 CURVE SMOOTH",
"272 181 OFFCURVE",
"292 149 OFFCURVE",
"354 149 CURVE SMOOTH",
"440 150 OFFCURVE",
"511 227 OFFCURVE",
"525 324 CURVE",
"585 331 OFFCURVE",
"648 331 OFFCURVE",
"709 328 CURVE",
"598 181 OFFCURVE",
"489 39 OFFCURVE",
"306 39 CURVE SMOOTH"
);
},
{
closed = 1;
nodes = (
"842 449 OFFCURVE",
"927 553 OFFCURVE",
"974 568 CURVE",
"919 509 OFFCURVE",
"878 425 OFFCURVE",
"849 345 CURVE",
"822 346 OFFCURVE",
"795 348 OFFCURVE",
"767 350 CURVE"
);
},
{
closed = 1;
nodes = (
"355 217 OFFCURVE",
"347 225 OFFCURVE",
"347 237 CURVE SMOOTH",
"347 260 OFFCURVE",
"379 289 OFFCURVE",
"415 301 CURVE SMOOTH",
"432 307 OFFCURVE",
"451 312 OFFCURVE",
"470 316 CURVE",
"454 263 OFFCURVE",
"415 217 OFFCURVE",
"375 217 CURVE SMOOTH"
);
}
);
width = 1004;
}
);
note = Amacron.001;
unicode = E0D9;
},
{
color = 3;
glyphname = Aogonek.001;
lastChange = "2021-05-07 03:34:56 +0000";
layers = (
{
hints = (
{
horizontal = 1;
place = "{71, 154}";
type = Stem;
},
{
horizontal = 1;
place = "{314, 14}";
type = Stem;
},
{
horizontal = 1;
place = "{381, 64}";
type = Stem;
},
{
place = "{54, 35}";
type = Stem;
},
{
place = "{119, 41}";
type = Stem;
},
{
place = "{206, 63}";
type = Stem;
},
{
horizontal = 1;
place = "{-8, 326}";
type = Stem;
},
{
horizontal = 1;
place = "{-4, 320}";
type = Stem;
}
);
layerId = "C623C401-2266-4A98-B253-3D45160C29C7";
paths = (
{
closed = 1;
nodes = (
"841 320 LINE",
"823 268 OFFCURVE",
"810 219 OFFCURVE",
"802 181 CURVE SMOOTH",
"792 141 OFFCURVE",
"778 106 OFFCURVE",
"759 81 CURVE SMOOTH",
"732 49 OFFCURVE",
"695 38 OFFCURVE",
"660 40 CURVE SMOOTH",
"639 40 OFFCURVE",
"633 -1 OFFCURVE",
"660 -1 CURVE",
"700 24 OFFCURVE",
"764 14 OFFCURVE",
"805 1 CURVE",
"806 0 OFFCURVE",
"808 0 OFFCURVE",
"809 0 CURVE",
"727 -28 OFFCURVE",
"673 -112 OFFCURVE",
"673 -183 CURVE SMOOTH",
"673 -220 OFFCURVE",
"699 -240 OFFCURVE",
"731 -241 CURVE SMOOTH",
"758 -241 OFFCURVE",
"785 -229 OFFCURVE",
"814 -205 CURVE SMOOTH",
"833 -189 OFFCURVE",
"850 -170 OFFCURVE",
"867 -149 CURVE SMOOTH",
"877 -138 OFFCURVE",
"880 -117 OFFCURVE",
"856 -142 CURVE SMOOTH",
"828 -172 OFFCURVE",
"797 -197 OFFCURVE",
"776 -197 CURVE SMOOTH",
"760 -197 OFFCURVE",
"747 -183 OFFCURVE",
"747 -156 CURVE SMOOTH",
"747 -108 OFFCURVE",
"782 -36 OFFCURVE",
"847 -9 CURVE",
"932 -25 OFFCURVE",
"977 9 OFFCURVE",
"1015 68 CURVE SMOOTH",
"1043 111 OFFCURVE",
"1066 152 OFFCURVE",
"1087 194 CURVE SMOOTH",
"1099 219 OFFCURVE",
"1071 225 OFFCURVE",
"1060 200 CURVE SMOOTH",
"1053 184 OFFCURVE",
"1041 164 OFFCURVE",
"1023 134 CURVE SMOOTH",
"990 76 OFFCURVE",
"945 65 OFFCURVE",
"896 63 CURVE SMOOTH",
"877 62 OFFCURVE",
"773 59 OFFCURVE",
"773 59 CURVE",
"851 77 OFFCURVE",
"891 146 OFFCURVE",
"926 216 CURVE SMOOTH",
"942 250 OFFCURVE",
"956 284 OFFCURVE",
"970 318 CURVE",
"1007 319 OFFCURVE",
"1049 322 OFFCURVE",
"1077 330 CURVE SMOOTH",
"1092 334 OFFCURVE",
"1090 354 OFFCURVE",
"1076 351 CURVE SMOOTH",
"1043 344 OFFCURVE",
"1011 341 OFFCURVE",
"979 341 CURVE",
"1010 418 OFFCURVE",
"1040 493 OFFCURVE",
"1084 562 CURVE",
"1093 579 OFFCURVE",
"1143 636 OFFCURVE",
"1187 624 CURVE SMOOTH",
"1198 620 OFFCURVE",
"1241 650 OFFCURVE",
"1193 653 CURVE SMOOTH",
"970 667 OFFCURVE",
"846 511 OFFCURVE",
"727 352 CURVE",
"659 356 OFFCURVE",
"591 358 OFFCURVE",
"527 354 CURVE",
"522 426 OFFCURVE",
"459 500 OFFCURVE",
"340 500 CURVE SMOOTH",
"161 500 OFFCURVE",
"-31 360 OFFCURVE",
"-31 155 CURVE SMOOTH",
"-31 -4 OFFCURVE",
"96 -76 OFFCURVE",
"227 -76 CURVE SMOOTH",
"401 -76 OFFCURVE",
"526 17 OFFCURVE",
"654 195 CURVE SMOOTH",
"677 226 OFFCURVE",
"711 275 OFFCURVE",
"749 326 CURVE"
);
},
{
closed = 1;
nodes = (
"167 39 OFFCURVE",
"113 118 OFFCURVE",
"113 209 CURVE SMOOTH",
"113 337 OFFCURVE",
"225 465 OFFCURVE",
"356 465 CURVE SMOOTH",
"453 465 OFFCURVE",
"483 408 OFFCURVE",
"477 349 CURVE",
"446 344 OFFCURVE",
"416 338 OFFCURVE",
"388 329 CURVE SMOOTH",
"328 309 OFFCURVE",
"272 269 OFFCURVE",
"272 215 CURVE SMOOTH",
"272 181 OFFCURVE",
"292 149 OFFCURVE",
"354 149 CURVE SMOOTH",
"440 150 OFFCURVE",
"511 227 OFFCURVE",
"525 324 CURVE",
"585 331 OFFCURVE",
"648 331 OFFCURVE",
"709 328 CURVE",
"598 181 OFFCURVE",
"489 39 OFFCURVE",
"306 39 CURVE SMOOTH"
);
},
{
closed = 1;
nodes = (
"842 449 OFFCURVE",
"927 553 OFFCURVE",
"974 568 CURVE",
"919 509 OFFCURVE",
"878 425 OFFCURVE",
"849 345 CURVE",
"822 346 OFFCURVE",
"795 348 OFFCURVE",
"767 350 CURVE"
);
},
{
closed = 1;
nodes = (
"355 217 OFFCURVE",
"347 225 OFFCURVE",
"347 237 CURVE SMOOTH",
"347 260 OFFCURVE",
"379 289 OFFCURVE",
"415 301 CURVE SMOOTH",
"432 307 OFFCURVE",
"451 312 OFFCURVE",
"470 316 CURVE",
"454 263 OFFCURVE",
"415 217 OFFCURVE",
"375 217 CURVE SMOOTH"
);
}
);
width = 1004;
}
);
note = Aogonek.001;
unicode = E0DA;
},
{
color = 3;
glyphname = Aring.001;
lastChange = "2021-05-07 03:34:56 +0000";
layers = (
{
hints = (
{
horizontal = 1;
place = "{71, 154}";
type = Stem;
},
{
horizontal = 1;
place = "{314, 14}";
type = Stem;
},
{
horizontal = 1;
place = "{381, 64}";
type = Stem;
},
{
place = "{54, 35}";
type = Stem;
},
{
place = "{119, 41}";
type = Stem;
},
{
place = "{206, 63}";
type = Stem;
},
{
horizontal = 1;
place = "{-8, 326}";
type = Stem;
},
{
horizontal = 1;
place = "{-4, 320}";
type = Stem;
}
);
layerId = "C623C401-2266-4A98-B253-3D45160C29C7";
paths = (
{
closed = 1;
nodes = (
"841 320 LINE",
"823 268 OFFCURVE",
"810 219 OFFCURVE",
"802 181 CURVE SMOOTH",
"792 141 OFFCURVE",
"778 106 OFFCURVE",
"759 81 CURVE SMOOTH",
"732 49 OFFCURVE",
"695 38 OFFCURVE",
"660 40 CURVE SMOOTH",
"639 40 OFFCURVE",
"633 -1 OFFCURVE",
"660 -1 CURVE",
"700 24 OFFCURVE",
"764 14 OFFCURVE",
"805 1 CURVE SMOOTH",
"919 -35 OFFCURVE",
"971 0 OFFCURVE",
"1015 68 CURVE SMOOTH",
"1043 111 OFFCURVE",
"1066 152 OFFCURVE",
"1087 194 CURVE SMOOTH",
"1099 219 OFFCURVE",
"1071 225 OFFCURVE",
"1060 200 CURVE SMOOTH",
"1053 184 OFFCURVE",
"1041 164 OFFCURVE",
"1023 134 CURVE SMOOTH",
"990 76 OFFCURVE",
"945 65 OFFCURVE",
"896 63 CURVE SMOOTH",
"877 62 OFFCURVE",
"773 59 OFFCURVE",
"773 59 CURVE",
"851 77 OFFCURVE",
"891 146 OFFCURVE",
"926 216 CURVE SMOOTH",
"942 250 OFFCURVE",
"956 284 OFFCURVE",
"970 318 CURVE",
"1007 319 OFFCURVE",
"1049 322 OFFCURVE",
"1077 330 CURVE SMOOTH",
"1092 334 OFFCURVE",
"1090 354 OFFCURVE",
"1076 351 CURVE SMOOTH",
"1043 344 OFFCURVE",
"1011 341 OFFCURVE",
"979 341 CURVE",
"1010 418 OFFCURVE",
"1040 493 OFFCURVE",
"1084 562 CURVE",
"1093 579 OFFCURVE",
"1143 636 OFFCURVE",
"1187 624 CURVE SMOOTH",
"1198 620 OFFCURVE",
"1241 650 OFFCURVE",
"1193 653 CURVE SMOOTH",
"1188 653 LINE",
"1208 669 OFFCURVE",
"1223 691 OFFCURVE",
"1230 713 CURVE SMOOTH",
"1245 758 OFFCURVE",
"1227 806 OFFCURVE",
"1163 807 CURVE SMOOTH",
"1095 808 OFFCURVE",
"1049 764 OFFCURVE",
"1035 718 CURVE SMOOTH",
"1025 687 OFFCURVE",
"1031 655 OFFCURVE",
"1054 637 CURVE",
"913 595 OFFCURVE",
"818 474 OFFCURVE",
"727 352 CURVE",
"659 356 OFFCURVE",
"591 358 OFFCURVE",
"527 354 CURVE",
"522 426 OFFCURVE",
"459 500 OFFCURVE",
"340 500 CURVE SMOOTH",
"161 500 OFFCURVE",
"-31 360 OFFCURVE",
"-31 155 CURVE SMOOTH",
"-31 -4 OFFCURVE",
"96 -76 OFFCURVE",
"227 -76 CURVE SMOOTH",
"401 -76 OFFCURVE",
"526 17 OFFCURVE",
"654 195 CURVE SMOOTH",
"677 226 OFFCURVE",
"711 275 OFFCURVE",
"749 326 CURVE"
);
},
{
closed = 1;
nodes = (
"167 39 OFFCURVE",
"113 118 OFFCURVE",
"113 209 CURVE SMOOTH",
"113 337 OFFCURVE",
"225 465 OFFCURVE",
"356 465 CURVE SMOOTH",
"453 465 OFFCURVE",
"483 408 OFFCURVE",
"477 349 CURVE",
"446 344 OFFCURVE",
"416 338 OFFCURVE",
"388 329 CURVE SMOOTH",
"328 309 OFFCURVE",
"272 269 OFFCURVE",
"272 215 CURVE SMOOTH",
"272 181 OFFCURVE",
"292 149 OFFCURVE",
"354 149 CURVE SMOOTH",
"440 150 OFFCURVE",
"511 227 OFFCURVE",
"525 324 CURVE",
"585 331 OFFCURVE",
"648 331 OFFCURVE",
"709 328 CURVE",
"598 181 OFFCURVE",
"489 39 OFFCURVE",
"306 39 CURVE SMOOTH"
);
},
{
closed = 1;
nodes = (
"842 449 OFFCURVE",
"927 553 OFFCURVE",
"974 568 CURVE",
"919 509 OFFCURVE",
"878 425 OFFCURVE",
"849 345 CURVE",
"822 346 OFFCURVE",
"795 348 OFFCURVE",
"767 350 CURVE"
);
},
{
closed = 1;
nodes = (
"1206 763 OFFCURVE",
"1161 653 OFFCURVE",
"1109 664 CURVE SMOOTH",
"1065 673 OFFCURVE",
"1108 783 OFFCURVE",
"1160 773 CURVE SMOOTH"
);
},
{
closed = 1;
nodes = (
"355 217 OFFCURVE",
"347 225 OFFCURVE",
"347 237 CURVE SMOOTH",
"347 260 OFFCURVE",
"379 289 OFFCURVE",
"415 301 CURVE SMOOTH",
"432 307 OFFCURVE",
"451 312 OFFCURVE",
"470 316 CURVE",
"454 263 OFFCURVE",
"415 217 OFFCURVE",
"375 217 CURVE SMOOTH"
);
}
);
width = 1004;
}
);
note = Aring.001;
unicode = E0C1;
},
